<svg width="31" height="29" viewBox="0 0 31 29" fill="none" xmlns="http://www.w3.org/2000/svg">
<g clip-path="url(#clip0)">
<path d="M25.0806 19.8162C24.1074 21.4489 22.71 22.8041 21.0286 23.7463C19.3472 24.6884 17.4408 25.1843 15.5002 25.1843C13.5597 25.1843 11.6532 24.6884 9.97184 23.7463C8.29043 22.8041 6.8931 21.4489 5.91983 19.8162L2.51911 21.7291C3.83742 23.9419 5.7306 25.7787 8.00891 27.0557C10.2872 28.3326 12.8706 29.0048 15.5002 29.0048C18.1298 29.0048 20.7132 28.3326 22.9916 27.0557C25.2699 25.7787 27.163 23.9419 28.4813 21.7291L25.0806 19.8162ZM4.47283 15.4057C4.44224 15.0789 4.42673 14.748 4.42628 14.413C4.4267 11.9493 5.29522 9.56009 6.88712 7.64352C8.47901 5.72694 10.6982 4.39874 13.1748 3.8802V0C11.1616 0.309059 9.23425 1.01343 7.51002 2.07022C5.7858 3.12701 4.30084 4.51408 3.14558 6.14696C1.99033 7.77984 1.18896 9.62433 0.790308 11.5681C0.391651 13.5119 0.404045 15.5142 0.826734 17.4532L4.47283 15.4064V15.4057ZM28.5033 7.13634C27.3837 5.24747 25.8437 3.6262 23.9961 2.39137C22.1485 1.15654 20.0402 0.339448 17.8257 0V3.8802C19.2908 4.18488 20.6766 4.77728 21.898 5.62112C23.344 6.61542 24.5233 7.9328 25.3369 9.4625C26.1505 10.9922 26.5746 12.6895 26.5735 14.4117C26.5735 14.7467 26.558 15.0776 26.527 15.4044L30.1737 17.4519C30.9406 13.9302 30.3459 10.2571 28.5033 7.13505V7.13634Z" fill="url(#paint0_linear)"/>
</g>
<defs>
<linearGradient id="paint0_linear" x1="3.90015" y1="5.29054" x2="27.1477" y2="23.1875" gradientUnits="userSpaceOnUse">
<stop stop-color="#89F1FF"/>
<stop offset="1" stop-color="#2983EE"/>
</linearGradient>
<clipPath id="clip0">
<rect width="30" height="29" fill="white" transform="translate(0.5)"/>
</clipPath>
</defs>
</svg>
