<svg width="30" height="29" viewBox="0 0 30 29" fill="none" xmlns="http://www.w3.org/2000/svg">
<g clip-path="url(#clip0)">
<path d="M24.5806 19.8162C23.6074 21.4489 22.21 22.8041 20.5286 23.7463C18.8472 24.6884 16.9408 25.1843 15.0002 25.1843C13.0597 25.1843 11.1532 24.6884 9.47184 23.7463C7.79043 22.8041 6.3931 21.4489 5.41983 19.8162L2.01911 21.7291C3.33742 23.9419 5.2306 25.7787 7.50891 27.0557C9.78722 28.3326 12.3706 29.0048 15.0002 29.0048C17.6298 29.0048 20.2132 28.3326 22.4916 27.0557C24.7699 25.7787 26.663 23.9419 27.9813 21.7291L24.5806 19.8162ZM3.97283 15.4057C3.94224 15.0789 3.92673 14.748 3.92628 14.413C3.9267 11.9493 4.79522 9.56009 6.38712 7.64352C7.97901 5.72694 10.1982 4.39874 12.6748 3.8802V0C10.6616 0.309059 8.73425 1.01343 7.01002 2.07022C5.2858 3.12701 3.80084 4.51408 2.64558 6.14696C1.49033 7.77984 0.688964 9.62433 0.290308 11.5681C-0.108349 13.5119 -0.0959551 15.5142 0.326734 17.4532L3.97283 15.4064V15.4057ZM28.0033 7.13634C26.8837 5.24747 25.3437 3.6262 23.4961 2.39137C21.6485 1.15654 19.5402 0.339448 17.3257 0V3.8802C18.7908 4.18488 20.1766 4.77728 21.398 5.62112C22.844 6.61542 24.0233 7.9328 24.8369 9.4625C25.6505 10.9922 26.0746 12.6895 26.0735 14.4117C26.0735 14.7467 26.058 15.0776 26.027 15.4044L29.6737 17.4519C30.4406 13.9302 29.8459 10.2571 28.0033 7.13505V7.13634Z" fill="url(#paint0_linear)"/>
</g>
<defs>
<linearGradient id="paint0_linear" x1="3.40015" y1="5.29054" x2="26.6477" y2="23.1875" gradientUnits="userSpaceOnUse">
<stop stop-color="#89F1FF"/>
<stop offset="1" stop-color="#2983EE"/>
</linearGradient>
<clipPath id="clip0">
<rect width="30" height="29" fill="white"/>
</clipPath>
</defs>
</svg>
