<svg width="110" height="109" viewBox="0 0 110 109" fill="none" xmlns="http://www.w3.org/2000/svg">
<path d="M96.25 90.2656H75.625L80.7125 27.25L81.675 15.3281L82.5 5.10938H91.0938L91.7125 15.3281L92.4344 27.25L96.25 90.2656Z" fill="#E4E9F2"/>
<path d="M92.4344 27.25H80.7125L81.675 15.3281H91.7125L92.4344 27.25Z" fill="#F7C454"/>
<path d="M5.15625 11.9219H73.9062V18.7344H5.15625V11.9219Z" fill="#3D44D1"/>
<path d="M6.875 18.7344H72.1875V54.5H6.875V18.7344Z" fill="#5771E5"/>
<path d="M15.4688 23.8438H25.7812V40.875H15.4688V23.8438Z" fill="#3D44D1"/>
<path d="M34.375 23.8438H44.6875V40.875H34.375V23.8438Z" fill="#3D44D1"/>
<path d="M53.2812 23.8438H63.5938V40.875H53.2812V23.8438Z" fill="#3D44D1"/>
<path d="M97.9688 103.891H5.15625V52.7969L36.0938 32.3594V52.7969L67.0312 32.3594V52.7969L97.9688 32.3594V103.891Z" fill="#89A8F5"/>
<path d="M5.15625 69.8281H97.9688V76.6406H5.15625V69.8281Z" fill="#5771E5"/>
<path d="M60.1562 69.8281H63.5938V76.6406H60.1562V69.8281Z" fill="#3D44D1"/>
<path d="M39.5312 69.8281H42.9688V76.6406H39.5312V69.8281Z" fill="#3D44D1"/>
<path d="M15.4688 69.8281H18.9062V76.6406H15.4688V69.8281Z" fill="#3D44D1"/>
<path d="M84.2188 69.8281H87.6562V76.6406H84.2188V69.8281Z" fill="#3D44D1"/>
<path d="M37.8125 86.8594H65.3125V103.891H37.8125V86.8594Z" fill="#5771E5"/>
<path d="M44.6875 86.8594H48.125V103.891H44.6875V86.8594Z" fill="#3D44D1"/>
<path d="M55 86.8594H58.4375V103.891H55V86.8594Z" fill="#3D44D1"/>
<path d="M5.15625 57.9062H97.9688V64.7187H5.15625V57.9062Z" fill="#5771E5"/>
<path d="M60.1562 57.9062H63.5938V64.7187H60.1562V57.9062Z" fill="#3D44D1"/>
<path d="M39.5312 57.9062H42.9688V64.7187H39.5312V57.9062Z" fill="#3D44D1"/>
<path d="M15.4688 57.9062H18.9062V64.7187H15.4688V57.9062Z" fill="#3D44D1"/>
<path d="M84.2188 57.9062H87.6562V64.7187H84.2188V57.9062Z" fill="#3D44D1"/>
<path d="M104.844 90.2656V83.4531H100.973C100.651 82.2193 100.156 81.0366 99.5002 79.9402L102.24 77.225L97.379 72.4079L94.6389 75.123C93.5324 74.4737 92.3389 73.9824 91.0938 73.6636V69.8281H84.2188V73.6636C82.9736 73.9824 81.7801 74.4737 80.6736 75.1231L77.9335 72.4079L73.0722 77.225L75.8122 79.9402C75.1569 81.0366 74.6611 82.2193 74.3395 83.4531H70.4688V90.2656H74.3395C74.6611 91.4995 75.1569 92.6821 75.8123 93.7785L73.0722 96.4937L77.9335 101.311L80.6736 98.5957C81.7801 99.2451 82.9736 99.7364 84.2188 100.055V103.891H91.0938V100.055C92.3389 99.7364 93.5324 99.2451 94.6389 98.5957L97.379 101.311L102.24 96.4937L99.5003 93.7785C100.156 92.6821 100.651 91.4995 100.973 90.2656H104.844Z" fill="#E4E9F2"/>
<path d="M86.5315 81.8738L86.119 82.6914L89.1935 84.2147L90.9122 80.8084C91.0316 80.572 91.0937 80.3112 91.0937 80.0468C91.0937 79.7824 91.0316 79.5216 90.9122 79.2852L89.1935 75.8789L86.119 77.4022L86.626 78.407C85.2152 78.5759 83.8688 79.0887 82.7071 79.8996C81.5454 80.7105 80.6048 81.7942 79.9694 83.0537C79.334 84.3132 79.0238 85.7091 79.0663 87.1165C79.1089 88.524 79.503 89.899 80.2134 91.1185L83.1887 89.4126C82.7848 88.7181 82.5515 87.9393 82.5076 87.1389C82.4636 86.3386 82.6103 85.5392 82.9357 84.8054C83.261 84.0716 83.7561 83.4239 84.3807 82.9146C85.0053 82.4054 85.7421 82.0488 86.5315 81.8738Z" fill="#ED6445"/>
<path d="M96.25 86.8594C96.2504 85.3642 95.8535 83.8952 95.0991 82.6002L92.1238 84.306C92.5276 85.0005 92.7609 85.7794 92.8049 86.5798C92.8488 87.3801 92.7022 88.1795 92.3768 88.9133C92.0514 89.6471 91.5564 90.2948 90.9318 90.8041C90.3071 91.3133 89.5704 91.6699 88.781 91.8449L89.1935 91.0273L86.119 89.504L84.4002 92.9102C84.2809 93.1467 84.2187 93.4075 84.2187 93.6719C84.2187 93.9363 84.2809 94.1971 84.4002 94.4335L86.119 97.8398L89.1935 96.3165L88.6865 95.3116C90.7709 95.0599 92.6904 94.0616 94.0835 92.5048C95.4766 90.9479 96.2472 88.9401 96.25 86.8594Z" fill="#ED6445"/>
</svg>
