<svg width="193" height="56" viewBox="0 0 193 56" fill="none" xmlns="http://www.w3.org/2000/svg">
<path d="M73.184 6.16C75.664 6.16 77.584 6.848 78.944 8.224C80.304 9.6 80.984 11.552 80.984 14.08C80.984 16.608 80.304 18.56 78.944 19.936C77.584 21.312 75.664 22 73.184 22H67.064V6.16H73.184ZM73.016 19.36C74.52 19.36 75.648 18.912 76.4 18.016C77.168 17.104 77.552 15.792 77.552 14.08C77.552 12.368 77.168 11.064 76.4 10.168C75.648 9.256 74.52 8.8 73.016 8.8H70.376V19.36H73.016ZM91.154 5.92C92.722 5.92 94.074 6.248 95.21 6.904C96.346 7.56 97.218 8.496 97.826 9.712C98.45 10.928 98.762 12.384 98.762 14.08C98.762 15.776 98.45 17.232 97.826 18.448C97.218 19.664 96.346 20.6 95.21 21.256C94.074 21.912 92.722 22.24 91.154 22.24C89.586 22.24 88.226 21.912 87.074 21.256C85.938 20.6 85.058 19.664 84.434 18.448C83.826 17.232 83.522 15.776 83.522 14.08C83.522 12.384 83.826 10.928 84.434 9.712C85.058 8.496 85.938 7.56 87.074 6.904C88.226 6.248 89.586 5.92 91.154 5.92ZM91.154 8.632C89.81 8.632 88.77 9.104 88.034 10.048C87.314 10.976 86.954 12.32 86.954 14.08C86.954 15.84 87.314 17.192 88.034 18.136C88.77 19.064 89.81 19.528 91.154 19.528C92.482 19.528 93.506 19.064 94.226 18.136C94.962 17.192 95.33 15.84 95.33 14.08C95.33 12.32 94.962 10.976 94.226 10.048C93.506 9.104 92.482 8.632 91.154 8.632ZM109.087 6.16C110.863 6.16 112.263 6.592 113.287 7.456C114.327 8.32 114.847 9.48 114.847 10.936C114.847 12.104 114.551 13.072 113.959 13.84C113.383 14.592 112.567 15.12 111.511 15.424L115.783 22H112.063L108.343 15.928H105.367V22H102.103V6.16H109.087ZM108.703 13.408C110.543 13.408 111.463 12.64 111.463 11.104C111.463 9.568 110.543 8.8 108.703 8.8H105.367V13.408H108.703ZM125.064 6.16C126.872 6.16 128.296 6.616 129.336 7.528C130.376 8.424 130.896 9.672 130.896 11.272C130.896 12.888 130.376 14.144 129.336 15.04C128.296 15.936 126.872 16.384 125.064 16.384H121.728V22H118.416V6.16H125.064ZM124.56 13.768C126.544 13.768 127.536 12.936 127.536 11.272C127.536 9.608 126.544 8.776 124.56 8.776H121.728V13.768H124.56ZM137.243 19.336H145.595V22H133.931V6.16H137.243V19.336ZM146.569 22L152.353 6.16H156.313L162.097 22H158.665L157.345 18.136H151.249L149.953 22H146.569ZM153.601 11.176L152.065 15.688H156.529L155.041 11.224L154.321 8.824H154.273L153.601 11.176ZM170.114 5.92C171.554 5.92 172.818 6.168 173.906 6.664C174.994 7.16 175.922 7.896 176.69 8.872L174.842 11.008C174.186 10.176 173.466 9.568 172.682 9.184C171.914 8.784 171.018 8.584 169.994 8.584C168.97 8.584 168.226 8.776 167.762 9.16C167.298 9.528 167.066 9.976 167.066 10.504C167.066 10.936 167.226 11.304 167.546 11.608C167.882 11.896 168.466 12.136 169.298 12.328L172.25 13C173.802 13.352 174.922 13.88 175.61 14.584C176.298 15.272 176.642 16.168 176.642 17.272C176.642 18.312 176.37 19.208 175.826 19.96C175.282 20.696 174.522 21.264 173.546 21.664C172.57 22.048 171.45 22.24 170.186 22.24C168.538 22.24 167.09 21.952 165.842 21.376C164.594 20.8 163.61 20.056 162.89 19.144L164.762 16.912C165.306 17.68 166.05 18.32 166.994 18.832C167.954 19.328 169.018 19.576 170.186 19.576C171.162 19.576 171.914 19.416 172.442 19.096C172.97 18.76 173.234 18.288 173.234 17.68C173.234 17.28 173.09 16.928 172.802 16.624C172.53 16.32 172.018 16.088 171.266 15.928L168.05 15.208C166.642 14.904 165.554 14.408 164.786 13.72C164.018 13.032 163.634 12.096 163.634 10.912C163.634 9.968 163.89 9.12 164.402 8.368C164.914 7.616 165.65 7.024 166.61 6.592C167.586 6.144 168.754 5.92 170.114 5.92ZM191.858 6.16V8.824H186.554V22H183.242V8.824H177.914V6.16H191.858ZM70.376 34.16V50H67.064V34.16H70.376ZM88.1017 34.16V50H84.3097L78.7657 40.688L77.3977 38.096H77.3737L77.4697 40.832V50H74.4937V34.16H78.2617L83.8057 43.448L85.1737 46.064H85.2217L85.1257 43.328V34.16H88.1017ZM105.916 34.16L100.156 50H96.2919L90.5079 34.16H94.0119L97.3479 44.24L98.2599 47.36L99.1479 44.264L102.508 34.16H105.916ZM108.314 50V34.16H120.194V36.824H111.626V40.76H118.37V43.304H111.626V47.336H120.53V50H108.314ZM129.286 33.92C130.726 33.92 131.99 34.168 133.078 34.664C134.166 35.16 135.094 35.896 135.862 36.872L134.014 39.008C133.358 38.176 132.638 37.568 131.854 37.184C131.086 36.784 130.19 36.584 129.166 36.584C128.142 36.584 127.398 36.776 126.934 37.16C126.47 37.528 126.238 37.976 126.238 38.504C126.238 38.936 126.398 39.304 126.718 39.608C127.054 39.896 127.638 40.136 128.47 40.328L131.422 41C132.974 41.352 134.094 41.88 134.782 42.584C135.47 43.272 135.814 44.168 135.814 45.272C135.814 46.312 135.542 47.208 134.997 47.96C134.454 48.696 133.694 49.264 132.718 49.664C131.742 50.048 130.622 50.24 129.358 50.24C127.71 50.24 126.262 49.952 125.014 49.376C123.766 48.8 122.782 48.056 122.062 47.144L123.934 44.912C124.478 45.68 125.222 46.32 126.166 46.832C127.126 47.328 128.19 47.576 129.358 47.576C130.334 47.576 131.086 47.416 131.614 47.096C132.142 46.76 132.406 46.288 132.406 45.68C132.406 45.28 132.262 44.928 131.974 44.624C131.702 44.32 131.19 44.088 130.438 43.928L127.222 43.208C125.814 42.904 124.726 42.408 123.958 41.72C123.19 41.032 122.806 40.096 122.806 38.912C122.806 37.968 123.062 37.12 123.574 36.368C124.086 35.616 124.822 35.024 125.782 34.592C126.758 34.144 127.926 33.92 129.286 33.92ZM151.03 34.16V36.824H145.726V50H142.414V36.824H137.086V34.16H151.03Z" fill="#1D1D1B"/>
<g clip-path="url(#clip0)">
<path d="M36.8708 36.066C35.4109 38.5431 33.3149 40.5994 30.7928 42.0288C28.2707 43.4582 25.411 44.2106 22.5002 44.2106C19.5894 44.2106 16.7297 43.4582 14.2076 42.0288C11.6855 40.5994 9.58953 38.5431 8.12963 36.066L3.02855 38.9684C5.00601 42.3256 7.84577 45.1126 11.2632 47.05C14.6807 48.9875 18.5558 50.0073 22.5002 50.0073C26.4446 50.0073 30.3197 48.9875 33.7372 47.05C37.1547 45.1126 39.9944 42.3256 41.9719 38.9684L36.8708 36.066ZM5.95913 29.3742C5.91324 28.8783 5.88997 28.3763 5.8893 27.868C5.88993 24.13 7.19271 20.505 9.58055 17.5971C11.9684 14.6892 15.2971 12.6739 19.0121 11.8872V6C15.9923 6.46892 13.1012 7.53762 10.5149 9.14102C7.92858 10.7444 5.70113 12.849 3.96825 15.3264C2.23537 17.8039 1.03332 20.6024 0.435339 23.5516C-0.162646 26.5008 -0.144055 29.5388 0.489979 32.4807L5.95913 29.3752V29.3742ZM42.0048 16.8276C40.3254 13.9617 38.0154 11.5018 35.244 9.62828C32.4726 7.75475 29.3101 6.51503 25.9884 6V11.8872C28.1861 12.3495 30.2647 13.2483 32.0969 14.5286C34.2658 16.0372 36.0349 18.036 37.2553 20.3569C38.4757 22.6778 39.1118 25.253 39.1101 27.8661C39.1101 28.3743 39.0869 28.8764 39.0403 29.3722L44.5105 32.4787C45.6608 27.1354 44.7687 21.5626 42.0048 16.8256V16.8276Z" fill="url(#paint0_linear)"/>
</g>
<defs>
<linearGradient id="paint0_linear" x1="5.1001" y1="14.027" x2="40.2672" y2="40.7925" gradientUnits="userSpaceOnUse">
<stop stop-color="#89F1FF"/>
<stop offset="1" stop-color="#2983EE"/>
</linearGradient>
<clipPath id="clip0">
<rect width="45" height="44" fill="white" transform="translate(0 6)"/>
</clipPath>
</defs>
</svg>
