<svg width="192" height="53" viewBox="0 0 192 53" fill="none" xmlns="http://www.w3.org/2000/svg">
<path d="M73.184 4.24C75.664 4.24 77.584 4.928 78.944 6.304C80.304 7.68 80.984 9.632 80.984 12.16C80.984 14.688 80.304 16.64 78.944 18.016C77.584 19.392 75.664 20.08 73.184 20.08H67.064V4.24H73.184ZM73.016 17.44C74.52 17.44 75.648 16.992 76.4 16.096C77.168 15.184 77.552 13.872 77.552 12.16C77.552 10.448 77.168 9.144 76.4 8.248C75.648 7.336 74.52 6.88 73.016 6.88H70.376V17.44H73.016Z" fill="#1D1D1B"/>
<path d="M91.154 4C92.722 4 94.074 4.328 95.21 4.984C96.346 5.64 97.218 6.576 97.826 7.792C98.45 9.008 98.762 10.464 98.762 12.16C98.762 13.856 98.45 15.312 97.826 16.528C97.218 17.744 96.346 18.68 95.21 19.336C94.074 19.992 92.722 20.32 91.154 20.32C89.586 20.32 88.226 19.992 87.074 19.336C85.938 18.68 85.058 17.744 84.434 16.528C83.826 15.312 83.522 13.856 83.522 12.16C83.522 10.464 83.826 9.008 84.434 7.792C85.058 6.576 85.938 5.64 87.074 4.984C88.226 4.328 89.586 4 91.154 4ZM91.154 6.712C89.81 6.712 88.77 7.184 88.034 8.128C87.314 9.056 86.954 10.4 86.954 12.16C86.954 13.92 87.314 15.272 88.034 16.216C88.77 17.144 89.81 17.608 91.154 17.608C92.482 17.608 93.506 17.144 94.226 16.216C94.962 15.272 95.33 13.92 95.33 12.16C95.33 10.4 94.962 9.056 94.226 8.128C93.506 7.184 92.482 6.712 91.154 6.712Z" fill="#1D1D1B"/>
<path d="M109.087 4.24C110.863 4.24 112.263 4.672 113.287 5.536C114.327 6.4 114.847 7.56 114.847 9.016C114.847 10.184 114.551 11.152 113.959 11.92C113.383 12.672 112.567 13.2 111.511 13.504L115.783 20.08H112.063L108.343 14.008H105.367V20.08H102.103V4.24H109.087ZM108.703 11.488C110.543 11.488 111.463 10.72 111.463 9.184C111.463 7.648 110.543 6.88 108.703 6.88H105.367V11.488H108.703Z" fill="#1D1D1B"/>
<path d="M125.064 4.24C126.872 4.24 128.296 4.696 129.336 5.608C130.376 6.504 130.896 7.752 130.896 9.352C130.896 10.968 130.376 12.224 129.336 13.12C128.296 14.016 126.872 14.464 125.064 14.464H121.728V20.08H118.416V4.24H125.064ZM124.56 11.848C126.544 11.848 127.536 11.016 127.536 9.352C127.536 7.688 126.544 6.856 124.56 6.856H121.728V11.848H124.56Z" fill="#1D1D1B"/>
<path d="M137.243 17.416H145.595V20.08H133.931V4.24H137.243V17.416Z" fill="#1D1D1B"/>
<path d="M146.569 20.08L152.353 4.24H156.313L162.097 20.08H158.665L157.345 16.216H151.249L149.953 20.08H146.569ZM153.601 9.256L152.065 13.768H156.529L155.041 9.304L154.321 6.904H154.273L153.601 9.256Z" fill="#1D1D1B"/>
<path d="M170.114 4C171.554 4 172.818 4.248 173.906 4.744C174.994 5.24 175.922 5.976 176.69 6.952L174.842 9.088C174.186 8.256 173.466 7.648 172.682 7.264C171.914 6.864 171.018 6.664 169.994 6.664C168.97 6.664 168.226 6.856 167.762 7.24C167.298 7.608 167.066 8.056 167.066 8.584C167.066 9.016 167.226 9.384 167.546 9.688C167.882 9.976 168.466 10.216 169.298 10.408L172.25 11.08C173.802 11.432 174.922 11.96 175.61 12.664C176.298 13.352 176.642 14.248 176.642 15.352C176.642 16.392 176.37 17.288 175.826 18.04C175.282 18.776 174.522 19.344 173.546 19.744C172.57 20.128 171.45 20.32 170.186 20.32C168.538 20.32 167.09 20.032 165.842 19.456C164.594 18.88 163.61 18.136 162.89 17.224L164.762 14.992C165.306 15.76 166.05 16.4 166.994 16.912C167.954 17.408 169.018 17.656 170.186 17.656C171.162 17.656 171.914 17.496 172.442 17.176C172.97 16.84 173.234 16.368 173.234 15.76C173.234 15.36 173.09 15.008 172.802 14.704C172.53 14.4 172.018 14.168 171.266 14.008L168.05 13.288C166.642 12.984 165.554 12.488 164.786 11.8C164.018 11.112 163.634 10.176 163.634 8.992C163.634 8.048 163.89 7.2 164.402 6.448C164.914 5.696 165.65 5.104 166.61 4.672C167.586 4.224 168.754 4 170.114 4Z" fill="#1D1D1B"/>
<path d="M191.858 4.24V6.904H186.554V20.08H183.242V6.904H177.914V4.24H191.858Z" fill="#1D1D1B"/>
<path d="M70.376 32.24V48.08H67.064V32.24H70.376Z" fill="#1D1D1B"/>
<path d="M88.1017 32.24V48.08H84.3097L78.7657 38.768L77.3977 36.176H77.3737L77.4697 38.912V48.08H74.4937V32.24H78.2617L83.8057 41.528L85.1737 44.144H85.2217L85.1257 41.408V32.24H88.1017Z" fill="#1D1D1B"/>
<path d="M105.916 32.24L100.156 48.08H96.2918L90.5078 32.24H94.0118L97.3478 42.32L98.2598 45.44L99.1478 42.344L102.508 32.24H105.916Z" fill="#1D1D1B"/>
<path d="M108.314 48.08V32.24H120.194V34.904H111.626V38.84H118.37V41.384H111.626V45.416H120.53V48.08H108.314Z" fill="#1D1D1B"/>
<path d="M129.285 32C130.725 32 131.989 32.248 133.077 32.744C134.165 33.24 135.093 33.976 135.861 34.952L134.013 37.088C133.357 36.256 132.637 35.648 131.853 35.264C131.085 34.864 130.189 34.664 129.165 34.664C128.141 34.664 127.397 34.856 126.933 35.24C126.469 35.608 126.237 36.056 126.237 36.584C126.237 37.016 126.397 37.384 126.717 37.688C127.053 37.976 127.637 38.216 128.469 38.408L131.421 39.08C132.973 39.432 134.093 39.96 134.781 40.664C135.469 41.352 135.813 42.248 135.813 43.352C135.813 44.392 135.541 45.288 134.997 46.04C134.453 46.776 133.693 47.344 132.717 47.744C131.741 48.128 130.621 48.32 129.357 48.32C127.709 48.32 126.261 48.032 125.013 47.456C123.765 46.88 122.781 46.136 122.061 45.224L123.933 42.992C124.477 43.76 125.221 44.4 126.165 44.912C127.125 45.408 128.189 45.656 129.357 45.656C130.333 45.656 131.085 45.496 131.613 45.176C132.141 44.84 132.405 44.368 132.405 43.76C132.405 43.36 132.261 43.008 131.973 42.704C131.701 42.4 131.189 42.168 130.437 42.008L127.221 41.288C125.813 40.984 124.725 40.488 123.957 39.8C123.189 39.112 122.805 38.176 122.805 36.992C122.805 36.048 123.061 35.2 123.573 34.448C124.085 33.696 124.821 33.104 125.781 32.672C126.757 32.224 127.925 32 129.285 32Z" fill="#1D1D1B"/>
<path d="M151.029 32.24V34.904H145.725V48.08H142.413V34.904H137.085V32.24H151.029Z" fill="#1D1D1B"/>
<path d="M14.6555 33V16.7131H19.4655C20.9048 16.7131 22.18 17.0337 23.2912 17.6751C24.4098 18.3164 25.2748 19.2262 25.8863 20.4045C26.4978 21.5827 26.8036 22.9325 26.8036 24.4538V25.2704C26.8036 26.8141 26.4941 28.1713 25.8752 29.3422C25.2636 30.513 24.3874 31.4153 23.2464 32.0492C22.1129 32.6831 20.8116 33 19.3425 33H14.6555ZM17.4856 18.995V30.7404H19.3313C20.8153 30.7404 21.9526 30.2781 22.7431 29.3533C23.541 28.4212 23.9474 27.0863 23.9623 25.3487V24.4427C23.9623 22.6753 23.5783 21.3255 22.8102 20.3933C22.0421 19.4611 20.9272 18.995 19.4655 18.995H17.4856Z" fill="#3487AE"/>
<path d="M39.9584 27.0714C39.9584 28.9432 39.5333 30.4384 38.6832 31.557C37.8331 32.6681 36.6921 33.2237 35.2603 33.2237C33.9328 33.2237 32.8702 32.7875 32.0722 31.915V37.6534H29.354V20.8967H31.8597L31.9715 22.1271C32.7695 21.1577 33.8545 20.6729 35.2267 20.6729C36.7033 20.6729 37.8592 21.2248 38.6944 22.3285C39.5371 23.4247 39.9584 24.9498 39.9584 26.9036V27.0714ZM37.2514 26.8365C37.2514 25.6284 37.009 24.6701 36.5243 23.9617C36.047 23.2532 35.3609 22.899 34.466 22.899C33.3549 22.899 32.557 23.3576 32.0722 24.2749V29.6442C32.5644 30.5838 33.3698 31.0536 34.4884 31.0536C35.3535 31.0536 36.0284 30.7069 36.5131 30.0133C37.0053 29.3123 37.2514 28.2534 37.2514 26.8365Z" fill="#5FBBE9"/>
<mask id="mask0" mask-type="alpha" maskUnits="userSpaceOnUse" x="0" y="0" width="53" height="53">
<path fill-rule="evenodd" clip-rule="evenodd" d="M24 0C10.5369 1.25977 0 12.5912 0 26.3836C0 30.3701 0.880252 34.151 2.45699 37.5425L8.75345 33.9072C7.77225 31.5957 7.22948 29.053 7.22948 26.3836C7.22948 16.588 14.5383 8.49948 24 7.27378V0ZM11.2893 38.2167L4.98416 41.8569C9.79564 48.5356 17.6401 52.8836 26.5 52.8836C35.3647 52.8836 43.2128 48.5309 48.0236 41.8462L41.7189 38.2062C38.193 42.7385 32.687 45.6541 26.5 45.6541C20.3178 45.6541 14.8155 42.743 11.2893 38.2167ZM53 26.3836C53 30.3654 52.1218 34.1421 50.5486 37.5305L44.2517 33.895C45.2297 31.5867 45.7705 29.0483 45.7705 26.3836C45.7705 16.588 38.4618 8.49948 29 7.27378V0C42.4631 1.25977 53 12.5912 53 26.3836Z" fill="#C4C4C4"/>
</mask>
<g mask="url(#mask0)">
<path d="M24.9999 11.5V-0.499993C14.9998 -4.99999 -8.10623e-05 9.50001 -4.50008 14C-8.10008 17.6 -3.00008 32.8333 -8.05855e-05 40L9.99988 34C6.79988 15.2 18.6666 11.1667 24.9999 11.5Z" fill="#B0DEF5"/>
<path d="M26.0001 11.5V-0.499993C36.0002 -4.99999 51.0001 9.50001 55.5001 14C59.1001 17.6 54.0001 32.8333 51.0001 40L41.0001 34C44.2001 15.2 32.3334 11.1667 26.0001 11.5Z" fill="#3487AE"/>
<path d="M39.0508 35.25L49.4431 41.25C48.3402 52.1603 28.2829 57.9006 22.1358 59.5477C17.2181 60.8654 6.57561 48.832 1.8691 42.6506L12.0652 36.9904C26.7465 49.1617 36.1728 40.9015 39.0508 35.25Z" fill="#5FBBE9"/>
</g>
</svg>
