<svg width="110" height="110" viewBox="0 0 110 110" fill="none" xmlns="http://www.w3.org/2000/svg">
<path d="M68.75 34.375L80.7812 22.3438V18.9062H75.625L65.3125 29.2188V34.375H68.75Z" fill="#5771E5"/>
<path d="M80.7812 18.9062H85.9375L94.5312 29.2188V34.375H91.0938L80.7812 22V18.9062Z" fill="#5771E5"/>
<path d="M93.6719 35.2344L99.6875 41.25L104.844 60.1562H87.6562V41.25L93.6719 35.2344Z" fill="#5771E5"/>
<path d="M32.6562 87.6562H77.3438V92.8125H32.6562V87.6562Z" fill="#51A37E"/>
<path d="M29.2188 63.5938H71.3281C72.4677 63.5938 73.5607 64.0465 74.3665 64.8523C75.1723 65.6581 75.625 66.751 75.625 67.8906C75.625 69.0302 75.1723 70.1232 74.3665 70.929C73.5607 71.7348 72.4677 72.1875 71.3281 72.1875H29.2188V63.5938Z" fill="#51A37E"/>
<path d="M27.5 87.6562L34.375 85.9375V71.9277C34.375 70.9658 34.1731 70.0146 33.7824 69.1355L27.5 55H10.3125V72.1875L6.30206 84.2188H13.75L18.9062 72.1875L20.625 63.5938L27.5 72.1875V87.6562Z" fill="#445496"/>
<path d="M16.7195 32.6562C15.6524 32.6562 14.5958 32.8664 13.6099 33.2748C12.6241 33.6831 11.7283 34.2817 10.9737 35.0362C10.2192 35.7908 9.62064 36.6866 9.21228 37.6724C8.80393 38.6583 8.59375 39.7149 8.59375 40.782V40.782C8.59374 42.593 9.19867 44.3521 10.3125 45.78V55H27.5L36.0938 32.6562H16.7195Z" fill="#ED6445"/>
<path d="M13.75 84.2188L15.4688 91.0938L13.75 92.8125L5.15625 87.6562L6.30201 84.2188H13.75Z" fill="#6D7EB3"/>
<path d="M34.375 85.9375L39.5312 89.375V92.8125H27.5V87.6562L34.375 85.9375Z" fill="#6D7EB3"/>
<path d="M24.0625 27.5V35.2344C24.0625 35.9181 23.7909 36.5739 23.3074 37.0574C22.8239 37.5409 22.1681 37.8125 21.4844 37.8125C20.8006 37.8125 20.1449 37.5409 19.6614 37.0574C19.1779 36.5739 18.9063 35.9181 18.9062 35.2344V27.5H24.0625Z" fill="#FFCEB6"/>
<path d="M24.0625 27.5V34.375C23.611 34.3751 23.164 34.2863 22.7469 34.1136C22.3298 33.9409 21.9508 33.6877 21.6315 33.3685C21.3123 33.0492 21.0591 32.6702 20.8864 32.2531C20.7137 31.836 20.6249 31.389 20.625 30.9375V27.5H24.0625Z" fill="#FFBFA1"/>
<path d="M18.9062 25.7812H25.7812V29.2188C25.7812 30.1304 25.4191 31.0048 24.7744 31.6494C24.1298 32.2941 23.2554 32.6562 22.3438 32.6562C21.4321 32.6562 20.5577 32.2941 19.9131 31.6494C19.2684 31.0048 18.9062 30.1304 18.9062 29.2188V25.7812Z" fill="#FFCEB6"/>
<path d="M22.3438 20.625C23.2554 20.625 24.1298 20.9872 24.7744 21.6318C25.4191 22.2765 25.7812 23.1508 25.7812 24.0625V25.7812H18.9062V24.0625C18.9062 23.1508 19.2684 22.2765 19.9131 21.6318C20.5577 20.9872 21.4321 20.625 22.3438 20.625Z" fill="#EB8117"/>
<path d="M18.9062 24.0625H30.9375V27.5H18.9062V24.0625Z" fill="#F5A431"/>
<path d="M17.893 39.5289C17.2219 38.8577 16.1338 38.8577 15.4627 39.5289C14.7916 40.2 14.7916 41.2881 15.4627 41.9592L16.4693 42.9658C17.1404 43.6369 18.2285 43.6369 18.8996 42.9658C19.5707 42.2947 19.5707 41.2066 18.8996 40.5355L17.893 39.5289Z" fill="#DE402F"/>
<path d="M51.5625 30.9375H34.375L22.3438 58.4375H39.5312L51.5625 30.9375Z" fill="#E4E9F2"/>
<path d="M13.368 48.5069L15.3043 50.056C16.5234 51.0312 18.038 51.5625 19.5991 51.5625H32.6562C33.5679 51.5625 34.4423 51.2003 35.0869 50.5557C35.7316 49.911 36.0937 49.0367 36.0937 48.125V44.6875H32.6562V42.4653C32.6562 42.143 32.5282 41.8339 32.3003 41.606C32.0724 41.378 31.7632 41.25 31.4409 41.25C31.2813 41.25 31.1233 41.2814 30.9758 41.3425C30.8284 41.4036 30.6944 41.4931 30.5815 41.606L27.5 44.6875H20.625L18.9062 42.9688L13.368 48.5069Z" fill="#FFCEB6"/>
<path d="M14.0522 49.0544C13.9112 49.2306 13.7369 49.3774 13.5392 49.4863C13.3415 49.5951 13.1243 49.664 12.8999 49.6889C12.6756 49.7138 12.4486 49.6943 12.2318 49.6315C12.015 49.5687 11.8127 49.4638 11.6365 49.3228L10.5698 48.4694C10.5178 48.4278 10.4662 48.3857 10.4151 48.343C10.218 48.1785 10.0602 47.9719 9.95324 47.7385C9.84633 47.505 9.79302 47.2506 9.79723 46.9939C9.80143 46.7372 9.86305 46.4846 9.97755 46.2548C10.0921 46.025 10.2565 45.8237 10.459 45.6657C10.7695 45.4244 11.1532 45.2967 11.5464 45.304C11.9396 45.3113 12.3184 45.453 12.6198 45.7056C12.652 45.7325 12.6845 45.759 12.7172 45.7852L13.7839 46.6386C14.1398 46.9233 14.3681 47.3378 14.4184 47.7908C14.4688 48.2438 14.3371 48.6983 14.0523 49.0542L14.0522 49.0544Z" fill="#DE402F"/>
<path d="M44.6875 72.1875L48.125 77.3438H53.2812L56.7188 72.1875H44.6875Z" fill="#308C72"/>
<path d="M48.125 77.3438H53.2812V87.6562H48.125V77.3438Z" fill="#207868"/>
<path d="M70.4688 92.8125L75.625 82.5H104.844V92.8125H70.4688Z" fill="#5771E5"/>
<path d="M82.5 60.1562H104.844V82.5H82.5V60.1562Z" fill="#6E8BEB"/>
<path d="M80.7812 24.0625C82.6797 24.0625 84.2188 22.5235 84.2188 20.625C84.2188 18.7265 82.6797 17.1875 80.7812 17.1875C78.8828 17.1875 77.3438 18.7265 77.3438 20.625C77.3438 22.5235 78.8828 24.0625 80.7812 24.0625Z" fill="#89A8F5"/>
<path d="M80.7812 21.9656C81.5216 21.9656 82.1219 21.3653 82.1219 20.6249C82.1219 19.8845 81.5216 19.2843 80.7812 19.2843C80.0408 19.2843 79.4406 19.8845 79.4406 20.6249C79.4406 21.3653 80.0408 21.9656 80.7812 21.9656Z" fill="#6E8BEB"/>
<path d="M67.8906 36.0938L75.625 41.25V51.5625H72.1875L70.4688 44.6875H63.5938L61.875 51.5625H58.4375V41.25L66.1719 36.0938H67.8906Z" fill="#5771E5"/>
<path d="M65.3125 36.0938H68.75V44.6875H65.3125V36.0938Z" fill="#4356E6"/>
<path d="M60.1562 51.5625H73.9062V63.5938H60.1562V51.5625Z" fill="#F7C04A"/>
<path d="M65.3125 51.5625H68.75V56.7188H65.3125V51.5625Z" fill="#F7DFA1"/>
<path d="M91.0938 73.9062H94.5312V77.3438H91.0938V73.9062Z" fill="#90D4B1"/>
<path d="M96.25 73.9062H99.6875V77.3438H96.25V73.9062Z" fill="#90D4B1"/>
<path d="M48.125 48.125H46.4062C45.4946 48.125 44.6202 47.7628 43.9756 47.1182C43.3309 46.4735 42.9688 45.5992 42.9688 44.6875V41.25H46.4062V39.0278C46.4062 38.7055 46.5343 38.3964 46.7622 38.1685C46.9901 37.9405 47.2993 37.8125 47.6216 37.8125C47.7812 37.8125 47.9392 37.8439 48.0867 37.905C48.2341 37.9661 48.3681 38.0556 48.481 38.1685L50.5557 40.2432C50.8749 40.5624 51.1281 40.9413 51.3008 41.3584C51.4736 41.7754 51.5625 42.2224 51.5625 42.6739V44.6875C51.5625 45.5992 51.2003 46.4735 50.5557 47.1182C49.911 47.7628 49.0367 48.125 48.125 48.125Z" fill="#FFCEB6"/>
<path d="M58.4375 72.1875L61.875 77.3438H67.0312L70.4688 72.1875H58.4375Z" fill="#308C72"/>
<path d="M61.875 77.3438H67.0312V87.6562H61.875V77.3438Z" fill="#207868"/>
<path d="M92.8125 39.5312C94.711 39.5312 96.25 37.9922 96.25 36.0938C96.25 34.1953 94.711 32.6562 92.8125 32.6562C90.914 32.6562 89.375 34.1953 89.375 36.0938C89.375 37.9922 90.914 39.5312 92.8125 39.5312Z" fill="#89A8F5"/>
<path d="M92.8125 37.4343C93.5529 37.4343 94.1531 36.8341 94.1531 36.0937C94.1531 35.3533 93.5529 34.7531 92.8125 34.7531C92.0721 34.7531 91.4719 35.3533 91.4719 36.0937C91.4719 36.8341 92.0721 37.4343 92.8125 37.4343Z" fill="#6E8BEB"/>
<path d="M67.0312 39.5312C68.9297 39.5312 70.4688 37.9922 70.4688 36.0938C70.4688 34.1953 68.9297 32.6562 67.0312 32.6562C65.1328 32.6562 63.5938 34.1953 63.5938 36.0938C63.5938 37.9922 65.1328 39.5312 67.0312 39.5312Z" fill="#89A8F5"/>
<path d="M67.0312 37.4343C67.7716 37.4343 68.3719 36.8341 68.3719 36.0937C68.3719 35.3533 67.7716 34.7531 67.0312 34.7531C66.2908 34.7531 65.6906 35.3533 65.6906 36.0937C65.6906 36.8341 66.2908 37.4343 67.0312 37.4343Z" fill="#6E8BEB"/>
</svg>
