<svg width="25" height="24" viewBox="0 0 25 24" fill="none" xmlns="http://www.w3.org/2000/svg">
<path fill-rule="evenodd" clip-rule="evenodd" d="M16.9632 3.00005L7.88743 3C4.71557 3 2.42725 5.56151 2.42725 8.85897V15.141C2.42725 18.4385 4.71557 21 7.88743 21H16.9547C18.4782 20.9829 19.9202 20.3421 20.9534 19.2266C21.9865 18.111 22.5206 16.6183 22.4312 15.0959L22.4325 8.85897C22.5206 7.38171 21.9865 5.88895 20.9534 4.77344C19.9202 3.65794 18.4782 3.01705 16.9632 3.00005ZM7.88743 4.52843L16.9462 4.52838C18.046 4.54072 19.0927 5.00592 19.8426 5.81562C20.5925 6.62533 20.9802 7.70887 20.9153 8.81389L20.9139 15.141C20.9802 16.2911 20.5925 17.3747 19.8426 18.1844C19.0927 18.9941 18.046 19.4593 16.9462 19.4716L7.88743 19.4716C5.59235 19.4716 3.9458 17.6284 3.9458 15.141V8.85897C3.9458 6.37155 5.59235 4.52843 7.88743 4.52843ZM18.463 8.63837C18.201 8.30886 17.7232 8.25555 17.3958 8.5193L13.2935 11.8242L13.1759 11.9068C12.6922 12.2095 12.0571 12.1816 11.5938 11.8181L7.4615 8.51731L7.36849 8.4536C7.04799 8.26727 6.63174 8.34031 6.39476 8.64086C6.13408 8.97146 6.18904 9.45216 6.5175 9.71453L10.655 13.0195L10.8164 13.1375C11.8572 13.8459 13.2365 13.8067 14.2347 13.0236L18.3447 9.71255L18.4272 9.63551C18.6791 9.36261 18.7012 8.93792 18.463 8.63837Z" fill="white"/>
</svg>
