<svg width="65" height="64" viewBox="0 0 65 64" fill="none" xmlns="http://www.w3.org/2000/svg">
<path d="M53.0837 33.2493C54.274 31.9213 54.9996 30.1688 54.9996 28.2494C54.9996 26.0088 54.0177 23.9192 52.2993 22.488L48.0713 18.1332C47.1094 17.1425 45.5268 17.119 44.5363 18.0809C43.5457 19.0427 43.5223 20.6254 44.4841 21.6159L48.8133 26.0751C48.8881 26.1521 48.9677 26.2241 49.0517 26.2909C49.6542 26.7697 49.9997 27.4836 49.9997 28.2494C49.9997 29.6279 48.8782 30.7494 47.4997 30.7494C46.1189 30.7494 44.9997 31.8687 44.9997 33.2494C44.9997 34.6302 46.1189 35.7494 47.4997 35.7494C48.8782 35.7494 49.9997 36.8709 49.9997 38.2495C49.9997 39.628 48.8782 40.7495 47.4997 40.7495C46.1189 40.7495 44.9997 41.8687 44.9997 43.2495C44.9997 44.6302 46.1189 45.7495 47.4997 45.7495C48.8782 45.7495 49.9997 46.871 49.9997 48.2485L49.9973 54.1097C49.9962 56.8496 47.8019 58.9974 45.0032 58.9992C45.0032 58.9992 27.6042 59.0021 20.0004 58.9992C17.199 58.9981 15.0039 56.8495 15.0028 54.1076L15.0004 48.2495C15.0004 46.871 16.1219 45.7495 17.5004 45.7495H35C36.3808 45.7495 37.5 44.6302 37.5 43.2495C37.5 41.8687 36.3808 40.7495 35 40.7495H17.5003C16.1218 40.7495 15.0003 39.628 15.0003 38.2495C15.0003 36.8709 16.1218 35.7494 17.5003 35.7494H34.9999C36.3807 35.7494 37.4999 34.6302 37.4999 33.2494C37.4999 31.8687 36.3807 30.7494 34.9999 30.7494H17.5003C16.1218 30.7494 15.0003 29.6279 15.0003 28.2494C15.0003 27.7476 15.146 27.2692 15.423 26.8578L26.9393 14.9997H38.7498C40.1305 14.9997 41.2498 13.8804 41.2498 12.4997V4.99989C41.2498 2.243 39.0068 0 36.2499 0H28.75C25.993 0 23.7501 2.243 23.7501 4.99989V11.1069L11.7072 23.5074C11.6339 23.5829 11.5652 23.6632 11.5019 23.7475C10.5196 25.0548 10.0004 26.6117 10.0004 28.2494C10.0004 30.1688 10.726 31.9213 11.9162 33.2493C10.726 34.5773 10.0004 36.3298 10.0004 38.2492C10.0004 40.1687 10.726 41.9212 11.9162 43.2491C10.726 44.5772 10.0004 46.3301 10.0004 48.2498L10.0027 54.109C10.0039 56.7815 11.0502 59.2784 12.949 61.1402C14.8279 62.9825 17.3314 63.9976 19.9984 63.9986C22.5336 63.9996 26.1561 64 29.8612 64C37.2699 64 45.0043 63.9986 45.0052 63.9986C47.6716 63.9968 50.1741 62.9816 52.0519 61.1405C53.9501 59.2794 54.996 56.7831 54.9972 54.1112L54.9995 48.2491C54.9995 46.3297 54.2738 44.5772 53.0836 43.2492C54.2738 41.9212 54.9995 40.1687 54.9995 38.2493C54.9996 36.3299 54.2741 34.5773 53.0837 33.2493ZM28.75 4.99989H36.2499V9.99977H28.75V4.99989Z" fill="white"/>
</svg>
