<svg width="285" height="113" viewBox="0 0 285 113" fill="none" xmlns="http://www.w3.org/2000/svg">
<path fill-rule="evenodd" clip-rule="evenodd" d="M272 -1.56225e-07C279.18 -6.99443e-08 285 5.8203 285 13L285 90C285 97.1797 279.18 103 272 103L88.416 103C89.2885 106.709 91.164 110.16 94.7121 112.209C89.8726 112.256 81.0884 110.215 74.9719 103L13 103C5.82031 103 -1.16784e-06 97.1797 -1.08156e-06 90L-1.56225e-07 13C-6.99443e-08 5.8203 5.82031 -3.35499e-06 13 -3.26871e-06L272 -1.56225e-07Z" fill="url(#paint0_linear)"/>
<path d="M26.9893 28L25.0684 28L20.9531 22.9346L20.9531 28L19.3193 28L19.3193 18.0059L20.9531 18.0059L20.9531 22.8457L25 18.0059L26.791 18.0059L22.7578 22.832L26.9893 28ZM34.8506 24.2061C34.8506 25.4411 34.5339 26.4049 33.9004 27.0977C33.2669 27.7904 32.3851 28.1367 31.2549 28.1367C30.5485 28.1367 29.9242 27.9772 29.3818 27.6582C28.8395 27.3392 28.4225 26.8812 28.1309 26.2842C27.8392 25.6872 27.6934 24.9945 27.6934 24.2061C27.6934 22.9801 28.0078 22.0231 28.6367 21.335C29.2656 20.6468 30.152 20.3027 31.2959 20.3027C32.3896 20.3027 33.2555 20.6559 33.8936 21.3623C34.5316 22.0641 34.8506 23.012 34.8506 24.2061ZM29.3477 24.2061C29.3477 25.9515 29.9925 26.8242 31.2822 26.8242C32.5583 26.8242 33.1963 25.9515 33.1963 24.2061C33.1963 22.4788 32.5537 21.6152 31.2686 21.6152C30.5941 21.6152 30.1042 21.8385 29.7988 22.2852C29.498 22.7318 29.3477 23.3721 29.3477 24.2061ZM41.0439 26.4619L41.1328 26.1338C41.3197 25.4548 41.4814 24.9329 41.6182 24.5684L43.3135 20.4395L45.4531 20.4395L45.4531 28L43.9697 28L43.9697 21.8955L43.8467 22.3057C43.6416 23.0394 43.4684 23.5794 43.3271 23.9258L41.6729 28L40.4561 28L38.8018 23.8984C38.5739 23.306 38.3643 22.6383 38.1729 21.8955L38.1729 28L36.7031 28L36.7031 20.4395L38.8291 20.4395L40.4697 24.4453C40.6156 24.8145 40.807 25.4867 41.0439 26.4619ZM54.3604 20.4395L54.3604 28L52.7471 28L52.7471 21.7109L49.3564 21.7109L49.3564 28L47.75 28L47.75 20.4395L54.3604 20.4395ZM61.3945 28L61.0732 26.9473L61.0186 26.9473C60.654 27.4076 60.2871 27.722 59.918 27.8906C59.5488 28.0547 59.0749 28.1367 58.4961 28.1367C57.7533 28.1367 57.1722 27.9362 56.7529 27.5352C56.3382 27.1341 56.1309 26.5667 56.1309 25.833C56.1309 25.0537 56.4202 24.4658 56.999 24.0693C57.5778 23.6729 58.4596 23.4564 59.6445 23.4199L60.9502 23.3789L60.9502 22.9756C60.9502 22.4925 60.8363 22.1325 60.6084 21.8955C60.3851 21.654 60.0365 21.5332 59.5625 21.5332C59.1751 21.5332 58.8037 21.5902 58.4482 21.7041C58.0928 21.818 57.751 21.9525 57.4229 22.1074L56.9033 20.959C57.3135 20.7448 57.7624 20.583 58.25 20.4736C58.7376 20.3597 59.1979 20.3027 59.6309 20.3027C60.5924 20.3027 61.3171 20.5124 61.8047 20.9316C62.2969 21.3509 62.543 22.0094 62.543 22.9072L62.543 28L61.3945 28ZM59.002 26.9063C59.5853 26.9063 60.0524 26.7445 60.4033 26.4209C60.7588 26.0928 60.9365 25.6348 60.9365 25.0469L60.9365 24.3906L59.9658 24.4316C59.2093 24.459 58.6579 24.5866 58.3115 24.8145C57.9697 25.0378 57.7988 25.3818 57.7988 25.8467C57.7988 26.1839 57.8991 26.446 58.0996 26.6328C58.3001 26.8151 58.6009 26.9063 59.002 26.9063ZM66.3916 20.4395L66.3916 23.4746L69.9531 23.4746L69.9531 20.4395L71.5596 20.4395L71.5596 28L69.9531 28L69.9531 24.7393L66.3916 24.7393L66.3916 28L64.7852 28L64.7852 20.4395L66.3916 20.4395ZM75.4014 20.4395L75.4014 24.3154C75.4014 24.7666 75.3649 25.4297 75.292 26.3047L79.0859 20.4395L81.0479 20.4395L81.0479 28L79.5029 28L79.5029 24.1924C79.5029 23.9827 79.5143 23.6432 79.5371 23.1738C79.5645 22.7044 79.5872 22.3626 79.6055 22.1484L75.8252 28L73.8633 28L73.8633 20.4395L75.4014 20.4395ZM84.1104 28L82.3125 28L84.418 24.9033C83.9076 24.7575 83.5065 24.4977 83.2148 24.124C82.9232 23.7458 82.7773 23.2786 82.7773 22.7227C82.7773 22.0072 83.0326 21.4489 83.543 21.0479C84.0534 20.6423 84.7507 20.4395 85.6348 20.4395L89.0801 20.4395L89.0801 28L87.4668 28L87.4668 25.0879L85.9424 25.0879L84.1104 28ZM84.3428 22.7363C84.3428 23.1237 84.4886 23.4154 84.7803 23.6113C85.0765 23.8027 85.473 23.8984 85.9697 23.8984L87.4668 23.8984L87.4668 21.6563L85.7168 21.6563C85.2793 21.6563 84.9398 21.7497 84.6982 21.9365C84.4613 22.1234 84.3428 22.39 84.3428 22.7363ZM96.3604 18.0059L96.0801 21.6152L95.0547 21.6152L94.7744 18.0059L96.3604 18.0059ZM99.0605 18.0059L98.7803 21.6152L97.7549 21.6152L97.4746 18.0059L99.0605 18.0059ZM100.059 26.5986L100.831 26.5986C101.492 25.391 102.046 24.0352 102.492 22.5313C102.939 21.0273 103.226 19.5189 103.354 18.0059L108.515 18.0059L108.515 26.5986L109.807 26.5986L109.807 30.7549L108.234 30.7549L108.234 28L101.631 28L101.631 30.7549L100.059 30.7549L100.059 26.5986ZM104.721 19.4209C104.62 20.4554 104.365 21.6563 103.955 23.0234C103.545 24.3861 103.078 25.5778 102.554 26.5986L106.881 26.5986L106.881 19.4209L104.721 19.4209ZM117.962 24.2061C117.962 25.4411 117.645 26.4049 117.012 27.0977C116.378 27.7904 115.496 28.1367 114.366 28.1367C113.66 28.1367 113.035 27.9772 112.493 27.6582C111.951 27.3392 111.534 26.8812 111.242 26.2842C110.951 25.6872 110.805 24.9945 110.805 24.2061C110.805 22.9801 111.119 22.0231 111.748 21.335C112.377 20.6468 113.263 20.3027 114.407 20.3027C115.501 20.3027 116.367 20.6559 117.005 21.3623C117.643 22.0641 117.962 23.012 117.962 24.2061ZM112.459 24.2061C112.459 25.9515 113.104 26.8242 114.394 26.8242C115.67 26.8242 116.308 25.9515 116.308 24.2061C116.308 22.4788 115.665 21.6152 114.38 21.6152C113.705 21.6152 113.215 21.8385 112.91 22.2852C112.609 22.7318 112.459 23.3721 112.459 24.2061ZM123.649 28.1367C122.692 28.1367 121.95 27.7926 121.421 27.1045L121.325 27.1045C121.389 27.7425 121.421 28.1299 121.421 28.2666L121.421 31.3633L119.814 31.3633L119.814 20.4395L121.113 20.4395C121.15 20.5807 121.225 20.918 121.339 21.4512L121.421 21.4512C121.922 20.6855 122.674 20.3027 123.677 20.3027C124.62 20.3027 125.354 20.6445 125.878 21.3281C126.407 22.0117 126.671 22.971 126.671 24.2061C126.671 25.4411 126.402 26.4049 125.864 27.0977C125.331 27.7904 124.593 28.1367 123.649 28.1367ZM123.26 21.6152C122.622 21.6152 122.155 21.8021 121.858 22.1758C121.567 22.5495 121.421 23.1465 121.421 23.9668L121.421 24.2061C121.421 25.1266 121.567 25.7943 121.858 26.209C122.15 26.6191 122.626 26.8242 123.287 26.8242C123.843 26.8242 124.271 26.5964 124.572 26.1406C124.873 25.6849 125.023 25.0355 125.023 24.1924C125.023 23.3447 124.873 22.7044 124.572 22.2715C124.276 21.834 123.839 21.6152 123.26 21.6152ZM135.147 20.4395L135.147 28L133.534 28L133.534 21.7109L130.144 21.7109L130.144 28L128.537 28L128.537 20.4395L135.147 20.4395ZM143.665 28L142.045 28L142.045 21.6973L139.96 21.6973C139.832 23.3197 139.659 24.5866 139.44 25.498C139.226 26.4095 138.944 27.0749 138.593 27.4941C138.246 27.9134 137.795 28.123 137.239 28.123C136.888 28.123 136.594 28.0729 136.357 27.9727L136.357 26.7148C136.526 26.7786 136.695 26.8105 136.863 26.8105C137.328 26.8105 137.693 26.2887 137.957 25.2451C138.226 24.1969 138.436 22.5951 138.586 20.4395L143.665 20.4395L143.665 28ZM150.699 28L150.378 26.9473L150.323 26.9473C149.959 27.4076 149.592 27.722 149.223 27.8906C148.854 28.0547 148.38 28.1367 147.801 28.1367C147.058 28.1367 146.477 27.9362 146.058 27.5352C145.643 27.1341 145.436 26.5667 145.436 25.833C145.436 25.0537 145.725 24.4658 146.304 24.0693C146.882 23.6729 147.764 23.4564 148.949 23.4199L150.255 23.3789L150.255 22.9756C150.255 22.4925 150.141 22.1325 149.913 21.8955C149.69 21.654 149.341 21.5332 148.867 21.5332C148.48 21.5332 148.108 21.5902 147.753 21.7041C147.397 21.818 147.056 21.9525 146.728 22.1074L146.208 20.959C146.618 20.7448 147.067 20.583 147.555 20.4736C148.042 20.3597 148.503 20.3027 148.936 20.3027C149.897 20.3027 150.622 20.5124 151.109 20.9316C151.602 21.3509 151.848 22.0094 151.848 22.9072L151.848 28L150.699 28ZM148.307 26.9063C148.89 26.9063 149.357 26.7445 149.708 26.4209C150.063 26.0928 150.241 25.6348 150.241 25.0469L150.241 24.3906L149.271 24.4316C148.514 24.459 147.963 24.5866 147.616 24.8145C147.274 25.0378 147.104 25.3818 147.104 25.8467C147.104 26.1839 147.204 26.446 147.404 26.6328C147.605 26.8151 147.906 26.9063 148.307 26.9063ZM157.139 28.1367C155.995 28.1367 155.124 27.804 154.527 27.1387C153.935 26.4688 153.639 25.5094 153.639 24.2607C153.639 22.9893 153.949 22.0117 154.568 21.3281C155.193 20.6445 156.093 20.3027 157.269 20.3027C158.066 20.3027 158.784 20.4508 159.422 20.7471L158.937 22.0391C158.257 21.7747 157.697 21.6426 157.255 21.6426C155.947 21.6426 155.293 22.5107 155.293 24.2471C155.293 25.0947 155.455 25.7327 155.778 26.1611C156.106 26.585 156.585 26.7969 157.214 26.7969C157.929 26.7969 158.606 26.6191 159.244 26.2637L159.244 27.665C158.957 27.8337 158.649 27.9544 158.321 28.0273C157.998 28.1003 157.604 28.1367 157.139 28.1367ZM166.702 20.4395L166.702 21.6973L164.241 21.6973L164.241 28L162.628 28L162.628 21.6973L160.167 21.6973L160.167 20.4395L166.702 20.4395ZM169.696 20.4395L169.696 24.3154C169.696 24.7666 169.66 25.4297 169.587 26.3047L173.381 20.4395L175.343 20.4395L175.343 28L173.798 28L173.798 24.1924C173.798 23.9827 173.809 23.6432 173.832 23.1738C173.859 22.7044 173.882 22.3626 173.9 22.1484L170.12 28L168.158 28L168.158 20.4395L169.696 20.4395ZM179.239 20.4395L179.239 23.4746L182.801 23.4746L182.801 20.4395L184.407 20.4395L184.407 28L182.801 28L182.801 24.7393L179.239 24.7393L179.239 28L177.633 28L177.633 20.4395L179.239 20.4395ZM193.273 22.374C193.273 23.2673 192.752 23.8073 191.708 23.9941L191.708 24.0488C192.291 24.1172 192.738 24.3018 193.048 24.6025C193.358 24.9033 193.513 25.293 193.513 25.7715C193.513 26.487 193.239 27.0384 192.692 27.4258C192.15 27.8086 191.359 28 190.32 28L186.711 28L186.711 20.4395L190.307 20.4395C192.285 20.4395 193.273 21.0843 193.273 22.374ZM191.865 25.6758C191.865 25.3112 191.724 25.0537 191.441 24.9033C191.159 24.7484 190.735 24.6709 190.17 24.6709L188.317 24.6709L188.317 26.8105L190.211 26.8105C191.314 26.8105 191.865 26.4323 191.865 25.6758ZM191.667 22.5107C191.667 22.21 191.549 21.9935 191.312 21.8613C191.079 21.7246 190.73 21.6563 190.266 21.6563L188.317 21.6563L188.317 23.4746L190.026 23.4746C190.564 23.4746 190.972 23.4063 191.25 23.2695C191.528 23.1283 191.667 22.8753 191.667 22.5107ZM198.476 28.1367C197.3 28.1367 196.379 27.7949 195.714 27.1113C195.053 26.4232 194.723 25.4775 194.723 24.2744C194.723 23.0394 195.03 22.0687 195.646 21.3623C196.261 20.6559 197.106 20.3027 198.182 20.3027C199.18 20.3027 199.968 20.6058 200.547 21.2119C201.126 21.818 201.415 22.652 201.415 23.7139L201.415 24.582L196.377 24.582C196.4 25.3158 196.598 25.8809 196.972 26.2773C197.345 26.6693 197.872 26.8652 198.551 26.8652C198.997 26.8652 199.412 26.8242 199.795 26.7422C200.182 26.6556 200.597 26.5143 201.039 26.3184L201.039 27.624C200.647 27.8109 200.251 27.943 199.85 28.0205C199.449 28.098 198.991 28.1367 198.476 28.1367ZM198.182 21.5195C197.671 21.5195 197.261 21.6813 196.951 22.0049C196.646 22.3285 196.464 22.8001 196.404 23.4199L199.836 23.4199C199.827 22.7956 199.676 22.3239 199.385 22.0049C199.093 21.6813 198.692 21.5195 198.182 21.5195ZM206.289 28.1367C205.145 28.1367 204.275 27.804 203.678 27.1387C203.085 26.4688 202.789 25.5094 202.789 24.2607C202.789 22.9893 203.099 22.0117 203.719 21.3281C204.343 20.6445 205.243 20.3027 206.419 20.3027C207.216 20.3027 207.934 20.4508 208.572 20.7471L208.087 22.0391C207.408 21.7747 206.847 21.6426 206.405 21.6426C205.097 21.6426 204.443 22.5107 204.443 24.2471C204.443 25.0947 204.605 25.7327 204.929 26.1611C205.257 26.585 205.735 26.7969 206.364 26.7969C207.08 26.7969 207.757 26.6191 208.395 26.2637L208.395 27.665C208.107 27.8337 207.8 27.9544 207.472 28.0273C207.148 28.1003 206.754 28.1367 206.289 28.1367ZM215.853 20.4395L215.853 21.6973L213.392 21.6973L213.392 28L211.778 28L211.778 21.6973L209.317 21.6973L209.317 20.4395L215.853 20.4395ZM218.655 18.0059L218.375 21.6152L217.35 21.6152L217.069 18.0059L218.655 18.0059ZM221.355 18.0059L221.075 21.6152L220.05 21.6152L219.77 18.0059L221.355 18.0059ZM25.7588 40.4395L25.7588 48L24.1455 48L24.1455 41.7109L20.7549 41.7109L20.7549 48L19.1484 48L19.1484 40.4395L25.7588 40.4395ZM31.8975 48.1367C30.9404 48.1367 30.1976 47.7926 29.6689 47.1045L29.5732 47.1045C29.637 47.7425 29.6689 48.1299 29.6689 48.2666L29.6689 51.3633L28.0625 51.3633L28.0625 40.4395L29.3613 40.4395C29.3978 40.5807 29.473 40.918 29.5869 41.4512L29.6689 41.4512C30.1702 40.6855 30.9222 40.3027 31.9248 40.3027C32.8682 40.3027 33.6019 40.6445 34.126 41.3281C34.6546 42.0117 34.9189 42.971 34.9189 44.2061C34.9189 45.4411 34.6501 46.4049 34.1123 47.0977C33.5791 47.7904 32.8408 48.1367 31.8975 48.1367ZM31.5078 41.6152C30.8698 41.6152 30.4027 41.8021 30.1064 42.1758C29.8148 42.5495 29.6689 43.1465 29.6689 43.9668L29.6689 44.2061C29.6689 45.1266 29.8148 45.7943 30.1064 46.209C30.3981 46.6191 30.8743 46.8242 31.5352 46.8242C32.0911 46.8242 32.5195 46.5964 32.8203 46.1406C33.1211 45.6849 33.2715 45.0355 33.2715 44.1924C33.2715 43.3447 33.1211 42.7044 32.8203 42.2715C32.5241 41.834 32.0866 41.6152 31.5078 41.6152ZM40.0869 48.1367C38.9111 48.1367 37.9906 47.7949 37.3252 47.1113C36.6644 46.4232 36.334 45.4775 36.334 44.2744C36.334 43.0394 36.6416 42.0687 37.2568 41.3623C37.8721 40.6559 38.7174 40.3027 39.793 40.3027C40.791 40.3027 41.5794 40.6058 42.1582 41.2119C42.737 41.818 43.0264 42.652 43.0264 43.7139L43.0264 44.582L37.9883 44.582C38.0111 45.3158 38.2093 45.8809 38.583 46.2773C38.9567 46.6693 39.4831 46.8652 40.1621 46.8652C40.6087 46.8652 41.0234 46.8242 41.4062 46.7422C41.7936 46.6556 42.2083 46.5143 42.6504 46.3184L42.6504 47.624C42.2585 47.8109 41.862 47.943 41.4609 48.0205C41.0599 48.098 40.6019 48.1367 40.0869 48.1367ZM39.793 41.5195C39.2826 41.5195 38.8724 41.6813 38.5625 42.0049C38.2572 42.3285 38.0749 42.8001 38.0156 43.4199L41.4473 43.4199C41.4382 42.7956 41.2878 42.3239 40.9961 42.0049C40.7044 41.6813 40.3034 41.5195 39.793 41.5195ZM52.1045 50.6729L50.6074 50.6729L50.6074 48L45.4258 48L45.4258 50.6729L43.9424 50.6729L43.9424 46.7559L44.5576 46.7559C45.0954 45.9857 45.5215 45.056 45.8359 43.9668C46.1549 42.873 46.3441 41.6973 46.4033 40.4395L50.9971 40.4395L50.9971 46.7559L52.1045 46.7559L52.1045 50.6729ZM49.418 46.7559L49.418 41.6699L47.791 41.6699C47.7044 42.6087 47.5221 43.5339 47.2441 44.4453C46.9707 45.3568 46.6357 46.127 46.2393 46.7559L49.418 46.7559ZM59.7197 48L58.0996 48L58.0996 41.6973L56.0146 41.6973C55.887 43.3197 55.7139 44.5866 55.4951 45.498C55.2809 46.4095 54.9984 47.0749 54.6475 47.4941C54.3011 47.9134 53.8499 48.123 53.2939 48.123C52.943 48.123 52.6491 48.0729 52.4121 47.9727L52.4121 46.7148C52.5807 46.7786 52.7493 46.8105 52.918 46.8105C53.3828 46.8105 53.7474 46.2887 54.0117 45.2451C54.2806 44.1969 54.4902 42.5951 54.6406 40.4395L59.7197 40.4395L59.7197 48ZM66.7539 48L66.4326 46.9473L66.3779 46.9473C66.0133 47.4076 65.6465 47.722 65.2773 47.8906C64.9082 48.0547 64.4342 48.1367 63.8555 48.1367C63.1126 48.1367 62.5316 47.9362 62.1123 47.5352C61.6976 47.1341 61.4902 46.5667 61.4902 45.833C61.4902 45.0537 61.7796 44.4658 62.3584 44.0693C62.9372 43.6729 63.819 43.4564 65.0039 43.4199L66.3096 43.3789L66.3096 42.9756C66.3096 42.4925 66.1956 42.1325 65.9678 41.8955C65.7445 41.654 65.3958 41.5332 64.9219 41.5332C64.5345 41.5332 64.1631 41.5902 63.8076 41.7041C63.4521 41.818 63.1104 41.9525 62.7822 42.1074L62.2627 40.959C62.6729 40.7448 63.1217 40.583 63.6094 40.4736C64.097 40.3597 64.5573 40.3027 64.9902 40.3027C65.9518 40.3027 66.6764 40.5124 67.1641 40.9316C67.6562 41.3509 67.9023 42.0094 67.9023 42.9072L67.9023 48L66.7539 48ZM64.3613 46.9063C64.9447 46.9063 65.4118 46.7445 65.7627 46.4209C66.1182 46.0928 66.2959 45.6348 66.2959 45.0469L66.2959 44.3906L65.3252 44.4316C64.5687 44.459 64.0173 44.5866 63.6709 44.8145C63.3291 45.0378 63.1582 45.3818 63.1582 45.8467C63.1582 46.1839 63.2585 46.446 63.459 46.6328C63.6595 46.8151 63.9603 46.9063 64.3613 46.9063ZM75.0322 40.4395L75.0322 41.6973L71.751 41.6973L71.751 48L70.1445 48L70.1445 40.4395L75.0322 40.4395ZM81.2187 48L80.8975 46.9473L80.8428 46.9473C80.4782 47.4076 80.1113 47.722 79.7422 47.8906C79.373 48.0547 78.8991 48.1367 78.3203 48.1367C77.5775 48.1367 76.9964 47.9362 76.5771 47.5352C76.1624 47.1341 75.9551 46.5667 75.9551 45.833C75.9551 45.0537 76.2445 44.4658 76.8232 44.0693C77.402 43.6729 78.2839 43.4564 79.4687 43.4199L80.7744 43.3789L80.7744 42.9756C80.7744 42.4925 80.6605 42.1325 80.4326 41.8955C80.2093 41.654 79.8607 41.5332 79.3867 41.5332C78.9993 41.5332 78.6279 41.5902 78.2725 41.7041C77.917 41.818 77.5752 41.9525 77.2471 42.1074L76.7275 40.959C77.1377 40.7448 77.5866 40.583 78.0742 40.4736C78.5618 40.3597 79.0221 40.3027 79.4551 40.3027C80.4167 40.3027 81.1413 40.5124 81.6289 40.9316C82.1211 41.3509 82.3672 42.0094 82.3672 42.9072L82.3672 48L81.2187 48ZM78.8262 46.9063C79.4095 46.9063 79.8766 46.7445 80.2275 46.4209C80.583 46.0928 80.7607 45.6348 80.7607 45.0469L80.7607 44.3906L79.79 44.4316C79.0335 44.459 78.4821 44.5866 78.1357 44.8145C77.7939 45.0378 77.623 45.3818 77.623 45.8467C77.623 46.1839 77.7233 46.446 77.9238 46.6328C78.1243 46.8151 78.4251 46.9063 78.8262 46.9063ZM87.9111 48.1367C86.7354 48.1367 85.8148 47.7949 85.1494 47.1113C84.4886 46.4232 84.1582 45.4775 84.1582 44.2744C84.1582 43.0394 84.4658 42.0687 85.0811 41.3623C85.6963 40.6559 86.5417 40.3027 87.6172 40.3027C88.6152 40.3027 89.4036 40.6058 89.9824 41.2119C90.5612 41.818 90.8506 42.652 90.8506 43.7139L90.8506 44.582L85.8125 44.582C85.8353 45.3158 86.0335 45.8809 86.4072 46.2773C86.7809 46.6693 87.3073 46.8652 87.9863 46.8652C88.4329 46.8652 88.8477 46.8242 89.2305 46.7422C89.6178 46.6556 90.0326 46.5143 90.4746 46.3184L90.4746 47.624C90.0827 47.8109 89.6862 47.943 89.2852 48.0205C88.8841 48.098 88.4261 48.1367 87.9111 48.1367ZM87.6172 41.5195C87.1068 41.5195 86.6966 41.6813 86.3867 42.0049C86.0814 42.3285 85.8991 42.8001 85.8398 43.4199L89.2715 43.4199C89.2624 42.7956 89.112 42.3239 88.8203 42.0049C88.5286 41.6813 88.1276 41.5195 87.6172 41.5195ZM98.3564 40.4395L98.3564 41.6973L95.8955 41.6973L95.8955 48L94.2822 48L94.2822 41.6973L91.8213 41.6973L91.8213 40.4395L98.3564 40.4395ZM110.06 40.4395L110.06 48L108.446 48L108.446 41.7109L105.056 41.7109L105.056 48L103.449 48L103.449 40.4395L110.06 40.4395ZM119.069 44.2061C119.069 45.4411 118.753 46.4049 118.119 47.0977C117.486 47.7904 116.604 48.1367 115.474 48.1367C114.767 48.1367 114.143 47.9772 113.601 47.6582C113.058 47.3392 112.641 46.8812 112.35 46.2842C112.058 45.6872 111.912 44.9945 111.912 44.2061C111.912 42.9801 112.227 42.0231 112.855 41.335C113.484 40.6468 114.371 40.3027 115.515 40.3027C116.608 40.3027 117.474 40.6559 118.112 41.3623C118.75 42.0641 119.069 43.012 119.069 44.2061ZM113.566 44.2061C113.566 45.9515 114.211 46.8242 115.501 46.8242C116.777 46.8242 117.415 45.9515 117.415 44.2061C117.415 42.4788 116.772 41.6152 115.487 41.6152C114.813 41.6152 114.323 41.8385 114.018 42.2852C113.717 42.7318 113.566 43.3721 113.566 44.2061ZM127.136 48L125.516 48L125.516 41.6973L123.431 41.6973C123.303 43.3197 123.13 44.5866 122.911 45.498C122.697 46.4095 122.414 47.0749 122.063 47.4941C121.717 47.9134 121.266 48.123 120.71 48.123C120.359 48.123 120.065 48.0729 119.828 47.9727L119.828 46.7148C119.997 46.7786 120.165 46.8105 120.334 46.8105C120.799 46.8105 121.163 46.2887 121.428 45.2451C121.697 44.1969 121.906 42.5951 122.057 40.4395L127.136 40.4395L127.136 48ZM131.046 40.4395L131.046 43.4746L134.607 43.4746L134.607 40.4395L136.214 40.4395L136.214 48L134.607 48L134.607 44.7393L131.046 44.7393L131.046 48L129.439 48L129.439 40.4395L131.046 40.4395ZM140.124 43.4609L141.655 43.4609C142.713 43.4609 143.494 43.6432 144 44.0078C144.506 44.3724 144.759 44.9193 144.759 45.6484C144.759 46.4277 144.494 47.0156 143.966 47.4121C143.442 47.804 142.672 48 141.655 48L138.518 48L138.518 40.4395L140.124 40.4395L140.124 43.4609ZM143.166 45.6895C143.166 45.3112 143.025 45.0469 142.742 44.8965C142.464 44.7461 142.063 44.6709 141.539 44.6709L140.124 44.6709L140.124 46.8105L141.334 46.8105C141.981 46.8105 142.448 46.7194 142.735 46.5371C143.022 46.3548 143.166 46.0723 143.166 45.6895ZM147.562 48L145.948 48L145.948 40.4395L147.562 40.4395L147.562 48ZM151.403 40.4395L151.403 44.3154C151.403 44.7666 151.367 45.4297 151.294 46.3047L155.088 40.4395L157.05 40.4395L157.05 48L155.505 48L155.505 44.1924C155.505 43.9827 155.516 43.6432 155.539 43.1738C155.566 42.7044 155.589 42.3626 155.607 42.1484L151.827 48L149.865 48L149.865 40.4395L151.403 40.4395ZM153.406 39.5166C152.44 39.5166 151.731 39.3434 151.28 38.9971C150.834 38.6462 150.585 38.0628 150.535 37.2471L151.991 37.2471C152.019 37.5752 152.08 37.8304 152.176 38.0127C152.276 38.195 152.417 38.3272 152.6 38.4092C152.786 38.4867 153.069 38.5254 153.447 38.5254C153.894 38.5254 154.233 38.4274 154.466 38.2314C154.698 38.0309 154.84 37.7028 154.89 37.2471L156.373 37.2471C156.305 38.0309 156.029 38.6051 155.546 38.9697C155.063 39.3343 154.35 39.5166 153.406 39.5166ZM167.666 40.4395L169.43 40.4395L166.306 44.083L169.696 48L167.851 48L164.583 44.165L164.583 48L162.977 48L162.977 40.4395L164.583 40.4395L164.583 44.1104L167.666 40.4395ZM177.653 44.2061C177.653 45.4411 177.337 46.4049 176.703 47.0977C176.07 47.7904 175.188 48.1367 174.058 48.1367C173.351 48.1367 172.727 47.9772 172.185 47.6582C171.642 47.3392 171.225 46.8812 170.934 46.2842C170.642 45.6872 170.496 44.9945 170.496 44.2061C170.496 42.9801 170.811 42.0231 171.439 41.335C172.068 40.6468 172.955 40.3027 174.099 40.3027C175.192 40.3027 176.058 40.6559 176.696 41.3623C177.334 42.0641 177.653 43.012 177.653 44.2061ZM172.15 44.2061C172.15 45.9515 172.795 46.8242 174.085 46.8242C175.361 46.8242 175.999 45.9515 175.999 44.2061C175.999 42.4788 175.356 41.6152 174.071 41.6152C173.397 41.6152 172.907 41.8385 172.602 42.2852C172.301 42.7318 172.15 43.3721 172.15 44.2061ZM183.847 46.4619L183.936 46.1338C184.122 45.4548 184.284 44.9329 184.421 44.5684L186.116 40.4395L188.256 40.4395L188.256 48L186.772 48L186.772 41.8955L186.649 42.3057C186.444 43.0394 186.271 43.5794 186.13 43.9258L184.476 48L183.259 48L181.604 43.8984C181.377 43.306 181.167 42.6383 180.976 41.8955L180.976 48L179.506 48L179.506 40.4395L181.632 40.4395L183.272 44.4453C183.418 44.8145 183.61 45.4867 183.847 46.4619ZM197.163 40.4395L197.163 48L195.55 48L195.55 41.7109L192.159 41.7109L192.159 48L190.553 48L190.553 40.4395L197.163 40.4395ZM205.681 48L204.061 48L204.061 41.6973L201.976 41.6973C201.848 43.3197 201.675 44.5866 201.456 45.498C201.242 46.4095 200.959 47.0749 200.608 47.4941C200.262 47.9134 199.811 48.123 199.255 48.123C198.904 48.123 198.61 48.0729 198.373 47.9727L198.373 46.7148C198.542 46.7786 198.71 46.8105 198.879 46.8105C199.344 46.8105 199.708 46.2887 199.973 45.2451C200.242 44.1969 200.451 42.5951 200.602 40.4395L205.681 40.4395L205.681 48ZM211.286 48.1367C210.11 48.1367 209.19 47.7949 208.524 47.1113C207.864 46.4232 207.533 45.4775 207.533 44.2744C207.533 43.0394 207.841 42.0687 208.456 41.3623C209.071 40.6559 209.917 40.3027 210.992 40.3027C211.99 40.3027 212.779 40.6058 213.357 41.2119C213.936 41.818 214.226 42.652 214.226 43.7139L214.226 44.582L209.187 44.582C209.21 45.3158 209.409 45.8809 209.782 46.2773C210.156 46.6693 210.682 46.8652 211.361 46.8652C211.808 46.8652 212.223 46.8242 212.605 46.7422C212.993 46.6556 213.408 46.5143 213.85 46.3184L213.85 47.624C213.458 47.8109 213.061 47.943 212.66 48.0205C212.259 48.098 211.801 48.1367 211.286 48.1367ZM210.992 41.5195C210.482 41.5195 210.072 41.6813 209.762 42.0049C209.456 42.3285 209.274 42.8001 209.215 43.4199L212.646 43.4199C212.637 42.7956 212.487 42.3239 212.195 42.0049C211.904 41.6813 211.503 41.5195 210.992 41.5195ZM220.74 40.4395L222.504 40.4395L219.38 44.083L222.771 48L220.925 48L217.657 44.165L217.657 48L216.051 48L216.051 40.4395L217.657 40.4395L217.657 44.1104L220.74 40.4395ZM227.07 48.1367C225.926 48.1367 225.056 47.804 224.459 47.1387C223.867 46.4688 223.57 45.5094 223.57 44.2607C223.57 42.9893 223.88 42.0117 224.5 41.3281C225.124 40.6445 226.024 40.3027 227.2 40.3027C227.998 40.3027 228.715 40.4508 229.354 40.7471L228.868 42.0391C228.189 41.7747 227.629 41.6426 227.187 41.6426C225.879 41.6426 225.225 42.5107 225.225 44.2471C225.225 45.0947 225.386 45.7327 225.71 46.1611C226.038 46.585 226.517 46.7969 227.146 46.7969C227.861 46.7969 228.538 46.6191 229.176 46.2637L229.176 47.665C228.889 47.8337 228.581 47.9544 228.253 48.0273C227.929 48.1003 227.535 48.1367 227.07 48.1367ZM233.441 40.4395L235.191 40.4395L236.729 44.7256C236.962 45.3363 237.117 45.9105 237.194 46.4482L237.249 46.4482C237.29 46.1976 237.365 45.8945 237.475 45.5391C237.584 45.179 238.163 43.4792 239.211 40.4395L240.947 40.4395L237.714 49.0049C237.126 50.5772 236.146 51.3633 234.774 51.3633C234.419 51.3633 234.073 51.3245 233.735 51.2471L233.735 49.9756C233.977 50.0303 234.253 50.0576 234.562 50.0576C235.337 50.0576 235.882 49.6087 236.196 48.7109L236.477 48L233.441 40.4395ZM245.145 48.1367C244.001 48.1367 243.13 47.804 242.533 47.1387C241.941 46.4688 241.645 45.5094 241.645 44.2607C241.645 42.9893 241.954 42.0117 242.574 41.3281C243.199 40.6445 244.099 40.3027 245.274 40.3027C246.072 40.3027 246.79 40.4508 247.428 40.7471L246.942 42.0391C246.263 41.7747 245.703 41.6426 245.261 41.6426C243.953 41.6426 243.299 42.5107 243.299 44.2471C243.299 45.0947 243.461 45.7328 243.784 46.1611C244.112 46.585 244.591 46.7969 245.22 46.7969C245.935 46.7969 246.612 46.6191 247.25 46.2637L247.25 47.665C246.963 47.8337 246.655 47.9544 246.327 48.0273C246.004 48.1003 245.609 48.1367 245.145 48.1367ZM255.241 48L253.621 48L253.621 41.6973L251.536 41.6973C251.409 43.3197 251.235 44.5866 251.017 45.498C250.802 46.4095 250.52 47.0749 250.169 47.4941C249.823 47.9134 249.371 48.123 248.815 48.123C248.465 48.123 248.171 48.0729 247.934 47.9727L247.934 46.7148C248.102 46.7786 248.271 46.8105 248.439 46.8105C248.904 46.8105 249.269 46.2887 249.533 45.2451C249.802 44.1969 250.012 42.5951 250.162 40.4395L255.241 40.4395L255.241 48ZM256.396 40.4395L258.146 40.4395L259.685 44.7256C259.917 45.3363 260.072 45.9105 260.149 46.4482L260.204 46.4482C260.245 46.1976 260.32 45.8945 260.43 45.5391C260.539 45.179 261.118 43.4792 262.166 40.4395L263.902 40.4395L260.669 49.0049C260.081 50.5772 259.101 51.3633 257.729 51.3633C257.374 51.3633 257.028 51.3245 256.69 51.2471L256.69 49.9756C256.932 50.0303 257.208 50.0576 257.518 50.0576C258.292 50.0576 258.837 49.6087 259.151 48.7109L259.432 48L256.396 40.4395ZM269.938 40.4395L269.938 41.6973L266.657 41.6973L266.657 48L265.051 48L265.051 40.4395L269.938 40.4395ZM25.7109 62.374C25.7109 63.2673 25.1891 63.8073 24.1455 63.9941L24.1455 64.0488C24.7288 64.1172 25.1755 64.3018 25.4854 64.6025C25.7952 64.9033 25.9502 65.293 25.9502 65.7715C25.9502 66.487 25.6768 67.0384 25.1299 67.4258C24.5876 67.8086 23.7969 68 22.7578 68L19.1484 68L19.1484 60.4395L22.7441 60.4395C24.722 60.4395 25.7109 61.0843 25.7109 62.374ZM24.3027 65.6758C24.3027 65.3112 24.1615 65.0537 23.8789 64.9033C23.5964 64.7484 23.1725 64.6709 22.6074 64.6709L20.7549 64.6709L20.7549 66.8105L22.6484 66.8105C23.7513 66.8105 24.3027 66.4323 24.3027 65.6758ZM24.1045 62.5107C24.1045 62.21 23.986 61.9935 23.749 61.8613C23.5166 61.7246 23.168 61.6563 22.7031 61.6563L20.7549 61.6563L20.7549 63.4746L22.4639 63.4746C23.0016 63.4746 23.4095 63.4063 23.6875 63.2695C23.9655 63.1283 24.1045 62.8753 24.1045 62.5107ZM37.9541 64.2061C37.9541 65.4411 37.6374 66.4049 37.0039 67.0977C36.3704 67.7904 35.4886 68.1367 34.3584 68.1367C33.652 68.1367 33.0277 67.9772 32.4854 67.6582C31.943 67.3392 31.526 66.8812 31.2344 66.2842C30.9427 65.6872 30.7969 64.9945 30.7969 64.2061C30.7969 62.9801 31.1113 62.0231 31.7402 61.335C32.3691 60.6468 33.2555 60.3027 34.3994 60.3027C35.4932 60.3027 36.359 60.6559 36.9971 61.3623C37.6351 62.0641 37.9541 63.012 37.9541 64.2061ZM32.4512 64.2061C32.4512 65.9515 33.096 66.8242 34.3857 66.8242C35.6618 66.8242 36.2998 65.9515 36.2998 64.2061C36.2998 62.4788 35.6572 61.6152 34.3721 61.6152C33.6976 61.6152 33.2077 61.8385 32.9023 62.2852C32.6016 62.7318 32.4512 63.3721 32.4512 64.2061ZM39.3691 63.4609C39.3691 61.7747 39.654 60.4782 40.2236 59.5713C40.7979 58.6644 41.7093 58.0811 42.958 57.8213C43.9014 57.6299 44.9883 57.443 46.2187 57.2607L46.4443 58.6758C44.9495 58.9036 43.8558 59.0814 43.1631 59.209C42.4476 59.3411 41.9303 59.6351 41.6113 60.0908C41.2969 60.5465 41.1146 61.2324 41.0645 62.1484L41.167 62.1484C41.4268 61.7702 41.7663 61.4785 42.1855 61.2734C42.6048 61.0638 43.0537 60.959 43.5322 60.959C44.4619 60.959 45.1865 61.2529 45.7061 61.8408C46.2256 62.4287 46.4854 63.2536 46.4854 64.3154C46.4854 65.5322 46.1686 66.4733 45.5352 67.1387C44.9062 67.804 44.0335 68.1367 42.917 68.1367C41.8096 68.1367 40.9414 67.7266 40.3125 66.9063C39.6836 66.0859 39.3691 64.9375 39.3691 63.4609ZM43.0264 66.8242C44.2204 66.8242 44.8174 66.0404 44.8174 64.4727C44.8174 62.9596 44.2773 62.2031 43.1973 62.2031C42.901 62.2031 42.6139 62.2669 42.3359 62.3945C42.0579 62.5221 41.8005 62.6908 41.5635 62.9004C41.3311 63.11 41.151 63.3265 41.0234 63.5498C41.0234 64.6253 41.1943 65.4411 41.5361 65.9971C41.8779 66.5485 42.3747 66.8242 43.0264 66.8242ZM54.5518 68L52.9316 68L52.9316 61.6973L50.8467 61.6973C50.7191 63.3197 50.5459 64.5866 50.3271 65.498C50.113 66.4095 49.8304 67.0749 49.4795 67.4941C49.1331 67.9134 48.682 68.123 48.126 68.123C47.7751 68.123 47.4811 68.0729 47.2441 67.9727L47.2441 66.7148C47.4128 66.7786 47.5814 66.8105 47.75 66.8105C48.2148 66.8105 48.5794 66.2887 48.8437 65.2451C49.1126 64.1969 49.3223 62.5951 49.4727 60.4395L54.5518 60.4395L54.5518 68ZM61.5859 68L61.2646 66.9473L61.21 66.9473C60.8454 67.4076 60.4785 67.722 60.1094 67.8906C59.7402 68.0547 59.2663 68.1367 58.6875 68.1367C57.9447 68.1367 57.3636 67.9362 56.9443 67.5352C56.5296 67.1341 56.3223 66.5667 56.3223 65.833C56.3223 65.0537 56.6117 64.4658 57.1904 64.0693C57.7692 63.6729 58.651 63.4564 59.8359 63.4199L61.1416 63.3789L61.1416 62.9756C61.1416 62.4925 61.0277 62.1325 60.7998 61.8955C60.5765 61.654 60.2279 61.5332 59.7539 61.5332C59.3665 61.5332 58.9951 61.5902 58.6396 61.7041C58.2842 61.818 57.9424 61.9525 57.6143 62.1074L57.0947 60.959C57.5049 60.7448 57.9538 60.583 58.4414 60.4736C58.929 60.3597 59.3893 60.3027 59.8223 60.3027C60.7839 60.3027 61.5085 60.5124 61.9961 60.9316C62.4883 61.3509 62.7344 62.0094 62.7344 62.9072L62.7344 68L61.5859 68ZM59.1934 66.9063C59.7767 66.9063 60.2438 66.7445 60.5947 66.4209C60.9502 66.0928 61.1279 65.6348 61.1279 65.0469L61.1279 64.3906L60.1572 64.4316C59.4007 64.459 58.8493 64.5866 58.5029 64.8145C58.1611 65.0378 57.9902 65.3818 57.9902 65.8467C57.9902 66.1839 58.0905 66.446 58.291 66.6328C58.4915 66.8151 58.7923 66.9063 59.1934 66.9063ZM68.0254 68.1367C66.8815 68.1367 66.0111 67.804 65.4141 67.1387C64.8216 66.4688 64.5254 65.5094 64.5254 64.2607C64.5254 62.9893 64.8353 62.0117 65.4551 61.3281C66.0794 60.6445 66.9795 60.3027 68.1553 60.3027C68.9528 60.3027 69.6706 60.4508 70.3086 60.7471L69.8232 62.0391C69.1442 61.7747 68.5837 61.6426 68.1416 61.6426C66.8337 61.6426 66.1797 62.5107 66.1797 64.2471C66.1797 65.0947 66.3415 65.7327 66.665 66.1611C66.9932 66.585 67.4717 66.7969 68.1006 66.7969C68.8161 66.7969 69.4928 66.6191 70.1309 66.2637L70.1309 67.665C69.8437 67.8337 69.5361 67.9544 69.208 68.0273C68.8844 68.1003 68.4902 68.1367 68.0254 68.1367ZM77.5889 60.4395L77.5889 61.6973L75.1279 61.6973L75.1279 68L73.5146 68L73.5146 61.6973L71.0537 61.6973L71.0537 60.4395L77.5889 60.4395ZM80.583 60.4395L80.583 64.3154C80.583 64.7666 80.5465 65.4297 80.4736 66.3047L84.2676 60.4395L86.2295 60.4395L86.2295 68L84.6846 68L84.6846 64.1924C84.6846 63.9827 84.696 63.6432 84.7187 63.1738C84.7461 62.7044 84.7689 62.3626 84.7871 62.1484L81.0068 68L79.0449 68L79.0449 60.4395L80.583 60.4395ZM95.2051 68.1367C94.0612 68.1367 93.1908 67.804 92.5937 67.1387C92.0013 66.4688 91.7051 65.5094 91.7051 64.2607C91.7051 62.9893 92.015 62.0117 92.6348 61.3281C93.2591 60.6445 94.1592 60.3027 95.335 60.3027C96.1325 60.3027 96.8503 60.4508 97.4883 60.7471L97.0029 62.0391C96.3239 61.7747 95.7633 61.6426 95.3213 61.6426C94.0133 61.6426 93.3594 62.5107 93.3594 64.2471C93.3594 65.0947 93.5212 65.7327 93.8447 66.1611C94.1729 66.585 94.6514 66.7969 95.2803 66.7969C95.9958 66.7969 96.6725 66.6191 97.3105 66.2637L97.3105 67.665C97.0234 67.8337 96.7158 67.9544 96.3877 68.0273C96.0641 68.1003 95.6699 68.1367 95.2051 68.1367ZM105.794 64.2061C105.794 65.4411 105.477 66.4049 104.844 67.0977C104.21 67.7904 103.328 68.1367 102.198 68.1367C101.492 68.1367 100.868 67.9772 100.325 67.6582C99.7829 67.3392 99.3659 66.8812 99.0742 66.2842C98.7826 65.6872 98.6367 64.9945 98.6367 64.2061C98.6367 62.9801 98.9512 62.0231 99.5801 61.335C100.209 60.6468 101.095 60.3027 102.239 60.3027C103.333 60.3027 104.199 60.6559 104.837 61.3623C105.475 62.0641 105.794 63.012 105.794 64.2061ZM100.291 64.2061C100.291 65.9515 100.936 66.8242 102.226 66.8242C103.502 66.8242 104.14 65.9515 104.14 64.2061C104.14 62.4788 103.497 61.6152 102.212 61.6152C101.537 61.6152 101.048 61.8385 100.742 62.2852C100.441 62.7318 100.291 63.3721 100.291 64.2061ZM109.314 63.4609C110.048 63.4609 110.588 63.3812 110.935 63.2217C111.281 63.0576 111.454 62.807 111.454 62.4697C111.454 61.8545 110.907 61.5469 109.813 61.5469C109.084 61.5469 108.339 61.7109 107.578 62.0391L107.059 60.8428C107.938 60.4827 108.909 60.3027 109.971 60.3027C110.91 60.3027 111.639 60.4759 112.158 60.8223C112.678 61.1641 112.937 61.6563 112.937 62.2988C112.937 63.1465 112.452 63.7025 111.481 63.9668L111.481 64.0215C112.088 64.1855 112.521 64.4202 112.78 64.7256C113.045 65.0309 113.177 65.4092 113.177 65.8604C113.177 66.5531 112.871 67.1068 112.261 67.5215C111.655 67.9316 110.807 68.1367 109.718 68.1367C108.528 68.1367 107.619 67.9795 106.99 67.665L106.99 66.2773C107.824 66.6693 108.688 66.8652 109.581 66.8652C110.224 66.8652 110.718 66.7764 111.064 66.5986C111.415 66.4163 111.591 66.1406 111.591 65.7715C111.591 65.3932 111.415 65.1152 111.064 64.9375C110.714 64.7598 110.171 64.6709 109.437 64.6709L108.515 64.6709L108.515 63.4609L109.314 63.4609ZM122.173 70.6729L120.676 70.6729L120.676 68L115.494 68L115.494 70.6729L114.011 70.6729L114.011 66.7559L114.626 66.7559C115.164 65.9857 115.59 65.056 115.904 63.9668C116.223 62.873 116.412 61.6973 116.472 60.4395L121.065 60.4395L121.065 66.7559L122.173 66.7559L122.173 70.6729ZM119.486 66.7559L119.486 61.6699L117.859 61.6699C117.773 62.6087 117.59 63.5339 117.312 64.4453C117.039 65.3568 116.704 66.127 116.308 66.7559L119.486 66.7559ZM128.305 68L127.983 66.9473L127.929 66.9473C127.564 67.4076 127.197 67.722 126.828 67.8906C126.459 68.0547 125.985 68.1367 125.406 68.1367C124.663 68.1367 124.082 67.9362 123.663 67.5352C123.248 67.1341 123.041 66.5667 123.041 65.833C123.041 65.0537 123.33 64.4658 123.909 64.0693C124.488 63.6729 125.37 63.4564 126.555 63.4199L127.86 63.3789L127.86 62.9756C127.86 62.4925 127.746 62.1325 127.519 61.8955C127.295 61.654 126.947 61.5332 126.473 61.5332C126.085 61.5332 125.714 61.5902 125.358 61.7041C125.003 61.818 124.661 61.9525 124.333 62.1074L123.813 60.959C124.224 60.7448 124.673 60.583 125.16 60.4736C125.648 60.3597 126.108 60.3027 126.541 60.3027C127.503 60.3027 128.227 60.5124 128.715 60.9316C129.207 61.3509 129.453 62.0094 129.453 62.9072L129.453 68L128.305 68ZM125.912 66.9063C126.495 66.9063 126.963 66.7445 127.313 66.4209C127.669 66.0928 127.847 65.6348 127.847 65.0469L127.847 64.3906L126.876 64.4316C126.119 64.459 125.568 64.5866 125.222 64.8145C124.88 65.0378 124.709 65.3818 124.709 65.8467C124.709 66.1839 124.809 66.446 125.01 66.6328C125.21 66.8151 125.511 66.9063 125.912 66.9063ZM133.302 60.4395L133.302 63.4746L136.863 63.4746L136.863 60.4395L138.47 60.4395L138.47 68L136.863 68L136.863 64.7393L133.302 64.7393L133.302 68L131.695 68L131.695 60.4395L133.302 60.4395ZM142.312 60.4395L142.312 64.3154C142.312 64.7666 142.275 65.4297 142.202 66.3047L145.996 60.4395L147.958 60.4395L147.958 68L146.413 68L146.413 64.1924C146.413 63.9827 146.424 63.6432 146.447 63.1738C146.475 62.7044 146.497 62.3626 146.516 62.1484L142.735 68L140.773 68L140.773 60.4395L142.312 60.4395ZM151.021 68L149.223 68L151.328 64.9033C150.818 64.7575 150.417 64.4977 150.125 64.124C149.833 63.7458 149.687 63.2786 149.687 62.7227C149.687 62.0072 149.943 61.4489 150.453 61.0479C150.964 60.6423 151.661 60.4395 152.545 60.4395L155.99 60.4395L155.99 68L154.377 68L154.377 65.0879L152.853 65.0879L151.021 68ZM151.253 62.7363C151.253 63.1237 151.399 63.4154 151.69 63.6113C151.987 63.8027 152.383 63.8984 152.88 63.8984L154.377 63.8984L154.377 61.6563L152.627 61.6563C152.189 61.6563 151.85 61.7497 151.608 61.9365C151.371 62.1234 151.253 62.39 151.253 62.7363ZM168.534 60.4395L168.534 68L166.921 68L166.921 61.7109L163.53 61.7109L163.53 68L161.924 68L161.924 60.4395L168.534 60.4395ZM174.673 68.1367C173.716 68.1367 172.973 67.7926 172.444 67.1045L172.349 67.1045C172.412 67.7425 172.444 68.1299 172.444 68.2666L172.444 71.3633L170.838 71.3633L170.838 60.4395L172.137 60.4395C172.173 60.5807 172.248 60.918 172.362 61.4512L172.444 61.4512C172.946 60.6855 173.698 60.3027 174.7 60.3027C175.644 60.3027 176.377 60.6445 176.901 61.3281C177.43 62.0117 177.694 62.971 177.694 64.2061C177.694 65.4411 177.425 66.4049 176.888 67.0977C176.354 67.7904 175.616 68.1367 174.673 68.1367ZM174.283 61.6152C173.645 61.6152 173.178 61.8021 172.882 62.1758C172.59 62.5495 172.444 63.1465 172.444 63.9668L172.444 64.2061C172.444 65.1266 172.59 65.7943 172.882 66.209C173.174 66.6191 173.65 66.8242 174.311 66.8242C174.867 66.8242 175.295 66.5964 175.596 66.1406C175.896 65.6849 176.047 65.0355 176.047 64.1924C176.047 63.3447 175.896 62.7044 175.596 62.2715C175.299 61.834 174.862 61.6152 174.283 61.6152ZM186.267 64.2061C186.267 65.4411 185.95 66.4049 185.316 67.0977C184.683 67.7904 183.801 68.1367 182.671 68.1367C181.965 68.1367 181.34 67.9772 180.798 67.6582C180.256 67.3392 179.839 66.8812 179.547 66.2842C179.255 65.6872 179.109 64.9945 179.109 64.2061C179.109 62.9801 179.424 62.0231 180.053 61.335C180.682 60.6468 181.568 60.3027 182.712 60.3027C183.806 60.3027 184.672 60.6559 185.31 61.3623C185.948 62.0641 186.267 63.012 186.267 64.2061ZM180.764 64.2061C180.764 65.9515 181.409 66.8242 182.698 66.8242C183.974 66.8242 184.612 65.9515 184.612 64.2061C184.612 62.4788 183.97 61.6152 182.685 61.6152C182.01 61.6152 181.52 61.8385 181.215 62.2852C180.914 62.7318 180.764 63.3721 180.764 64.2061ZM195.372 70.6729L193.875 70.6729L193.875 68L188.693 68L188.693 70.6729L187.21 70.6729L187.21 66.7559L187.825 66.7559C188.363 65.9857 188.789 65.056 189.104 63.9668C189.423 62.873 189.612 61.6973 189.671 60.4395L194.265 60.4395L194.265 66.7559L195.372 66.7559L195.372 70.6729ZM192.686 66.7559L192.686 61.6699L191.059 61.6699C190.972 62.6087 190.79 63.5339 190.512 64.4453C190.238 65.3568 189.903 66.127 189.507 66.7559L192.686 66.7559ZM195.625 60.4395L197.375 60.4395L198.913 64.7256C199.146 65.3363 199.3 65.9105 199.378 66.4482L199.433 66.4482C199.474 66.1976 199.549 65.8945 199.658 65.5391C199.768 65.179 200.346 63.4792 201.395 60.4395L203.131 60.4395L199.897 69.0049C199.31 70.5772 198.33 71.3633 196.958 71.3633C196.603 71.3633 196.256 71.3245 195.919 71.2471L195.919 69.9756C196.16 70.0303 196.436 70.0576 196.746 70.0576C197.521 70.0576 198.065 69.6087 198.38 68.7109L198.66 68L195.625 60.4395ZM208.969 60.4395L210.732 60.4395L207.608 64.083L210.999 68L209.153 68L205.886 64.165L205.886 68L204.279 68L204.279 60.4395L205.886 60.4395L205.886 64.1104L208.969 60.4395ZM218.983 66.7559L220.077 66.7559L220.077 70.6592L218.566 70.6592L218.566 68L212.25 68L212.25 60.4395L213.856 60.4395L213.856 66.7285L217.377 66.7285L217.377 60.4395L218.983 60.4395L218.983 66.7559ZM222.989 60.4395L222.989 64.3154C222.989 64.7666 222.953 65.4297 222.88 66.3047L226.674 60.4395L228.636 60.4395L228.636 68L227.091 68L227.091 64.1924C227.091 63.9827 227.102 63.6432 227.125 63.1738C227.152 62.7044 227.175 62.3626 227.193 62.1484L223.413 68L221.451 68L221.451 60.4395L222.989 60.4395ZM232.464 60.4395L232.464 64.3154C232.464 64.7666 232.427 65.4297 232.354 66.3047L236.148 60.4395L238.11 60.4395L238.11 68L236.565 68L236.565 64.1924C236.565 63.9828 236.577 63.6432 236.6 63.1738C236.627 62.7044 236.65 62.3626 236.668 62.1484L232.888 68L230.926 68L230.926 60.4395L232.464 60.4395ZM245.575 60.4395L245.575 64.3154C245.575 64.7666 245.539 65.4297 245.466 66.3047L249.26 60.4395L251.222 60.4395L251.222 68L249.677 68L249.677 64.1924C249.677 63.9828 249.688 63.6432 249.711 63.1738C249.738 62.7044 249.761 62.3626 249.779 62.1484L245.999 68L244.037 68L244.037 60.4395L245.575 60.4395ZM255.18 63.4609C255.913 63.4609 256.453 63.3812 256.8 63.2217C257.146 63.0576 257.319 62.807 257.319 62.4697C257.319 61.8545 256.772 61.5469 255.679 61.5469C254.95 61.5469 254.204 61.7109 253.443 62.0391L252.924 60.8428C253.803 60.4828 254.774 60.3027 255.836 60.3027C256.775 60.3027 257.504 60.4759 258.023 60.8223C258.543 61.1641 258.803 61.6563 258.803 62.2988C258.803 63.1465 258.317 63.7025 257.347 63.9668L257.347 64.0215C257.953 64.1855 258.386 64.4203 258.646 64.7256C258.91 65.0309 259.042 65.4092 259.042 65.8604C259.042 66.5531 258.737 67.1068 258.126 67.5215C257.52 67.9316 256.672 68.1367 255.583 68.1367C254.394 68.1367 253.484 67.9795 252.855 67.665L252.855 66.2773C253.689 66.6693 254.553 66.8652 255.446 66.8652C256.089 66.8652 256.583 66.7764 256.93 66.5986C257.281 66.4163 257.456 66.1406 257.456 65.7715C257.456 65.3932 257.281 65.1152 256.93 64.9375C256.579 64.7598 256.036 64.6709 255.303 64.6709L254.38 64.6709L254.38 63.4609L255.18 63.4609ZM25.7588 80.4395L25.7588 88L24.1455 88L24.1455 81.7109L20.7549 81.7109L20.7549 88L19.1484 88L19.1484 80.4395L25.7588 80.4395ZM34.7686 84.2061C34.7686 85.4411 34.4518 86.4049 33.8184 87.0977C33.1849 87.7904 32.3031 88.1367 31.1729 88.1367C30.4665 88.1367 29.8421 87.9772 29.2998 87.6582C28.7575 87.3392 28.3405 86.8812 28.0488 86.2842C27.7572 85.6872 27.6113 84.9945 27.6113 84.2061C27.6113 82.9801 27.9258 82.0231 28.5547 81.335C29.1836 80.6468 30.07 80.3027 31.2139 80.3027C32.3076 80.3027 33.1735 80.6559 33.8115 81.3623C34.4495 82.0641 34.7686 83.012 34.7686 84.2061ZM29.2656 84.2061C29.2656 85.9515 29.9105 86.8242 31.2002 86.8242C32.4762 86.8242 33.1143 85.9515 33.1143 84.2061C33.1143 82.4788 32.4717 81.6152 31.1865 81.6152C30.512 81.6152 30.0221 81.8385 29.7168 82.2852C29.416 82.7318 29.2656 83.3721 29.2656 84.2061ZM42.835 88L41.2148 88L41.2148 81.6973L39.1299 81.6973C39.0023 83.3197 38.8291 84.5866 38.6104 85.498C38.3962 86.4095 38.1136 87.0749 37.7627 87.4941C37.4163 87.9134 36.9652 88.123 36.4092 88.123C36.0583 88.123 35.7643 88.0729 35.5273 87.9727L35.5273 86.7148C35.696 86.7786 35.8646 86.8105 36.0332 86.8105C36.498 86.8105 36.8626 86.2887 37.127 85.2451C37.3958 84.1969 37.6055 82.5951 37.7559 80.4395L42.835 80.4395L42.835 88ZM46.6768 80.4395L46.6768 84.3154C46.6768 84.7666 46.6403 85.4297 46.5674 86.3047L50.3613 80.4395L52.3232 80.4395L52.3232 88L50.7783 88L50.7783 84.1924C50.7783 83.9827 50.7897 83.6432 50.8125 83.1738C50.8398 82.7044 50.8626 82.3626 50.8809 82.1484L47.1006 88L45.1387 88L45.1387 80.4395L46.6768 80.4395ZM58.9541 86.4619L59.043 86.1338C59.2298 85.4548 59.3916 84.9329 59.5283 84.5684L61.2236 80.4395L63.3633 80.4395L63.3633 88L61.8799 88L61.8799 81.8955L61.7568 82.3057C61.5518 83.0394 61.3786 83.5794 61.2373 83.9258L59.583 88L58.3662 88L56.7119 83.8984C56.484 83.306 56.2744 82.6383 56.083 81.8955L56.083 88L54.6133 88L54.6133 80.4395L56.7393 80.4395L58.3799 84.4453C58.5257 84.8145 58.7171 85.4867 58.9541 86.4619ZM68.9619 88.1367C67.7861 88.1367 66.8656 87.7949 66.2002 87.1113C65.5394 86.4232 65.209 85.4775 65.209 84.2744C65.209 83.0394 65.5166 82.0687 66.1318 81.3623C66.7471 80.6559 67.5924 80.3027 68.668 80.3027C69.666 80.3027 70.4544 80.6058 71.0332 81.2119C71.612 81.818 71.9014 82.652 71.9014 83.7139L71.9014 84.582L66.8633 84.582C66.8861 85.3158 67.0843 85.8809 67.458 86.2773C67.8317 86.6693 68.3581 86.8652 69.0371 86.8652C69.4837 86.8652 69.8984 86.8242 70.2812 86.7422C70.6686 86.6556 71.0833 86.5143 71.5254 86.3184L71.5254 87.624C71.1335 87.8109 70.737 87.943 70.3359 88.0205C69.9349 88.098 69.4769 88.1367 68.9619 88.1367ZM68.668 81.5195C68.1576 81.5195 67.7474 81.6813 67.4375 82.0049C67.1322 82.3285 66.9499 82.8001 66.8906 83.4199L70.3223 83.4199C70.3132 82.7956 70.1628 82.3239 69.8711 82.0049C69.5794 81.6813 69.1784 81.5195 68.668 81.5195ZM77.5615 88.1367C76.6045 88.1367 75.8617 87.7926 75.333 87.1045L75.2373 87.1045C75.3011 87.7425 75.333 88.1299 75.333 88.2666L75.333 91.3633L73.7266 91.3633L73.7266 80.4395L75.0254 80.4395C75.0618 80.5807 75.137 80.918 75.251 81.4512L75.333 81.4512C75.8343 80.6855 76.5863 80.3027 77.5889 80.3027C78.5322 80.3027 79.2659 80.6445 79.79 81.3281C80.3187 82.0117 80.583 82.971 80.583 84.2061C80.583 85.4411 80.3141 86.4049 79.7764 87.0977C79.2432 87.7904 78.5049 88.1367 77.5615 88.1367ZM77.1719 81.6152C76.5339 81.6152 76.0667 81.8021 75.7705 82.1758C75.4788 82.5495 75.333 83.1465 75.333 83.9668L75.333 84.2061C75.333 85.1266 75.4788 85.7943 75.7705 86.209C76.0622 86.6191 76.5384 86.8242 77.1992 86.8242C77.7552 86.8242 78.1836 86.5964 78.4844 86.1406C78.7852 85.6849 78.9355 85.0355 78.9355 84.1924C78.9355 83.3447 78.7852 82.7044 78.4844 82.2715C78.1882 81.834 77.7507 81.6152 77.1719 81.6152ZM84.0557 80.4395L84.0557 83.4746L87.6172 83.4746L87.6172 80.4395L89.2236 80.4395L89.2236 88L87.6172 88L87.6172 84.7393L84.0557 84.7393L84.0557 88L82.4492 88L82.4492 80.4395L84.0557 80.4395ZM93.1338 83.4609L94.665 83.4609C95.7223 83.4609 96.5039 83.6432 97.0098 84.0078C97.5156 84.3724 97.7686 84.9193 97.7686 85.6484C97.7686 86.4277 97.5042 87.0156 96.9756 87.4121C96.4515 87.804 95.6813 88 94.665 88L91.5273 88L91.5273 80.4395L93.1338 80.4395L93.1338 83.4609ZM96.1758 85.6895C96.1758 85.3112 96.0345 85.0469 95.752 84.8965C95.474 84.7461 95.0729 84.6709 94.5488 84.6709L93.1338 84.6709L93.1338 86.8105L94.3437 86.8105C94.9909 86.8105 95.458 86.7194 95.7451 86.5371C96.0322 86.3548 96.1758 86.0723 96.1758 85.6895ZM100.571 88L98.958 88L98.958 80.4395L100.571 80.4395L100.571 88ZM104.557 84.1377L102.021 80.4395L103.853 80.4395L105.575 83.085L107.312 80.4395L109.13 80.4395L106.587 84.1377L109.26 88L107.441 88L105.575 85.1699L103.716 88L101.897 88L104.557 84.1377ZM118.563 86.4619L118.652 86.1338C118.839 85.4548 119.001 84.9329 119.138 84.5684L120.833 80.4395L122.973 80.4395L122.973 88L121.489 88L121.489 81.8955L121.366 82.3057C121.161 83.0394 120.988 83.5794 120.847 83.9258L119.192 88L117.976 88L116.321 83.8984C116.093 83.306 115.884 82.6383 115.692 81.8955L115.692 88L114.223 88L114.223 80.4395L116.349 80.4395L117.989 84.4453C118.135 84.8145 118.326 85.4867 118.563 86.4619ZM130 88L129.679 86.9473L129.624 86.9473C129.259 87.4076 128.893 87.722 128.523 87.8906C128.154 88.0547 127.68 88.1367 127.102 88.1367C126.359 88.1367 125.778 87.9362 125.358 87.5352C124.944 87.1341 124.736 86.5667 124.736 85.833C124.736 85.0537 125.026 84.4658 125.604 84.0693C126.183 83.6729 127.065 83.4564 128.25 83.4199L129.556 83.3789L129.556 82.9756C129.556 82.4925 129.442 82.1325 129.214 81.8955C128.991 81.654 128.642 81.5332 128.168 81.5332C127.781 81.5332 127.409 81.5902 127.054 81.7041C126.698 81.818 126.356 81.9525 126.028 82.1074L125.509 80.959C125.919 80.7448 126.368 80.583 126.855 80.4736C127.343 80.3597 127.803 80.3027 128.236 80.3027C129.198 80.3027 129.923 80.5124 130.41 80.9316C130.902 81.3509 131.148 82.0094 131.148 82.9072L131.148 88L130 88ZM127.607 86.9063C128.191 86.9063 128.658 86.7445 129.009 86.4209C129.364 86.0928 129.542 85.6348 129.542 85.0469L129.542 84.3906L128.571 84.4316C127.815 84.459 127.263 84.5866 126.917 84.8145C126.575 85.0378 126.404 85.3818 126.404 85.8467C126.404 86.1839 126.505 86.446 126.705 86.6328C126.906 86.8151 127.206 86.9063 127.607 86.9063ZM139.071 80.4395L139.071 81.6973L136.61 81.6973L136.61 88L134.997 88L134.997 81.6973L132.536 81.6973L132.536 80.4395L139.071 80.4395ZM143.829 88.1367C142.653 88.1367 141.733 87.7949 141.067 87.1113C140.407 86.4232 140.076 85.4775 140.076 84.2744C140.076 83.0394 140.384 82.0687 140.999 81.3623C141.614 80.6559 142.46 80.3027 143.535 80.3027C144.533 80.3027 145.322 80.6058 145.9 81.2119C146.479 81.818 146.769 82.652 146.769 83.7139L146.769 84.582L141.73 84.582C141.753 85.3158 141.951 85.8809 142.325 86.2773C142.699 86.6693 143.225 86.8652 143.904 86.8652C144.351 86.8652 144.766 86.8242 145.148 86.7422C145.536 86.6556 145.951 86.5143 146.393 86.3184L146.393 87.624C146.001 87.8109 145.604 87.943 145.203 88.0205C144.802 88.098 144.344 88.1367 143.829 88.1367ZM143.535 81.5195C143.025 81.5195 142.615 81.6813 142.305 82.0049C141.999 82.3285 141.817 82.8001 141.758 83.4199L145.189 83.4199C145.18 82.7956 145.03 82.3239 144.738 82.0049C144.447 81.6813 144.046 81.5195 143.535 81.5195ZM152.429 88.1367C151.472 88.1367 150.729 87.7926 150.2 87.1045L150.104 87.1045C150.168 87.7425 150.2 88.1299 150.2 88.2666L150.2 91.3633L148.594 91.3633L148.594 80.4395L149.893 80.4395C149.929 80.5807 150.004 80.918 150.118 81.4512L150.2 81.4512C150.701 80.6855 151.453 80.3027 152.456 80.3027C153.399 80.3027 154.133 80.6445 154.657 81.3281C155.186 82.0117 155.45 82.971 155.45 84.2061C155.45 85.4411 155.181 86.4049 154.644 87.0977C154.11 87.7904 153.372 88.1367 152.429 88.1367ZM152.039 81.6152C151.401 81.6152 150.934 81.8021 150.638 82.1758C150.346 82.5495 150.2 83.1465 150.2 83.9668L150.2 84.2061C150.2 85.1266 150.346 85.7943 150.638 86.209C150.929 86.6191 151.406 86.8242 152.066 86.8242C152.622 86.8242 153.051 86.5964 153.352 86.1406C153.652 85.6849 153.803 85.0355 153.803 84.1924C153.803 83.3447 153.652 82.7044 153.352 82.2715C153.055 81.834 152.618 81.6152 152.039 81.6152ZM158.854 80.4395L158.854 84.3154C158.854 84.7666 158.818 85.4297 158.745 86.3047L162.539 80.4395L164.501 80.4395L164.501 88L162.956 88L162.956 84.1924C162.956 83.9827 162.967 83.6432 162.99 83.1738C163.018 82.7044 163.04 82.3626 163.059 82.1484L159.278 88L157.316 88L157.316 80.4395L158.854 80.4395ZM171.521 88L171.2 86.9473L171.146 86.9473C170.781 87.4076 170.414 87.722 170.045 87.8906C169.676 88.0547 169.202 88.1367 168.623 88.1367C167.88 88.1367 167.299 87.9362 166.88 87.5352C166.465 87.1341 166.258 86.5667 166.258 85.833C166.258 85.0537 166.547 84.4658 167.126 84.0693C167.705 83.6729 168.587 83.4564 169.771 83.4199L171.077 83.3789L171.077 82.9756C171.077 82.4925 170.963 82.1325 170.735 81.8955C170.512 81.654 170.163 81.5332 169.689 81.5332C169.302 81.5332 168.931 81.5902 168.575 81.7041C168.22 81.818 167.878 81.9525 167.55 82.1074L167.03 80.959C167.44 80.7448 167.889 80.583 168.377 80.4736C168.865 80.3597 169.325 80.3027 169.758 80.3027C170.719 80.3027 171.444 80.5124 171.932 80.9316C172.424 81.3509 172.67 82.0094 172.67 82.9072L172.67 88L171.521 88ZM169.129 86.9063C169.712 86.9063 170.179 86.7445 170.53 86.4209C170.886 86.0928 171.063 85.6348 171.063 85.0469L171.063 84.3906L170.093 84.4316C169.336 84.459 168.785 84.5866 168.438 84.8145C168.097 85.0378 167.926 85.3818 167.926 85.8467C167.926 86.1839 168.026 86.446 168.227 86.6328C168.427 86.8151 168.728 86.9063 169.129 86.9063ZM181.126 88L179.506 88L179.506 81.6973L177.421 81.6973C177.293 83.3197 177.12 84.5866 176.901 85.498C176.687 86.4095 176.405 87.0749 176.054 87.4941C175.707 87.9134 175.256 88.123 174.7 88.123C174.349 88.123 174.055 88.0729 173.818 87.9727L173.818 86.7148C173.987 86.7786 174.156 86.8105 174.324 86.8105C174.789 86.8105 175.154 86.2887 175.418 85.2451C175.687 84.1969 175.896 82.5951 176.047 80.4395L181.126 80.4395L181.126 88ZM190.136 84.2061C190.136 85.4411 189.819 86.4049 189.186 87.0977C188.552 87.7904 187.67 88.1367 186.54 88.1367C185.834 88.1367 185.209 87.9772 184.667 87.6582C184.125 87.3392 183.708 86.8812 183.416 86.2842C183.124 85.6872 182.979 84.9945 182.979 84.2061C182.979 82.9801 183.293 82.0231 183.922 81.335C184.551 80.6468 185.437 80.3027 186.581 80.3027C187.675 80.3027 188.541 80.6559 189.179 81.3623C189.817 82.0641 190.136 83.012 190.136 84.2061ZM184.633 84.2061C184.633 85.9515 185.278 86.8242 186.567 86.8242C187.843 86.8242 188.481 85.9515 188.481 84.2061C188.481 82.4788 187.839 81.6152 186.554 81.6152C185.879 81.6152 185.389 81.8385 185.084 82.2852C184.783 82.7318 184.633 83.3721 184.633 84.2061ZM198.551 82.374C198.551 83.2673 198.029 83.8073 196.985 83.9941L196.985 84.0488C197.569 84.1172 198.015 84.3018 198.325 84.6025C198.635 84.9033 198.79 85.293 198.79 85.7715C198.79 86.487 198.517 87.0384 197.97 87.4258C197.427 87.8086 196.637 88 195.598 88L191.988 88L191.988 80.4395L195.584 80.4395C197.562 80.4395 198.551 81.0843 198.551 82.374ZM197.143 85.6758C197.143 85.3112 197.001 85.0537 196.719 84.9033C196.436 84.7484 196.012 84.6709 195.447 84.6709L193.595 84.6709L193.595 86.8105L195.488 86.8105C196.591 86.8105 197.143 86.4323 197.143 85.6758ZM196.944 82.5107C196.944 82.21 196.826 81.9935 196.589 81.8613C196.356 81.7246 196.008 81.6563 195.543 81.6563L193.595 81.6563L193.595 83.4746L195.304 83.4746C195.841 83.4746 196.249 83.4063 196.527 83.2695C196.805 83.1283 196.944 82.8753 196.944 82.5107Z" fill="white"/>
<defs>
<linearGradient id="paint0_linear" x1="505.597" y1="2.0143e-07" x2="167.859" y2="557.45" gradientUnits="userSpaceOnUse">
<stop stop-color="#89F1FF"/>
<stop offset="1" stop-color="#2983EE"/>
</linearGradient>
</defs>
</svg>
