<svg width="321" height="167" viewBox="0 0 321 167" fill="none" xmlns="http://www.w3.org/2000/svg">
<path fill-rule="evenodd" clip-rule="evenodd" d="M286.013 0C299.268 0 310.013 10.7452 310.013 24V123.676C312.878 129.413 316.718 133.982 321 132.116C318.913 136.039 314.936 140.937 309.995 142.327C309.505 155.15 298.955 165.394 286.013 165.394H24C10.7452 165.394 -2.02562e-05 154.649 -2.02562e-05 141.394V24C-2.02562e-05 10.7452 10.7452 0 24 0H286.013Z" fill="url(#paint0_linear)"/>
<path d="M34.824 43C34.6 42.6373 34.3333 42.248 34.024 41.832C33.7253 41.4053 33.3947 40.984 33.032 40.568C32.68 40.1413 32.312 39.736 31.928 39.352C31.544 38.9573 31.16 38.6107 30.776 38.312V43H28.28V31.912H30.776V36.104C31.4267 35.4213 32.0773 34.712 32.728 33.976C33.3893 33.2293 34.0027 32.5413 34.568 31.912H37.528C36.7707 32.808 36.008 33.672 35.24 34.504C34.4827 35.336 33.6827 36.1733 32.84 37.016C33.7253 37.752 34.5787 38.6267 35.4 39.64C36.232 40.6533 37.0267 41.7733 37.784 43H34.824ZM46.2889 38.776C46.2889 39.4373 46.1929 40.0453 46.0009 40.6C45.8089 41.144 45.5315 41.6133 45.1689 42.008C44.8062 42.392 44.3689 42.6907 43.8569 42.904C43.3555 43.1173 42.7902 43.224 42.1609 43.224C41.5422 43.224 40.9769 43.1173 40.4649 42.904C39.9635 42.6907 39.5315 42.392 39.1689 42.008C38.8062 41.6133 38.5235 41.144 38.3209 40.6C38.1182 40.0453 38.0169 39.4373 38.0169 38.776C38.0169 38.1147 38.1182 37.512 38.3209 36.968C38.5342 36.424 38.8222 35.96 39.1849 35.576C39.5582 35.192 39.9955 34.8933 40.4969 34.68C41.0089 34.4667 41.5635 34.36 42.1609 34.36C42.7689 34.36 43.3235 34.4667 43.8249 34.68C44.3369 34.8933 44.7742 35.192 45.1369 35.576C45.4995 35.96 45.7822 36.424 45.9849 36.968C46.1875 37.512 46.2889 38.1147 46.2889 38.776ZM43.8569 38.776C43.8569 38.04 43.7075 37.464 43.4089 37.048C43.1209 36.6213 42.7049 36.408 42.1609 36.408C41.6169 36.408 41.1955 36.6213 40.8969 37.048C40.5982 37.464 40.4489 38.04 40.4489 38.776C40.4489 39.512 40.5982 40.0987 40.8969 40.536C41.1955 40.9627 41.6169 41.176 42.1609 41.176C42.7049 41.176 43.1209 40.9627 43.4089 40.536C43.7075 40.0987 43.8569 39.512 43.8569 38.776ZM50.5036 38.152C50.4823 38.5253 50.461 38.9307 50.4396 39.368C50.4183 39.8053 50.397 40.248 50.3756 40.696C50.365 41.1333 50.349 41.5547 50.3276 41.96C50.317 42.3547 50.3063 42.7013 50.2956 43H47.9756C47.997 42.4133 48.029 41.752 48.0716 41.016C48.125 40.28 48.1783 39.5333 48.2316 38.776C48.2956 38.008 48.3596 37.2613 48.4236 36.536C48.4983 35.8107 48.5676 35.16 48.6316 34.584H50.6156C51.0743 35.3307 51.4956 36.104 51.8796 36.904C52.2636 37.704 52.669 38.584 53.0956 39.544C53.5436 38.52 53.981 37.576 54.4076 36.712C54.8343 35.8373 55.2183 35.128 55.5596 34.584H57.5756C57.6503 35.16 57.7196 35.8107 57.7836 36.536C57.8583 37.2613 57.9223 38.008 57.9756 38.776C58.0396 39.5333 58.093 40.28 58.1356 41.016C58.1783 41.752 58.2103 42.4133 58.2316 43H55.8636C55.8423 42.168 55.8103 41.3413 55.7676 40.52C55.7356 39.6987 55.7036 38.904 55.6716 38.136L53.9116 42.008H52.2636L50.5036 38.152ZM67.5555 34.584V43H65.1715V36.568H62.6915V43H60.3075V34.584H67.5555ZM73.0079 41.336C73.2425 41.336 73.4665 41.3307 73.6799 41.32C73.8932 41.3093 74.0639 41.2933 74.1919 41.272V39.464C74.0959 39.4427 73.9519 39.4213 73.7599 39.4C73.5679 39.3787 73.3919 39.368 73.2319 39.368C73.0079 39.368 72.7945 39.384 72.5919 39.416C72.3999 39.4373 72.2292 39.4853 72.0799 39.56C71.9305 39.6347 71.8132 39.736 71.7279 39.864C71.6425 39.992 71.5999 40.152 71.5999 40.344C71.5999 40.7173 71.7225 40.9787 71.9679 41.128C72.2239 41.2667 72.5705 41.336 73.0079 41.336ZM72.8159 34.36C73.5199 34.36 74.1065 34.44 74.5759 34.6C75.0452 34.76 75.4185 34.9893 75.6959 35.288C75.9839 35.5867 76.1865 35.9493 76.3039 36.376C76.4212 36.8027 76.4799 37.2773 76.4799 37.8V42.76C76.1385 42.8347 75.6639 42.92 75.0559 43.016C74.4479 43.1227 73.7119 43.176 72.8479 43.176C72.3039 43.176 71.8079 43.128 71.3599 43.032C70.9225 42.936 70.5439 42.7813 70.2239 42.568C69.9039 42.344 69.6585 42.056 69.4879 41.704C69.3172 41.352 69.2319 40.92 69.2319 40.408C69.2319 39.9173 69.3279 39.5013 69.5199 39.16C69.7225 38.8187 69.9892 38.5467 70.3199 38.344C70.6505 38.1413 71.0292 37.9973 71.4559 37.912C71.8825 37.816 72.3252 37.768 72.7839 37.768C73.0932 37.768 73.3652 37.784 73.5999 37.816C73.8452 37.8373 74.0425 37.8693 74.1919 37.912V37.688C74.1919 37.2827 74.0692 36.9573 73.8239 36.712C73.5785 36.4667 73.1519 36.344 72.5439 36.344C72.1385 36.344 71.7385 36.376 71.3439 36.44C70.9492 36.4933 70.6079 36.5733 70.3199 36.68L70.0159 34.76C70.1545 34.7173 70.3252 34.6747 70.5279 34.632C70.7412 34.5787 70.9705 34.536 71.2159 34.504C71.4612 34.4613 71.7172 34.4293 71.9839 34.408C72.2612 34.376 72.5385 34.36 72.8159 34.36ZM85.8836 43H83.4996V39.672H81.0196V43H78.6356V34.584H81.0196V37.72H83.4996V34.584H85.8836V43ZM95.784 34.584V43H93.384C93.384 42.4667 93.3893 41.9387 93.4 41.416C93.4107 40.8827 93.4213 40.392 93.432 39.944C93.4427 39.496 93.4533 39.1067 93.464 38.776C93.4853 38.4347 93.496 38.184 93.496 38.024C93.1867 38.4613 92.8773 38.904 92.568 39.352C92.2587 39.8 91.96 40.2427 91.672 40.68C91.3947 41.1067 91.128 41.5173 90.872 41.912C90.6267 42.3067 90.408 42.6693 90.216 43H88.12V34.584H90.504C90.504 35.1173 90.4987 35.6293 90.488 36.12C90.488 36.6 90.4827 37.0373 90.472 37.432C90.4613 37.8267 90.4507 38.1733 90.44 38.472C90.4293 38.76 90.424 38.984 90.424 39.144C91.064 38.2053 91.6507 37.3627 92.184 36.616C92.728 35.8693 93.256 35.192 93.768 34.584H95.784ZM101.514 40.008C101.173 40.5093 100.869 41.016 100.602 41.528C100.336 42.0293 100.08 42.52 99.8343 43H97.3863C97.6956 42.3067 98.0103 41.672 98.3303 41.096C98.6503 40.52 98.9596 40.024 99.2582 39.608C98.8103 39.3733 98.4529 39.0747 98.1863 38.712C97.9196 38.3387 97.7863 37.8747 97.7863 37.32C97.7863 36.3813 98.1223 35.6613 98.7943 35.16C99.4769 34.6587 100.416 34.408 101.61 34.408C101.877 34.408 102.17 34.4187 102.49 34.44C102.821 34.4613 103.146 34.4933 103.466 34.536C103.786 34.5787 104.09 34.6267 104.378 34.68C104.677 34.7227 104.928 34.7707 105.13 34.824V43H102.746V40.008H101.514ZM102.746 36.296C102.64 36.2853 102.474 36.2747 102.25 36.264C102.026 36.2427 101.834 36.232 101.674 36.232C101.088 36.232 100.688 36.3333 100.474 36.536C100.261 36.728 100.154 36.9787 100.154 37.288C100.154 37.48 100.197 37.6453 100.282 37.784C100.368 37.912 100.48 38.0187 100.618 38.104C100.757 38.1787 100.912 38.232 101.082 38.264C101.253 38.296 101.424 38.312 101.594 38.312H102.746V36.296ZM113.246 30.84V32.024C113.246 32.536 113.203 33.096 113.118 33.704C113.043 34.312 112.958 34.9253 112.862 35.544H111.278C111.16 34.9253 111.064 34.312 110.99 33.704C110.926 33.096 110.894 32.5307 110.894 32.008V30.84H113.246ZM116.734 30.84V32.024C116.734 32.536 116.691 33.096 116.606 33.704C116.531 34.312 116.446 34.9253 116.35 35.544H114.766C114.648 34.9253 114.552 34.312 114.478 33.704C114.414 33.096 114.382 32.5307 114.382 32.008V30.84H116.734ZM116.929 40.888H118.529C118.924 40.2053 119.233 39.528 119.457 38.856C119.681 38.184 119.847 37.5013 119.953 36.808C120.071 36.1147 120.14 35.4 120.161 34.664C120.193 33.928 120.209 33.1547 120.209 32.344V31.912H127.537V40.888H129.441V45.96H127.041V43H119.329V45.96H116.929V40.888ZM122.561 34.024C122.54 34.6 122.503 35.192 122.449 35.8C122.396 36.408 122.316 37.0107 122.209 37.608C122.103 38.1947 121.959 38.7707 121.777 39.336C121.607 39.8907 121.388 40.408 121.121 40.888H125.105V34.024H122.561ZM138.758 38.776C138.758 39.4373 138.662 40.0453 138.47 40.6C138.278 41.144 138 41.6133 137.638 42.008C137.275 42.392 136.838 42.6907 136.326 42.904C135.824 43.1173 135.259 43.224 134.63 43.224C134.011 43.224 133.446 43.1173 132.934 42.904C132.432 42.6907 132 42.392 131.638 42.008C131.275 41.6133 130.992 41.144 130.79 40.6C130.587 40.0453 130.486 39.4373 130.486 38.776C130.486 38.1147 130.587 37.512 130.79 36.968C131.003 36.424 131.291 35.96 131.654 35.576C132.027 35.192 132.464 34.8933 132.966 34.68C133.478 34.4667 134.032 34.36 134.63 34.36C135.238 34.36 135.792 34.4667 136.294 34.68C136.806 34.8933 137.243 35.192 137.606 35.576C137.968 35.96 138.251 36.424 138.454 36.968C138.656 37.512 138.758 38.1147 138.758 38.776ZM136.326 38.776C136.326 38.04 136.176 37.464 135.878 37.048C135.59 36.6213 135.174 36.408 134.63 36.408C134.086 36.408 133.664 36.6213 133.366 37.048C133.067 37.464 132.918 38.04 132.918 38.776C132.918 39.512 133.067 40.0987 133.366 40.536C133.664 40.9627 134.086 41.176 134.63 41.176C135.174 41.176 135.59 40.9627 135.878 40.536C136.176 40.0987 136.326 39.512 136.326 38.776ZM145.996 38.856C145.996 38.12 145.831 37.5333 145.5 37.096C145.17 36.648 144.679 36.424 144.028 36.424C143.815 36.424 143.618 36.4347 143.436 36.456C143.255 36.4667 143.106 36.4827 142.988 36.504V40.808C143.138 40.904 143.33 40.984 143.564 41.048C143.81 41.112 144.055 41.144 144.3 41.144C145.431 41.144 145.996 40.3813 145.996 38.856ZM148.428 38.792C148.428 39.4427 148.348 40.0347 148.188 40.568C148.028 41.1013 147.794 41.56 147.484 41.944C147.175 42.328 146.791 42.6267 146.332 42.84C145.874 43.0533 145.346 43.16 144.748 43.16C144.418 43.16 144.108 43.128 143.82 43.064C143.532 43 143.255 42.9093 142.988 42.792V45.96H140.604V34.872C140.818 34.808 141.063 34.7493 141.34 34.696C141.618 34.632 141.906 34.5787 142.204 34.536C142.514 34.4933 142.823 34.4613 143.132 34.44C143.452 34.408 143.756 34.392 144.044 34.392C144.738 34.392 145.356 34.4987 145.9 34.712C146.444 34.9147 146.903 35.208 147.276 35.592C147.65 35.9653 147.932 36.424 148.124 36.968C148.327 37.512 148.428 38.12 148.428 38.792ZM157.509 34.584V43H155.125V36.568H152.645V43H150.261V34.584H157.509ZM163.521 36.536C163.51 36.8453 163.494 37.176 163.473 37.528C163.462 37.8693 163.436 38.216 163.393 38.568C163.35 38.9093 163.292 39.2453 163.217 39.576C163.153 39.9067 163.068 40.216 162.961 40.504C162.833 40.8453 162.668 41.1653 162.465 41.464C162.273 41.752 162.022 42.0133 161.713 42.248C161.414 42.4827 161.046 42.68 160.609 42.84C160.182 42.9893 159.681 43.0907 159.105 43.144L158.785 41.16C159.329 41.0533 159.75 40.904 160.049 40.712C160.348 40.5093 160.572 40.2533 160.721 39.944C160.838 39.6773 160.929 39.368 160.993 39.016C161.068 38.664 161.121 38.296 161.153 37.912C161.185 37.5173 161.201 37.1173 161.201 36.712C161.212 36.3067 161.217 35.9173 161.217 35.544V34.584H167.537V43H165.153V36.536H163.521ZM172.992 41.336C173.227 41.336 173.451 41.3307 173.664 41.32C173.878 41.3093 174.048 41.2933 174.176 41.272V39.464C174.08 39.4427 173.936 39.4213 173.744 39.4C173.552 39.3787 173.376 39.368 173.216 39.368C172.992 39.368 172.779 39.384 172.576 39.416C172.384 39.4373 172.214 39.4853 172.064 39.56C171.915 39.6347 171.798 39.736 171.712 39.864C171.627 39.992 171.584 40.152 171.584 40.344C171.584 40.7173 171.707 40.9787 171.952 41.128C172.208 41.2667 172.555 41.336 172.992 41.336ZM172.8 34.36C173.504 34.36 174.091 34.44 174.56 34.6C175.03 34.76 175.403 34.9893 175.68 35.288C175.968 35.5867 176.171 35.9493 176.288 36.376C176.406 36.8027 176.464 37.2773 176.464 37.8V42.76C176.123 42.8347 175.648 42.92 175.04 43.016C174.432 43.1227 173.696 43.176 172.832 43.176C172.288 43.176 171.792 43.128 171.344 43.032C170.907 42.936 170.528 42.7813 170.208 42.568C169.888 42.344 169.643 42.056 169.472 41.704C169.302 41.352 169.216 40.92 169.216 40.408C169.216 39.9173 169.312 39.5013 169.504 39.16C169.707 38.8187 169.974 38.5467 170.304 38.344C170.635 38.1413 171.014 37.9973 171.44 37.912C171.867 37.816 172.31 37.768 172.768 37.768C173.078 37.768 173.35 37.784 173.584 37.816C173.83 37.8373 174.027 37.8693 174.176 37.912V37.688C174.176 37.2827 174.054 36.9573 173.808 36.712C173.563 36.4667 173.136 36.344 172.528 36.344C172.123 36.344 171.723 36.376 171.328 36.44C170.934 36.4933 170.592 36.5733 170.304 36.68L170 34.76C170.139 34.7173 170.31 34.6747 170.512 34.632C170.726 34.5787 170.955 34.536 171.2 34.504C171.446 34.4613 171.702 34.4293 171.968 34.408C172.246 34.376 172.523 34.36 172.8 34.36ZM178.22 38.792C178.22 38.184 178.316 37.6133 178.508 37.08C178.711 36.536 178.999 36.0667 179.372 35.672C179.745 35.2667 180.199 34.9467 180.732 34.712C181.265 34.4773 181.873 34.36 182.556 34.36C183.004 34.36 183.415 34.4027 183.788 34.488C184.161 34.5627 184.524 34.6747 184.876 34.824L184.38 36.728C184.156 36.6427 183.911 36.568 183.644 36.504C183.377 36.44 183.079 36.408 182.748 36.408C182.044 36.408 181.516 36.6267 181.164 37.064C180.823 37.5013 180.652 38.0773 180.652 38.792C180.652 39.5493 180.812 40.136 181.132 40.552C181.463 40.968 182.033 41.176 182.844 41.176C183.132 41.176 183.441 41.1493 183.772 41.096C184.103 41.0427 184.407 40.9573 184.684 40.84L185.02 42.792C184.743 42.9093 184.396 43.0107 183.98 43.096C183.564 43.1813 183.105 43.224 182.604 43.224C181.836 43.224 181.175 43.112 180.62 42.888C180.065 42.6533 179.607 42.3387 179.244 41.944C178.892 41.5493 178.631 41.0853 178.46 40.552C178.3 40.008 178.22 39.4213 178.22 38.792ZM193.58 36.536H190.892V43H188.508V36.536H185.82V34.584H193.58V36.536ZM202.69 34.584V43H200.29C200.29 42.4667 200.296 41.9387 200.306 41.416C200.317 40.8827 200.328 40.392 200.338 39.944C200.349 39.496 200.36 39.1067 200.37 38.776C200.392 38.4347 200.402 38.184 200.402 38.024C200.093 38.4613 199.784 38.904 199.474 39.352C199.165 39.8 198.866 40.2427 198.578 40.68C198.301 41.1067 198.034 41.5173 197.778 41.912C197.533 42.3067 197.314 42.6693 197.122 43H195.026V34.584H197.41C197.41 35.1173 197.405 35.6293 197.394 36.12C197.394 36.6 197.389 37.0373 197.378 37.432C197.368 37.8267 197.357 38.1733 197.346 38.472C197.336 38.76 197.33 38.984 197.33 39.144C197.97 38.2053 198.557 37.3627 199.09 36.616C199.634 35.8693 200.162 35.192 200.674 34.584H202.69ZM212.181 43H209.797V39.672H207.317V43H204.933V34.584H207.317V37.72H209.797V34.584H212.181V43ZM216.801 41.24C216.95 41.2613 217.148 41.2827 217.393 41.304C217.649 41.3147 217.884 41.32 218.097 41.32C218.63 41.32 219.046 41.256 219.345 41.128C219.644 40.9893 219.793 40.744 219.793 40.392C219.793 40.0507 219.654 39.816 219.377 39.688C219.11 39.5493 218.716 39.48 218.193 39.48H216.801V41.24ZM218.145 37.88C218.54 37.88 218.86 37.832 219.105 37.736C219.35 37.6293 219.473 37.4053 219.473 37.064C219.473 36.744 219.334 36.5253 219.057 36.408C218.78 36.2907 218.417 36.232 217.969 36.232C217.82 36.232 217.622 36.2427 217.377 36.264C217.142 36.2747 216.95 36.2907 216.801 36.312V37.88H218.145ZM218.065 43.16C217.766 43.16 217.446 43.1493 217.105 43.128C216.764 43.1067 216.428 43.0747 216.097 43.032C215.766 43 215.452 42.9627 215.153 42.92C214.865 42.8667 214.62 42.8187 214.417 42.776V34.712C214.62 34.6693 214.865 34.632 215.153 34.6C215.452 34.5573 215.766 34.52 216.097 34.488C216.428 34.456 216.764 34.4347 217.105 34.424C217.446 34.4027 217.766 34.392 218.065 34.392C218.758 34.392 219.34 34.4613 219.809 34.6C220.289 34.7387 220.673 34.92 220.961 35.144C221.26 35.368 221.473 35.6187 221.601 35.896C221.729 36.1733 221.793 36.4507 221.793 36.728C221.793 37.1013 221.702 37.4427 221.521 37.752C221.34 38.0613 221.11 38.2853 220.833 38.424C220.982 38.488 221.132 38.5787 221.281 38.696C221.441 38.8133 221.585 38.9573 221.713 39.128C221.841 39.288 221.942 39.4853 222.017 39.72C222.102 39.944 222.145 40.2053 222.145 40.504C222.145 40.8453 222.076 41.176 221.937 41.496C221.809 41.816 221.585 42.0987 221.265 42.344C220.945 42.5893 220.524 42.7867 220.001 42.936C219.478 43.0853 218.833 43.16 218.065 43.16ZM223.579 38.856C223.579 38.1093 223.691 37.4587 223.915 36.904C224.15 36.3387 224.454 35.8693 224.827 35.496C225.201 35.1227 225.627 34.84 226.107 34.648C226.598 34.456 227.099 34.36 227.611 34.36C228.806 34.36 229.75 34.728 230.443 35.464C231.137 36.1893 231.483 37.2613 231.483 38.68C231.483 38.8187 231.478 38.9733 231.467 39.144C231.457 39.304 231.446 39.448 231.435 39.576H226.027C226.081 40.0667 226.31 40.456 226.715 40.744C227.121 41.032 227.665 41.176 228.347 41.176C228.785 41.176 229.211 41.1387 229.627 41.064C230.054 40.9787 230.401 40.8773 230.667 40.76L230.987 42.696C230.859 42.76 230.689 42.824 230.475 42.888C230.262 42.952 230.022 43.0053 229.755 43.048C229.499 43.1013 229.222 43.144 228.923 43.176C228.625 43.208 228.326 43.224 228.027 43.224C227.27 43.224 226.609 43.112 226.043 42.888C225.489 42.664 225.025 42.36 224.651 41.976C224.289 41.5813 224.017 41.1173 223.835 40.584C223.665 40.0507 223.579 39.4747 223.579 38.856ZM229.179 37.944C229.169 37.7413 229.131 37.544 229.067 37.352C229.014 37.16 228.923 36.9893 228.795 36.84C228.678 36.6907 228.523 36.568 228.331 36.472C228.15 36.376 227.921 36.328 227.643 36.328C227.377 36.328 227.147 36.376 226.955 36.472C226.763 36.5573 226.603 36.6747 226.475 36.824C226.347 36.9733 226.246 37.1493 226.171 37.352C226.107 37.544 226.059 37.7413 226.027 37.944H229.179ZM232.923 38.792C232.923 38.184 233.019 37.6133 233.211 37.08C233.414 36.536 233.702 36.0667 234.075 35.672C234.448 35.2667 234.902 34.9467 235.435 34.712C235.968 34.4773 236.576 34.36 237.259 34.36C237.707 34.36 238.118 34.4027 238.491 34.488C238.864 34.5627 239.227 34.6747 239.579 34.824L239.083 36.728C238.859 36.6427 238.614 36.568 238.347 36.504C238.08 36.44 237.782 36.408 237.451 36.408C236.747 36.408 236.219 36.6267 235.867 37.064C235.526 37.5013 235.355 38.0773 235.355 38.792C235.355 39.5493 235.515 40.136 235.835 40.552C236.166 40.968 236.736 41.176 237.547 41.176C237.835 41.176 238.144 41.1493 238.475 41.096C238.806 41.0427 239.11 40.9573 239.387 40.84L239.723 42.792C239.446 42.9093 239.099 43.0107 238.683 43.096C238.267 43.1813 237.808 43.224 237.307 43.224C236.539 43.224 235.878 43.112 235.323 42.888C234.768 42.6533 234.31 42.3387 233.947 41.944C233.595 41.5493 233.334 41.0853 233.163 40.552C233.003 40.008 232.923 39.4213 232.923 38.792ZM248.283 36.536H245.595V43H243.211V36.536H240.523V34.584H248.283V36.536ZM251.761 30.84V32.024C251.761 32.536 251.719 33.096 251.633 33.704C251.559 34.312 251.473 34.9253 251.377 35.544H249.793C249.676 34.9253 249.58 34.312 249.505 33.704C249.441 33.096 249.409 32.5307 249.409 32.008V30.84H251.761ZM255.249 30.84V32.024C255.249 32.536 255.207 33.096 255.121 33.704C255.047 34.312 254.961 34.9253 254.865 35.544H253.281C253.164 34.9253 253.068 34.312 252.993 33.704C252.929 33.096 252.897 32.5307 252.897 32.008V30.84H255.249ZM35.368 56.584V65H32.984V58.568H30.504V65H28.12V56.584H35.368ZM42.9964 60.856C42.9964 60.12 42.831 59.5333 42.5004 59.096C42.1697 58.648 41.679 58.424 41.0284 58.424C40.815 58.424 40.6177 58.4347 40.4364 58.456C40.255 58.4667 40.1057 58.4827 39.9884 58.504V62.808C40.1377 62.904 40.3297 62.984 40.5644 63.048C40.8097 63.112 41.055 63.144 41.3004 63.144C42.431 63.144 42.9964 62.3813 42.9964 60.856ZM45.4284 60.792C45.4284 61.4427 45.3484 62.0347 45.1884 62.568C45.0284 63.1013 44.7937 63.56 44.4844 63.944C44.175 64.328 43.791 64.6267 43.3324 64.84C42.8737 65.0533 42.3457 65.16 41.7484 65.16C41.4177 65.16 41.1084 65.128 40.8204 65.064C40.5324 65 40.255 64.9093 39.9884 64.792V67.96H37.6044V56.872C37.8177 56.808 38.063 56.7493 38.3404 56.696C38.6177 56.632 38.9057 56.5787 39.2044 56.536C39.5137 56.4933 39.823 56.4613 40.1324 56.44C40.4524 56.408 40.7564 56.392 41.0444 56.392C41.7377 56.392 42.3564 56.4987 42.9004 56.712C43.4444 56.9147 43.903 57.208 44.2764 57.592C44.6497 57.9653 44.9324 58.424 45.1244 58.968C45.327 59.512 45.4284 60.12 45.4284 60.792ZM46.8606 60.856C46.8606 60.1093 46.9726 59.4587 47.1966 58.904C47.4313 58.3387 47.7353 57.8693 48.1086 57.496C48.482 57.1227 48.9086 56.84 49.3886 56.648C49.8793 56.456 50.3806 56.36 50.8926 56.36C52.0873 56.36 53.0313 56.728 53.7246 57.464C54.418 58.1893 54.7646 59.2613 54.7646 60.68C54.7646 60.8187 54.7593 60.9733 54.7486 61.144C54.738 61.304 54.7273 61.448 54.7166 61.576H49.3086C49.362 62.0667 49.5913 62.456 49.9966 62.744C50.402 63.032 50.946 63.176 51.6286 63.176C52.066 63.176 52.4926 63.1387 52.9086 63.064C53.3353 62.9787 53.682 62.8773 53.9486 62.76L54.2686 64.696C54.1406 64.76 53.97 64.824 53.7566 64.888C53.5433 64.952 53.3033 65.0053 53.0366 65.048C52.7806 65.1013 52.5033 65.144 52.2046 65.176C51.906 65.208 51.6073 65.224 51.3086 65.224C50.5513 65.224 49.89 65.112 49.3246 64.888C48.77 64.664 48.306 64.36 47.9326 63.976C47.57 63.5813 47.298 63.1173 47.1166 62.584C46.946 62.0507 46.8606 61.4747 46.8606 60.856ZM52.4606 59.944C52.45 59.7413 52.4126 59.544 52.3486 59.352C52.2953 59.16 52.2046 58.9893 52.0766 58.84C51.9593 58.6907 51.8046 58.568 51.6126 58.472C51.4313 58.376 51.202 58.328 50.9246 58.328C50.658 58.328 50.4286 58.376 50.2366 58.472C50.0446 58.5573 49.8846 58.6747 49.7566 58.824C49.6286 58.9733 49.5273 59.1493 49.4526 59.352C49.3886 59.544 49.3406 59.7413 49.3086 59.944H52.4606ZM55.8044 63.048H56.8444C57.143 62.6853 57.3724 62.2373 57.5324 61.704C57.703 61.16 57.8204 60.5893 57.8844 59.992C57.959 59.384 58.0017 58.7813 58.0124 58.184C58.023 57.5867 58.0284 57.0533 58.0284 56.584H64.5884V63.048H66.0124V67.4H63.9804V65H57.8364V67.4H55.8044V63.048ZM62.2044 63.048V58.536H60.2524C60.231 58.9093 60.2044 59.2987 60.1724 59.704C60.151 60.0987 60.103 60.4933 60.0284 60.888C59.9644 61.272 59.8737 61.6507 59.7564 62.024C59.639 62.3973 59.4844 62.7387 59.2924 63.048H62.2044ZM71.521 58.536C71.5103 58.8453 71.4943 59.176 71.473 59.528C71.4623 59.8693 71.4357 60.216 71.393 60.568C71.3503 60.9093 71.2917 61.2453 71.217 61.576C71.153 61.9067 71.0677 62.216 70.961 62.504C70.833 62.8453 70.6677 63.1653 70.465 63.464C70.273 63.752 70.0223 64.0133 69.713 64.248C69.4143 64.4827 69.0463 64.68 68.609 64.84C68.1823 64.9893 67.681 65.0907 67.105 65.144L66.785 63.16C67.329 63.0533 67.7503 62.904 68.049 62.712C68.3477 62.5093 68.5717 62.2533 68.721 61.944C68.8383 61.6773 68.929 61.368 68.993 61.016C69.0677 60.664 69.121 60.296 69.153 59.912C69.185 59.5173 69.201 59.1173 69.201 58.712C69.2117 58.3067 69.217 57.9173 69.217 57.544V56.584H75.537V65H73.153V58.536H71.521ZM80.9923 63.336C81.2269 63.336 81.4509 63.3307 81.6643 63.32C81.8776 63.3093 82.0483 63.2933 82.1763 63.272V61.464C82.0803 61.4427 81.9363 61.4213 81.7443 61.4C81.5523 61.3787 81.3763 61.368 81.2163 61.368C80.9923 61.368 80.7789 61.384 80.5763 61.416C80.3843 61.4373 80.2136 61.4853 80.0643 61.56C79.9149 61.6347 79.7976 61.736 79.7123 61.864C79.6269 61.992 79.5843 62.152 79.5843 62.344C79.5843 62.7173 79.7069 62.9787 79.9523 63.128C80.2083 63.2667 80.5549 63.336 80.9923 63.336ZM80.8003 56.36C81.5043 56.36 82.0909 56.44 82.5603 56.6C83.0296 56.76 83.4029 56.9893 83.6803 57.288C83.9683 57.5867 84.1709 57.9493 84.2883 58.376C84.4056 58.8027 84.4643 59.2773 84.4643 59.8V64.76C84.1229 64.8347 83.6483 64.92 83.0403 65.016C82.4323 65.1227 81.6963 65.176 80.8323 65.176C80.2883 65.176 79.7923 65.128 79.3443 65.032C78.9069 64.936 78.5283 64.7813 78.2083 64.568C77.8883 64.344 77.6429 64.056 77.4723 63.704C77.3016 63.352 77.2163 62.92 77.2163 62.408C77.2163 61.9173 77.3123 61.5013 77.5043 61.16C77.7069 60.8187 77.9736 60.5467 78.3043 60.344C78.6349 60.1413 79.0136 59.9973 79.4403 59.912C79.8669 59.816 80.3096 59.768 80.7682 59.768C81.0776 59.768 81.3496 59.784 81.5843 59.816C81.8296 59.8373 82.0269 59.8693 82.1763 59.912V59.688C82.1763 59.2827 82.0536 58.9573 81.8083 58.712C81.5629 58.4667 81.1363 58.344 80.5283 58.344C80.1229 58.344 79.7229 58.376 79.3283 58.44C78.9336 58.4933 78.5923 58.5733 78.3043 58.68L78.0003 56.76C78.1389 56.7173 78.3096 56.6747 78.5123 56.632C78.7256 56.5787 78.9549 56.536 79.2003 56.504C79.4456 56.4613 79.7016 56.4293 79.9683 56.408C80.2456 56.376 80.5229 56.36 80.8003 56.36ZM92.588 58.536H89.004V65H86.62V56.584H92.588V58.536ZM97.086 63.336C97.3207 63.336 97.5447 63.3307 97.758 63.32C97.9713 63.3093 98.142 63.2933 98.27 63.272V61.464C98.174 61.4427 98.03 61.4213 97.838 61.4C97.646 61.3787 97.47 61.368 97.31 61.368C97.086 61.368 96.8727 61.384 96.67 61.416C96.478 61.4373 96.3073 61.4853 96.158 61.56C96.0087 61.6347 95.8913 61.736 95.806 61.864C95.7207 61.992 95.678 62.152 95.678 62.344C95.678 62.7173 95.8007 62.9787 96.046 63.128C96.302 63.2667 96.6487 63.336 97.086 63.336ZM96.894 56.36C97.598 56.36 98.1847 56.44 98.654 56.6C99.1233 56.76 99.4967 56.9893 99.774 57.288C100.062 57.5867 100.265 57.9493 100.382 58.376C100.499 58.8027 100.558 59.2773 100.558 59.8V64.76C100.217 64.8347 99.742 64.92 99.134 65.016C98.526 65.1227 97.79 65.176 96.926 65.176C96.382 65.176 95.886 65.128 95.438 65.032C95.0007 64.936 94.622 64.7813 94.302 64.568C93.982 64.344 93.7367 64.056 93.566 63.704C93.3953 63.352 93.31 62.92 93.31 62.408C93.31 61.9173 93.406 61.5013 93.598 61.16C93.8007 60.8187 94.0673 60.5467 94.398 60.344C94.7287 60.1413 95.1073 59.9973 95.534 59.912C95.9607 59.816 96.4033 59.768 96.862 59.768C97.1713 59.768 97.4433 59.784 97.678 59.816C97.9233 59.8373 98.1207 59.8693 98.27 59.912V59.688C98.27 59.2827 98.1473 58.9573 97.902 58.712C97.6567 58.4667 97.23 58.344 96.622 58.344C96.2167 58.344 95.8167 58.376 95.422 58.44C95.0273 58.4933 94.686 58.5733 94.398 58.68L94.094 56.76C94.2327 56.7173 94.4033 56.6747 94.606 56.632C94.8193 56.5787 95.0487 56.536 95.294 56.504C95.5393 56.4613 95.7953 56.4293 96.062 56.408C96.3393 56.376 96.6167 56.36 96.894 56.36ZM102.314 60.856C102.314 60.1093 102.426 59.4587 102.65 58.904C102.884 58.3387 103.188 57.8693 103.562 57.496C103.935 57.1227 104.362 56.84 104.842 56.648C105.332 56.456 105.834 56.36 106.346 56.36C107.54 56.36 108.484 56.728 109.178 57.464C109.871 58.1893 110.218 59.2613 110.218 60.68C110.218 60.8187 110.212 60.9733 110.202 61.144C110.191 61.304 110.18 61.448 110.17 61.576H104.762C104.815 62.0667 105.044 62.456 105.45 62.744C105.855 63.032 106.399 63.176 107.082 63.176C107.519 63.176 107.946 63.1387 108.362 63.064C108.788 62.9787 109.135 62.8773 109.402 62.76L109.722 64.696C109.594 64.76 109.423 64.824 109.21 64.888C108.996 64.952 108.756 65.0053 108.49 65.048C108.234 65.1013 107.956 65.144 107.658 65.176C107.359 65.208 107.06 65.224 106.762 65.224C106.004 65.224 105.343 65.112 104.778 64.888C104.223 64.664 103.759 64.36 103.386 63.976C103.023 63.5813 102.751 63.1173 102.57 62.584C102.399 62.0507 102.314 61.4747 102.314 60.856ZM107.914 59.944C107.903 59.7413 107.866 59.544 107.802 59.352C107.748 59.16 107.658 58.9893 107.53 58.84C107.412 58.6907 107.258 58.568 107.066 58.472C106.884 58.376 106.655 58.328 106.378 58.328C106.111 58.328 105.882 58.376 105.69 58.472C105.498 58.5573 105.338 58.6747 105.21 58.824C105.082 58.9733 104.98 59.1493 104.906 59.352C104.842 59.544 104.794 59.7413 104.762 59.944H107.914ZM119.017 58.536H116.33V65H113.946V58.536H111.258V56.584H119.017V58.536ZM131.556 56.584V65H129.172V58.568H126.692V65H124.308V56.584H131.556ZM141.664 60.776C141.664 61.4373 141.568 62.0453 141.376 62.6C141.184 63.144 140.907 63.6133 140.544 64.008C140.181 64.392 139.744 64.6907 139.232 64.904C138.731 65.1173 138.165 65.224 137.536 65.224C136.917 65.224 136.352 65.1173 135.84 64.904C135.339 64.6907 134.907 64.392 134.544 64.008C134.181 63.6133 133.899 63.144 133.696 62.6C133.493 62.0453 133.392 61.4373 133.392 60.776C133.392 60.1147 133.493 59.512 133.696 58.968C133.909 58.424 134.197 57.96 134.56 57.576C134.933 57.192 135.371 56.8933 135.872 56.68C136.384 56.4667 136.939 56.36 137.536 56.36C138.144 56.36 138.699 56.4667 139.2 56.68C139.712 56.8933 140.149 57.192 140.512 57.576C140.875 57.96 141.157 58.424 141.36 58.968C141.563 59.512 141.664 60.1147 141.664 60.776ZM139.232 60.776C139.232 60.04 139.083 59.464 138.784 59.048C138.496 58.6213 138.08 58.408 137.536 58.408C136.992 58.408 136.571 58.6213 136.272 59.048C135.973 59.464 135.824 60.04 135.824 60.776C135.824 61.512 135.973 62.0987 136.272 62.536C136.571 62.9627 136.992 63.176 137.536 63.176C138.08 63.176 138.496 62.9627 138.784 62.536C139.083 62.0987 139.232 61.512 139.232 60.776ZM147.287 58.536C147.276 58.8453 147.26 59.176 147.239 59.528C147.228 59.8693 147.201 60.216 147.159 60.568C147.116 60.9093 147.057 61.2453 146.983 61.576C146.919 61.9067 146.833 62.216 146.727 62.504C146.599 62.8453 146.433 63.1653 146.231 63.464C146.039 63.752 145.788 64.0133 145.479 64.248C145.18 64.4827 144.812 64.68 144.375 64.84C143.948 64.9893 143.447 65.0907 142.871 65.144L142.551 63.16C143.095 63.0533 143.516 62.904 143.815 62.712C144.113 62.5093 144.337 62.2533 144.487 61.944C144.604 61.6773 144.695 61.368 144.759 61.016C144.833 60.664 144.887 60.296 144.919 59.912C144.951 59.5173 144.967 59.1173 144.967 58.712C144.977 58.3067 144.983 57.9173 144.983 57.544V56.584H151.303V65H148.919V58.536H147.287ZM160.79 65H158.406V61.672H155.926V65H153.542V56.584H155.926V59.72H158.406V56.584H160.79V65ZM173.97 65H171.586V56.584H173.97V65ZM166.594 63.336C167.032 63.336 167.373 63.256 167.618 63.096C167.874 62.9253 168.002 62.6533 168.002 62.28C168.002 62.088 167.96 61.928 167.874 61.8C167.789 61.6613 167.672 61.5547 167.522 61.48C167.373 61.3947 167.197 61.336 166.994 61.304C166.802 61.272 166.594 61.256 166.37 61.256C166.21 61.256 166.034 61.2667 165.842 61.288C165.65 61.3093 165.506 61.3307 165.41 61.352V63.272C165.538 63.2933 165.709 63.3093 165.922 63.32C166.136 63.3307 166.36 63.336 166.594 63.336ZM165.41 59.576C165.56 59.5333 165.752 59.5013 165.986 59.48C166.232 59.448 166.509 59.432 166.818 59.432C167.309 59.432 167.768 59.4907 168.194 59.608C168.632 59.7253 169.01 59.9067 169.33 60.152C169.65 60.3867 169.901 60.6907 170.082 61.064C170.274 61.4267 170.37 61.8533 170.37 62.344C170.37 62.8347 170.285 63.2613 170.114 63.624C169.944 63.976 169.698 64.2693 169.378 64.504C169.058 64.728 168.674 64.8933 168.226 65C167.789 65.1173 167.298 65.176 166.754 65.176C166.05 65.176 165.405 65.1387 164.818 65.064C164.232 65 163.634 64.8933 163.026 64.744V56.584H165.41V59.576ZM183.878 56.584V65H181.478C181.478 64.4667 181.483 63.9387 181.494 63.416C181.504 62.8827 181.515 62.392 181.526 61.944C181.536 61.496 181.547 61.1067 181.558 60.776C181.579 60.4347 181.59 60.184 181.59 60.024C181.28 60.4613 180.971 60.904 180.662 61.352C180.352 61.8 180.054 62.2427 179.766 62.68C179.488 63.1067 179.222 63.5173 178.966 63.912C178.72 64.3067 178.502 64.6693 178.31 65H176.214V56.584H178.598C178.598 57.1173 178.592 57.6293 178.582 58.12C178.582 58.6 178.576 59.0373 178.566 59.432C178.555 59.8267 178.544 60.1733 178.534 60.472C178.523 60.76 178.518 60.984 178.518 61.144C179.158 60.2053 179.744 59.3627 180.278 58.616C180.822 57.8693 181.35 57.192 181.862 56.584H183.878ZM180.086 55.432C179.744 55.432 179.414 55.384 179.094 55.288C178.784 55.1813 178.502 55.032 178.246 54.84C177.99 54.6373 177.776 54.3973 177.606 54.12C177.446 53.832 177.35 53.5067 177.318 53.144L178.966 52.712C179.051 53.1173 179.19 53.4053 179.382 53.576C179.584 53.7467 179.819 53.832 180.086 53.832C180.363 53.832 180.598 53.7573 180.79 53.608C180.992 53.448 181.136 53.1547 181.222 52.728L182.854 53.16C182.822 53.5227 182.72 53.848 182.55 54.136C182.39 54.4133 182.182 54.648 181.926 54.84C181.68 55.032 181.398 55.1813 181.078 55.288C180.758 55.384 180.427 55.432 180.086 55.432ZM192.348 59.528C192.582 59.304 192.828 59.0587 193.084 58.792C193.35 58.5253 193.606 58.264 193.852 58.008C194.097 57.7413 194.332 57.4853 194.556 57.24C194.78 56.9947 194.977 56.776 195.148 56.584H198.044C197.83 56.808 197.564 57.0853 197.244 57.416C196.934 57.7467 196.604 58.0933 196.252 58.456C195.9 58.808 195.542 59.16 195.18 59.512C194.828 59.864 194.492 60.1787 194.172 60.456C194.492 60.7013 194.833 61.0053 195.196 61.368C195.558 61.7307 195.91 62.12 196.252 62.536C196.604 62.952 196.934 63.3733 197.244 63.8C197.564 64.2267 197.836 64.6267 198.06 65H195.34C195.148 64.712 194.929 64.4133 194.684 64.104C194.438 63.784 194.182 63.4747 193.916 63.176C193.649 62.8667 193.377 62.5787 193.1 62.312C192.833 62.0453 192.582 61.816 192.348 61.624V65H189.964V56.584H192.348V59.528ZM206.633 60.776C206.633 61.4373 206.537 62.0453 206.345 62.6C206.153 63.144 205.875 63.6133 205.513 64.008C205.15 64.392 204.713 64.6907 204.201 64.904C203.699 65.1173 203.134 65.224 202.505 65.224C201.886 65.224 201.321 65.1173 200.809 64.904C200.307 64.6907 199.875 64.392 199.513 64.008C199.15 63.6133 198.867 63.144 198.665 62.6C198.462 62.0453 198.361 61.4373 198.361 60.776C198.361 60.1147 198.462 59.512 198.665 58.968C198.878 58.424 199.166 57.96 199.529 57.576C199.902 57.192 200.339 56.8933 200.841 56.68C201.353 56.4667 201.907 56.36 202.505 56.36C203.113 56.36 203.667 56.4667 204.169 56.68C204.681 56.8933 205.118 57.192 205.481 57.576C205.843 57.96 206.126 58.424 206.329 58.968C206.531 59.512 206.633 60.1147 206.633 60.776ZM204.201 60.776C204.201 60.04 204.051 59.464 203.753 59.048C203.465 58.6213 203.049 58.408 202.505 58.408C201.961 58.408 201.539 58.6213 201.241 59.048C200.942 59.464 200.793 60.04 200.793 60.776C200.793 61.512 200.942 62.0987 201.241 62.536C201.539 62.9627 201.961 63.176 202.505 63.176C203.049 63.176 203.465 62.9627 203.753 62.536C204.051 62.0987 204.201 61.512 204.201 60.776ZM210.847 60.152C210.826 60.5253 210.805 60.9307 210.783 61.368C210.762 61.8053 210.741 62.248 210.719 62.696C210.709 63.1333 210.693 63.5547 210.671 63.96C210.661 64.3547 210.65 64.7013 210.639 65H208.319C208.341 64.4133 208.373 63.752 208.415 63.016C208.469 62.28 208.522 61.5333 208.575 60.776C208.639 60.008 208.703 59.2613 208.767 58.536C208.842 57.8107 208.911 57.16 208.975 56.584H210.959C211.418 57.3307 211.839 58.104 212.223 58.904C212.607 59.704 213.013 60.584 213.439 61.544C213.887 60.52 214.325 59.576 214.751 58.712C215.178 57.8373 215.562 57.128 215.903 56.584H217.919C217.994 57.16 218.063 57.8107 218.127 58.536C218.202 59.2613 218.266 60.008 218.319 60.776C218.383 61.5333 218.437 62.28 218.479 63.016C218.522 63.752 218.554 64.4133 218.575 65H216.207C216.186 64.168 216.154 63.3413 216.111 62.52C216.079 61.6987 216.047 60.904 216.015 60.136L214.255 64.008H212.607L210.847 60.152ZM227.899 56.584V65H225.515V58.568H223.035V65H220.651V56.584H227.899ZM233.912 58.536C233.901 58.8453 233.885 59.176 233.864 59.528C233.853 59.8693 233.826 60.216 233.784 60.568C233.741 60.9093 233.682 61.2453 233.608 61.576C233.544 61.9067 233.458 62.216 233.352 62.504C233.224 62.8453 233.058 63.1653 232.856 63.464C232.664 63.752 232.413 64.0133 232.104 64.248C231.805 64.4827 231.437 64.68 231 64.84C230.573 64.9893 230.072 65.0907 229.496 65.144L229.176 63.16C229.72 63.0533 230.141 62.904 230.44 62.712C230.738 62.5093 230.962 62.2533 231.112 61.944C231.229 61.6773 231.32 61.368 231.384 61.016C231.458 60.664 231.512 60.296 231.544 59.912C231.576 59.5173 231.592 59.1173 231.592 58.712C231.602 58.3067 231.608 57.9173 231.608 57.544V56.584H237.928V65H235.544V58.536H233.912ZM239.767 60.856C239.767 60.1093 239.879 59.4587 240.103 58.904C240.338 58.3387 240.642 57.8693 241.015 57.496C241.388 57.1227 241.815 56.84 242.295 56.648C242.786 56.456 243.287 56.36 243.799 56.36C244.994 56.36 245.938 56.728 246.631 57.464C247.324 58.1893 247.671 59.2613 247.671 60.68C247.671 60.8187 247.666 60.9733 247.655 61.144C247.644 61.304 247.634 61.448 247.623 61.576H242.215C242.268 62.0667 242.498 62.456 242.903 62.744C243.308 63.032 243.852 63.176 244.535 63.176C244.972 63.176 245.399 63.1387 245.815 63.064C246.242 62.9787 246.588 62.8773 246.855 62.76L247.175 64.696C247.047 64.76 246.876 64.824 246.663 64.888C246.45 64.952 246.21 65.0053 245.943 65.048C245.687 65.1013 245.41 65.144 245.111 65.176C244.812 65.208 244.514 65.224 244.215 65.224C243.458 65.224 242.796 65.112 242.231 64.888C241.676 64.664 241.212 64.36 240.839 63.976C240.476 63.5813 240.204 63.1173 240.023 62.584C239.852 62.0507 239.767 61.4747 239.767 60.856ZM245.367 59.944C245.356 59.7413 245.319 59.544 245.255 59.352C245.202 59.16 245.111 58.9893 244.983 58.84C244.866 58.6907 244.711 58.568 244.519 58.472C244.338 58.376 244.108 58.328 243.831 58.328C243.564 58.328 243.335 58.376 243.143 58.472C242.951 58.5573 242.791 58.6747 242.663 58.824C242.535 58.9733 242.434 59.1493 242.359 59.352C242.295 59.544 242.247 59.7413 242.215 59.944H245.367ZM251.895 59.528C252.129 59.304 252.375 59.0587 252.631 58.792C252.897 58.5253 253.153 58.264 253.399 58.008C253.644 57.7413 253.879 57.4853 254.103 57.24C254.327 56.9947 254.524 56.776 254.695 56.584H257.591C257.377 56.808 257.111 57.0853 256.791 57.416C256.481 57.7467 256.151 58.0933 255.799 58.456C255.447 58.808 255.089 59.16 254.727 59.512C254.375 59.864 254.039 60.1787 253.719 60.456C254.039 60.7013 254.38 61.0053 254.743 61.368C255.105 61.7307 255.457 62.12 255.799 62.536C256.151 62.952 256.481 63.3733 256.791 63.8C257.111 64.2267 257.383 64.6267 257.607 65H254.887C254.695 64.712 254.476 64.4133 254.231 64.104C253.985 63.784 253.729 63.4747 253.463 63.176C253.196 62.8667 252.924 62.5787 252.647 62.312C252.38 62.0453 252.129 61.816 251.895 61.624V65H249.511V56.584H251.895V59.528ZM258.204 60.792C258.204 60.184 258.3 59.6133 258.492 59.08C258.695 58.536 258.983 58.0667 259.356 57.672C259.73 57.2667 260.183 56.9467 260.716 56.712C261.25 56.4773 261.858 56.36 262.54 56.36C262.988 56.36 263.399 56.4027 263.772 56.488C264.146 56.5627 264.508 56.6747 264.86 56.824L264.364 58.728C264.14 58.6427 263.895 58.568 263.628 58.504C263.362 58.44 263.063 58.408 262.732 58.408C262.028 58.408 261.5 58.6267 261.148 59.064C260.807 59.5013 260.636 60.0773 260.636 60.792C260.636 61.5493 260.796 62.136 261.116 62.552C261.447 62.968 262.018 63.176 262.828 63.176C263.116 63.176 263.426 63.1493 263.756 63.096C264.087 63.0427 264.391 62.9573 264.668 62.84L265.004 64.792C264.727 64.9093 264.38 65.0107 263.964 65.096C263.548 65.1813 263.09 65.224 262.588 65.224C261.82 65.224 261.159 65.112 260.604 64.888C260.05 64.6533 259.591 64.3387 259.228 63.944C258.876 63.5493 258.615 63.0853 258.444 62.552C258.284 62.008 258.204 61.4213 258.204 60.792ZM35.592 78.584C35.112 80.2053 34.6107 81.7253 34.088 83.144C33.5653 84.5627 32.9947 85.9387 32.376 87.272C32.152 87.752 31.928 88.1573 31.704 88.488C31.48 88.8293 31.2347 89.1067 30.968 89.32C30.7013 89.544 30.3973 89.704 30.056 89.8C29.7253 89.9067 29.336 89.96 28.888 89.96C28.5147 89.96 28.168 89.9227 27.848 89.848C27.5387 89.784 27.2827 89.7093 27.08 89.624L27.496 87.72C27.7413 87.8053 27.96 87.864 28.152 87.896C28.344 87.928 28.5467 87.944 28.76 87.944C29.1867 87.944 29.512 87.8267 29.736 87.592C29.9707 87.368 30.168 87.0533 30.328 86.648C29.784 85.5813 29.24 84.3867 28.696 83.064C28.152 81.7307 27.64 80.2373 27.16 78.584H29.688C29.7947 79 29.9173 79.4533 30.056 79.944C30.2053 80.424 30.36 80.9147 30.52 81.416C30.68 81.9067 30.84 82.3867 31 82.856C31.1707 83.3253 31.3307 83.752 31.48 84.136C31.6187 83.752 31.7627 83.3253 31.912 82.856C32.0613 82.3867 32.2053 81.9067 32.344 81.416C32.4933 80.9147 32.632 80.424 32.76 79.944C32.8987 79.4533 33.0213 79 33.128 78.584H35.592ZM36.47 82.792C36.47 82.184 36.566 81.6133 36.758 81.08C36.9607 80.536 37.2487 80.0667 37.622 79.672C37.9953 79.2667 38.4487 78.9467 38.982 78.712C39.5153 78.4773 40.1233 78.36 40.806 78.36C41.254 78.36 41.6647 78.4027 42.038 78.488C42.4113 78.5627 42.774 78.6747 43.126 78.824L42.63 80.728C42.406 80.6427 42.1607 80.568 41.894 80.504C41.6273 80.44 41.3287 80.408 40.998 80.408C40.294 80.408 39.766 80.6267 39.414 81.064C39.0727 81.5013 38.902 82.0773 38.902 82.792C38.902 83.5493 39.062 84.136 39.382 84.552C39.7127 84.968 40.2833 85.176 41.094 85.176C41.382 85.176 41.6913 85.1493 42.022 85.096C42.3527 85.0427 42.6567 84.9573 42.934 84.84L43.27 86.792C42.9927 86.9093 42.646 87.0107 42.23 87.096C41.814 87.1813 41.3553 87.224 40.854 87.224C40.086 87.224 39.4247 87.112 38.87 86.888C38.3153 86.6533 37.8567 86.3387 37.494 85.944C37.142 85.5493 36.8807 85.0853 36.71 84.552C36.55 84.008 36.47 83.4213 36.47 82.792ZM48.646 80.536C48.6353 80.8453 48.6193 81.176 48.598 81.528C48.5873 81.8693 48.5607 82.216 48.518 82.568C48.4753 82.9093 48.4167 83.2453 48.342 83.576C48.278 83.9067 48.1927 84.216 48.086 84.504C47.958 84.8453 47.7927 85.1653 47.59 85.464C47.398 85.752 47.1473 86.0133 46.838 86.248C46.5393 86.4827 46.1713 86.68 45.734 86.84C45.3073 86.9893 44.806 87.0907 44.23 87.144L43.91 85.16C44.454 85.0533 44.8753 84.904 45.174 84.712C45.4727 84.5093 45.6967 84.2533 45.846 83.944C45.9633 83.6773 46.054 83.368 46.118 83.016C46.1927 82.664 46.246 82.296 46.278 81.912C46.31 81.5173 46.326 81.1173 46.326 80.712C46.3367 80.3067 46.342 79.9173 46.342 79.544V78.584H52.662V87H50.278V80.536H48.646ZM62.3733 78.584C61.8933 80.2053 61.3919 81.7253 60.8693 83.144C60.3466 84.5627 59.7759 85.9387 59.1573 87.272C58.9333 87.752 58.7093 88.1573 58.4852 88.488C58.2613 88.8293 58.0159 89.1067 57.7493 89.32C57.4826 89.544 57.1786 89.704 56.8373 89.8C56.5066 89.9067 56.1173 89.96 55.6693 89.96C55.2959 89.96 54.9493 89.9227 54.6293 89.848C54.3199 89.784 54.0639 89.7093 53.8613 89.624L54.2773 87.72C54.5226 87.8053 54.7413 87.864 54.9333 87.896C55.1253 87.928 55.3279 87.944 55.5413 87.944C55.9679 87.944 56.2933 87.8267 56.5173 87.592C56.7519 87.368 56.9493 87.0533 57.1093 86.648C56.5653 85.5813 56.0213 84.3867 55.4773 83.064C54.9333 81.7307 54.4213 80.2373 53.9413 78.584H56.4693C56.5759 79 56.6986 79.4533 56.8373 79.944C56.9866 80.424 57.1413 80.9147 57.3013 81.416C57.4613 81.9067 57.6213 82.3867 57.7812 82.856C57.9519 83.3253 58.1119 83.752 58.2613 84.136C58.3999 83.752 58.5439 83.3253 58.6933 82.856C58.8426 82.3867 58.9866 81.9067 59.1253 81.416C59.2746 80.9147 59.4133 80.424 59.5413 79.944C59.6799 79.4533 59.8026 79 59.9093 78.584H62.3733ZM69.6193 80.536H66.0353V87H63.6513V78.584H69.6193V80.536ZM77.129 85.24C77.2783 85.2613 77.4757 85.2827 77.721 85.304C77.977 85.3147 78.2117 85.32 78.425 85.32C78.9583 85.32 79.3743 85.256 79.673 85.128C79.9717 84.9893 80.121 84.744 80.121 84.392C80.121 84.0507 79.9823 83.816 79.705 83.688C79.4383 83.5493 79.0437 83.48 78.521 83.48H77.129V85.24ZM78.473 81.88C78.8677 81.88 79.1877 81.832 79.433 81.736C79.6783 81.6293 79.801 81.4053 79.801 81.064C79.801 80.744 79.6623 80.5253 79.385 80.408C79.1077 80.2907 78.745 80.232 78.297 80.232C78.1477 80.232 77.9503 80.2427 77.705 80.264C77.4703 80.2747 77.2783 80.2907 77.129 80.312V81.88H78.473ZM78.393 87.16C78.0943 87.16 77.7743 87.1493 77.433 87.128C77.0917 87.1067 76.7557 87.0747 76.425 87.032C76.0943 87 75.7797 86.9627 75.481 86.92C75.193 86.8667 74.9477 86.8187 74.745 86.776V78.712C74.9477 78.6693 75.193 78.632 75.481 78.6C75.7797 78.5573 76.0943 78.52 76.425 78.488C76.7557 78.456 77.0917 78.4347 77.433 78.424C77.7743 78.4027 78.0943 78.392 78.393 78.392C79.0863 78.392 79.6677 78.4613 80.137 78.6C80.617 78.7387 81.001 78.92 81.289 79.144C81.5877 79.368 81.801 79.6187 81.929 79.896C82.057 80.1733 82.121 80.4507 82.121 80.728C82.121 81.1013 82.0303 81.4427 81.849 81.752C81.6677 82.0613 81.4383 82.2853 81.161 82.424C81.3103 82.488 81.4597 82.5787 81.609 82.696C81.769 82.8133 81.913 82.9573 82.041 83.128C82.169 83.288 82.2703 83.4853 82.345 83.72C82.4303 83.944 82.473 84.2053 82.473 84.504C82.473 84.8453 82.4037 85.176 82.265 85.496C82.137 85.816 81.913 86.0987 81.593 86.344C81.273 86.5893 80.8517 86.7867 80.329 86.936C79.8063 87.0853 79.161 87.16 78.393 87.16ZM96.0233 82.776C96.0233 83.4373 95.9273 84.0453 95.7353 84.6C95.5433 85.144 95.2659 85.6133 94.9033 86.008C94.5406 86.392 94.1033 86.6907 93.5913 86.904C93.0899 87.1173 92.5246 87.224 91.8953 87.224C91.2766 87.224 90.7113 87.1173 90.1993 86.904C89.6979 86.6907 89.2659 86.392 88.9033 86.008C88.5406 85.6133 88.2579 85.144 88.0553 84.6C87.8526 84.0453 87.7513 83.4373 87.7513 82.776C87.7513 82.1147 87.8526 81.512 88.0553 80.968C88.2686 80.424 88.5566 79.96 88.9193 79.576C89.2926 79.192 89.7299 78.8933 90.2313 78.68C90.7433 78.4667 91.2979 78.36 91.8953 78.36C92.5033 78.36 93.0579 78.4667 93.5593 78.68C94.0713 78.8933 94.5086 79.192 94.8713 79.576C95.2339 79.96 95.5166 80.424 95.7193 80.968C95.9219 81.512 96.0233 82.1147 96.0233 82.776ZM93.5913 82.776C93.5913 82.04 93.4419 81.464 93.1433 81.048C92.8553 80.6213 92.4393 80.408 91.8953 80.408C91.3513 80.408 90.9299 80.6213 90.6313 81.048C90.3326 81.464 90.1833 82.04 90.1833 82.776C90.1833 83.512 90.3326 84.0987 90.6313 84.536C90.9299 84.9627 91.3513 85.176 91.8953 85.176C92.4393 85.176 92.8553 84.9627 93.1433 84.536C93.4419 84.0987 93.5913 83.512 93.5913 82.776ZM105.214 76.616C104.819 76.7013 104.446 76.76 104.094 76.792C103.742 76.824 103.379 76.872 103.006 76.936C102.686 76.9893 102.366 77.0693 102.046 77.176C101.726 77.2827 101.427 77.432 101.15 77.624C100.883 77.8053 100.649 78.04 100.446 78.328C100.243 78.6053 100.099 78.952 100.014 79.368C100.707 79.0373 101.379 78.872 102.03 78.872C102.542 78.872 103.017 78.9573 103.454 79.128C103.891 79.2987 104.27 79.5547 104.59 79.896C104.921 80.2373 105.177 80.664 105.358 81.176C105.55 81.6773 105.646 82.264 105.646 82.936C105.646 83.6613 105.539 84.2907 105.326 84.824C105.113 85.3573 104.819 85.8053 104.446 86.168C104.083 86.52 103.657 86.7867 103.166 86.968C102.686 87.1387 102.169 87.224 101.614 87.224C100.131 87.224 99.07 86.776 98.43 85.88C97.79 84.9733 97.47 83.6453 97.47 81.896C97.47 80.744 97.582 79.768 97.806 78.968C98.03 78.1573 98.366 77.4853 98.814 76.952C99.262 76.408 99.8167 75.9813 100.478 75.672C101.139 75.3627 101.907 75.1173 102.782 74.936C103.134 74.8613 103.486 74.808 103.838 74.776C104.201 74.7333 104.569 74.6693 104.942 74.584L105.214 76.616ZM99.966 81.32C99.9447 81.4693 99.9287 81.64 99.918 81.832C99.918 82.024 99.918 82.1947 99.918 82.344C99.918 83.2827 100.046 83.992 100.302 84.472C100.569 84.952 101.011 85.192 101.63 85.192C102.153 85.192 102.553 84.9893 102.83 84.584C103.107 84.1787 103.246 83.6347 103.246 82.952C103.246 82.6853 103.214 82.4293 103.15 82.184C103.086 81.928 102.985 81.704 102.846 81.512C102.707 81.32 102.537 81.1653 102.334 81.048C102.131 80.9307 101.891 80.872 101.614 80.872C101.337 80.872 101.043 80.904 100.734 80.968C100.435 81.032 100.179 81.1493 99.966 81.32ZM111.255 80.536C111.245 80.8453 111.229 81.176 111.207 81.528C111.197 81.8693 111.17 82.216 111.127 82.568C111.085 82.9093 111.026 83.2453 110.951 83.576C110.887 83.9067 110.802 84.216 110.695 84.504C110.567 84.8453 110.402 85.1653 110.199 85.464C110.007 85.752 109.757 86.0133 109.447 86.248C109.149 86.4827 108.781 86.68 108.343 86.84C107.917 86.9893 107.415 87.0907 106.839 87.144L106.519 85.16C107.063 85.0533 107.485 84.904 107.783 84.712C108.082 84.5093 108.306 84.2533 108.455 83.944C108.573 83.6773 108.663 83.368 108.727 83.016C108.802 82.664 108.855 82.296 108.887 81.912C108.919 81.5173 108.935 81.1173 108.935 80.712C108.946 80.3067 108.951 79.9173 108.951 79.544V78.584H115.271V87H112.887V80.536H111.255ZM120.727 85.336C120.961 85.336 121.185 85.3307 121.399 85.32C121.612 85.3093 121.783 85.2933 121.911 85.272V83.464C121.815 83.4427 121.671 83.4213 121.479 83.4C121.287 83.3787 121.111 83.368 120.951 83.368C120.727 83.368 120.513 83.384 120.311 83.416C120.119 83.4373 119.948 83.4853 119.799 83.56C119.649 83.6347 119.532 83.736 119.447 83.864C119.361 83.992 119.319 84.152 119.319 84.344C119.319 84.7173 119.441 84.9787 119.687 85.128C119.943 85.2667 120.289 85.336 120.727 85.336ZM120.535 78.36C121.239 78.36 121.825 78.44 122.295 78.6C122.764 78.76 123.137 78.9893 123.415 79.288C123.703 79.5867 123.905 79.9493 124.023 80.376C124.14 80.8027 124.199 81.2773 124.199 81.8V86.76C123.857 86.8347 123.383 86.92 122.775 87.016C122.167 87.1227 121.431 87.176 120.567 87.176C120.023 87.176 119.527 87.128 119.079 87.032C118.641 86.936 118.263 86.7813 117.943 86.568C117.623 86.344 117.377 86.056 117.207 85.704C117.036 85.352 116.951 84.92 116.951 84.408C116.951 83.9173 117.047 83.5013 117.239 83.16C117.441 82.8187 117.708 82.5467 118.039 82.344C118.369 82.1413 118.748 81.9973 119.175 81.912C119.601 81.816 120.044 81.768 120.503 81.768C120.812 81.768 121.084 81.784 121.319 81.816C121.564 81.8373 121.761 81.8693 121.911 81.912V81.688C121.911 81.2827 121.788 80.9573 121.543 80.712C121.297 80.4667 120.871 80.344 120.263 80.344C119.857 80.344 119.457 80.376 119.063 80.44C118.668 80.4933 118.327 80.5733 118.039 80.68L117.735 78.76C117.873 78.7173 118.044 78.6747 118.247 78.632C118.46 78.5787 118.689 78.536 118.935 78.504C119.18 78.4613 119.436 78.4293 119.703 78.408C119.98 78.376 120.257 78.36 120.535 78.36ZM125.954 82.792C125.954 82.184 126.05 81.6133 126.242 81.08C126.445 80.536 126.733 80.0667 127.106 79.672C127.48 79.2667 127.933 78.9467 128.466 78.712C129 78.4773 129.608 78.36 130.29 78.36C130.738 78.36 131.149 78.4027 131.522 78.488C131.896 78.5627 132.258 78.6747 132.61 78.824L132.114 80.728C131.89 80.6427 131.645 80.568 131.378 80.504C131.112 80.44 130.813 80.408 130.482 80.408C129.778 80.408 129.25 80.6267 128.898 81.064C128.557 81.5013 128.386 82.0773 128.386 82.792C128.386 83.5493 128.546 84.136 128.866 84.552C129.197 84.968 129.768 85.176 130.578 85.176C130.866 85.176 131.176 85.1493 131.506 85.096C131.837 85.0427 132.141 84.9573 132.418 84.84L132.754 86.792C132.477 86.9093 132.13 87.0107 131.714 87.096C131.298 87.1813 130.84 87.224 130.338 87.224C129.57 87.224 128.909 87.112 128.354 86.888C127.8 86.6533 127.341 86.3387 126.978 85.944C126.626 85.5493 126.365 85.0853 126.194 84.552C126.034 84.008 125.954 83.4213 125.954 82.792ZM141.314 80.536H138.626V87H136.242V80.536H133.554V78.584H141.314V80.536ZM150.425 78.584V87H148.025C148.025 86.4667 148.03 85.9387 148.041 85.416C148.051 84.8827 148.062 84.392 148.073 83.944C148.083 83.496 148.094 83.1067 148.105 82.776C148.126 82.4347 148.137 82.184 148.137 82.024C147.827 82.4613 147.518 82.904 147.209 83.352C146.899 83.8 146.601 84.2427 146.313 84.68C146.035 85.1067 145.769 85.5173 145.513 85.912C145.267 86.3067 145.049 86.6693 144.857 87H142.761V78.584H145.145C145.145 79.1173 145.139 79.6293 145.129 80.12C145.129 80.6 145.123 81.0373 145.113 81.432C145.102 81.8267 145.091 82.1733 145.081 82.472C145.07 82.76 145.065 82.984 145.065 83.144C145.705 82.2053 146.291 81.3627 146.825 80.616C147.369 79.8693 147.897 79.192 148.409 78.584H150.425ZM156.111 82.792C156.111 82.184 156.207 81.6133 156.399 81.08C156.601 80.536 156.889 80.0667 157.263 79.672C157.636 79.2667 158.089 78.9467 158.623 78.712C159.156 78.4773 159.764 78.36 160.447 78.36C160.895 78.36 161.305 78.4027 161.679 78.488C162.052 78.5627 162.415 78.6747 162.767 78.824L162.271 80.728C162.047 80.6427 161.801 80.568 161.535 80.504C161.268 80.44 160.969 80.408 160.639 80.408C159.935 80.408 159.407 80.6267 159.055 81.064C158.713 81.5013 158.543 82.0773 158.543 82.792C158.543 83.5493 158.703 84.136 159.023 84.552C159.353 84.968 159.924 85.176 160.735 85.176C161.023 85.176 161.332 85.1493 161.663 85.096C161.993 85.0427 162.297 84.9573 162.575 84.84L162.911 86.792C162.633 86.9093 162.287 87.0107 161.871 87.096C161.455 87.1813 160.996 87.224 160.495 87.224C159.727 87.224 159.065 87.112 158.511 86.888C157.956 86.6533 157.497 86.3387 157.135 85.944C156.783 85.5493 156.521 85.0853 156.351 84.552C156.191 84.008 156.111 83.4213 156.111 82.792ZM171.976 82.776C171.976 83.4373 171.88 84.0453 171.688 84.6C171.496 85.144 171.219 85.6133 170.856 86.008C170.494 86.392 170.056 86.6907 169.544 86.904C169.043 87.1173 168.478 87.224 167.848 87.224C167.23 87.224 166.664 87.1173 166.152 86.904C165.651 86.6907 165.219 86.392 164.856 86.008C164.494 85.6133 164.211 85.144 164.008 84.6C163.806 84.0453 163.704 83.4373 163.704 82.776C163.704 82.1147 163.806 81.512 164.008 80.968C164.222 80.424 164.51 79.96 164.872 79.576C165.246 79.192 165.683 78.8933 166.184 78.68C166.696 78.4667 167.251 78.36 167.848 78.36C168.456 78.36 169.011 78.4667 169.512 78.68C170.024 78.8933 170.462 79.192 170.824 79.576C171.187 79.96 171.47 80.424 171.672 80.968C171.875 81.512 171.976 82.1147 171.976 82.776ZM169.544 82.776C169.544 82.04 169.395 81.464 169.096 81.048C168.808 80.6213 168.392 80.408 167.848 80.408C167.304 80.408 166.883 80.6213 166.584 81.048C166.286 81.464 166.136 82.04 166.136 82.776C166.136 83.512 166.286 84.0987 166.584 84.536C166.883 84.9627 167.304 85.176 167.848 85.176C168.392 85.176 168.808 84.9627 169.096 84.536C169.395 84.0987 169.544 83.512 169.544 82.776ZM173.423 78.856C173.796 78.7173 174.228 78.6053 174.719 78.52C175.21 78.4347 175.743 78.392 176.319 78.392C176.756 78.392 177.183 78.4347 177.599 78.52C178.015 78.5947 178.383 78.728 178.703 78.92C179.034 79.1013 179.295 79.3467 179.487 79.656C179.69 79.9547 179.791 80.3333 179.791 80.792C179.791 81.208 179.695 81.5653 179.503 81.864C179.311 82.152 179.039 82.392 178.687 82.584C179.156 82.7867 179.503 83.0533 179.727 83.384C179.951 83.7147 180.063 84.136 180.063 84.648C180.063 85.128 179.962 85.5333 179.759 85.864C179.556 86.184 179.284 86.4453 178.943 86.648C178.602 86.8507 178.212 86.9947 177.775 87.08C177.338 87.176 176.884 87.224 176.415 87.224C176.138 87.224 175.85 87.208 175.551 87.176C175.252 87.1547 174.959 87.1173 174.671 87.064C174.394 87.0213 174.127 86.9627 173.871 86.888C173.615 86.8133 173.386 86.7333 173.183 86.648L173.615 84.792C173.839 84.8773 174.18 84.9787 174.639 85.096C175.108 85.2133 175.636 85.272 176.223 85.272C177.183 85.272 177.663 85.0053 177.663 84.472C177.663 84.2907 177.626 84.1467 177.551 84.04C177.476 83.9227 177.375 83.832 177.247 83.768C177.13 83.704 176.991 83.6613 176.831 83.64C176.671 83.6187 176.511 83.608 176.351 83.608H174.479V81.912H176.367C176.751 81.912 177.018 81.8373 177.167 81.688C177.327 81.528 177.407 81.3467 177.407 81.144C177.407 80.9413 177.316 80.76 177.135 80.6C176.964 80.4293 176.644 80.344 176.175 80.344C175.706 80.344 175.263 80.3867 174.847 80.472C174.431 80.5573 174.095 80.6373 173.839 80.712L173.423 78.856ZM180.945 85.048H181.985C182.284 84.6853 182.513 84.2373 182.673 83.704C182.844 83.16 182.961 82.5893 183.025 81.992C183.1 81.384 183.142 80.7813 183.153 80.184C183.164 79.5867 183.169 79.0533 183.169 78.584H189.729V85.048H191.153V89.4H189.121V87H182.977V89.4H180.945V85.048ZM187.345 85.048V80.536H185.393C185.372 80.9093 185.345 81.2987 185.313 81.704C185.292 82.0987 185.244 82.4933 185.169 82.888C185.105 83.272 185.014 83.6507 184.897 84.024C184.78 84.3973 184.625 84.7387 184.433 85.048H187.345ZM195.805 85.336C196.039 85.336 196.263 85.3307 196.477 85.32C196.69 85.3093 196.861 85.2933 196.989 85.272V83.464C196.893 83.4427 196.749 83.4213 196.557 83.4C196.365 83.3787 196.189 83.368 196.029 83.368C195.805 83.368 195.591 83.384 195.389 83.416C195.197 83.4373 195.026 83.4853 194.877 83.56C194.727 83.6347 194.61 83.736 194.525 83.864C194.439 83.992 194.397 84.152 194.397 84.344C194.397 84.7173 194.519 84.9787 194.765 85.128C195.021 85.2667 195.367 85.336 195.805 85.336ZM195.613 78.36C196.317 78.36 196.903 78.44 197.373 78.6C197.842 78.76 198.215 78.9893 198.493 79.288C198.781 79.5867 198.983 79.9493 199.101 80.376C199.218 80.8027 199.277 81.2773 199.277 81.8V86.76C198.935 86.8347 198.461 86.92 197.853 87.016C197.245 87.1227 196.509 87.176 195.645 87.176C195.101 87.176 194.605 87.128 194.157 87.032C193.719 86.936 193.341 86.7813 193.021 86.568C192.701 86.344 192.455 86.056 192.285 85.704C192.114 85.352 192.029 84.92 192.029 84.408C192.029 83.9173 192.125 83.5013 192.317 83.16C192.519 82.8187 192.786 82.5467 193.117 82.344C193.447 82.1413 193.826 81.9973 194.253 81.912C194.679 81.816 195.122 81.768 195.581 81.768C195.89 81.768 196.162 81.784 196.397 81.816C196.642 81.8373 196.839 81.8693 196.989 81.912V81.688C196.989 81.2827 196.866 80.9573 196.621 80.712C196.375 80.4667 195.949 80.344 195.341 80.344C194.935 80.344 194.535 80.376 194.141 80.44C193.746 80.4933 193.405 80.5733 193.117 80.68L192.813 78.76C192.951 78.7173 193.122 78.6747 193.325 78.632C193.538 78.5787 193.767 78.536 194.013 78.504C194.258 78.4613 194.514 78.4293 194.781 78.408C195.058 78.376 195.335 78.36 195.613 78.36ZM208.681 87H206.297V83.672H203.817V87H201.433V78.584H203.817V81.72H206.297V78.584H208.681V87ZM218.581 78.584V87H216.181C216.181 86.4667 216.186 85.9387 216.197 85.416C216.208 84.8827 216.218 84.392 216.229 83.944C216.24 83.496 216.25 83.1067 216.261 82.776C216.282 82.4347 216.293 82.184 216.293 82.024C215.984 82.4613 215.674 82.904 215.365 83.352C215.056 83.8 214.757 84.2427 214.469 84.68C214.192 85.1067 213.925 85.5173 213.669 85.912C213.424 86.3067 213.205 86.6693 213.013 87H210.917V78.584H213.301C213.301 79.1173 213.296 79.6293 213.285 80.12C213.285 80.6 213.28 81.0373 213.269 81.432C213.258 81.8267 213.248 82.1733 213.237 82.472C213.226 82.76 213.221 82.984 213.221 83.144C213.861 82.2053 214.448 81.3627 214.981 80.616C215.525 79.8693 216.053 79.192 216.565 78.584H218.581ZM224.311 84.008C223.97 84.5093 223.666 85.016 223.399 85.528C223.132 86.0293 222.876 86.52 222.631 87H220.183C220.492 86.3067 220.807 85.672 221.127 85.096C221.447 84.52 221.756 84.024 222.055 83.608C221.607 83.3733 221.25 83.0747 220.983 82.712C220.716 82.3387 220.583 81.8747 220.583 81.32C220.583 80.3813 220.919 79.6613 221.591 79.16C222.274 78.6587 223.212 78.408 224.407 78.408C224.674 78.408 224.967 78.4187 225.287 78.44C225.618 78.4613 225.943 78.4933 226.263 78.536C226.583 78.5787 226.887 78.6267 227.175 78.68C227.474 78.7227 227.724 78.7707 227.927 78.824V87H225.543V84.008H224.311ZM225.543 80.296C225.436 80.2853 225.271 80.2747 225.047 80.264C224.823 80.2427 224.631 80.232 224.471 80.232C223.884 80.232 223.484 80.3333 223.271 80.536C223.058 80.728 222.951 80.9787 222.951 81.288C222.951 81.48 222.994 81.6453 223.079 81.784C223.164 81.912 223.276 82.0187 223.415 82.104C223.554 82.1787 223.708 82.232 223.879 82.264C224.05 82.296 224.22 82.312 224.391 82.312H225.543V80.296ZM35.368 100.584V109H32.984V102.568H30.504V109H28.12V100.584H35.368ZM42.9964 104.856C42.9964 104.12 42.831 103.533 42.5004 103.096C42.1697 102.648 41.679 102.424 41.0284 102.424C40.815 102.424 40.6177 102.435 40.4364 102.456C40.255 102.467 40.1057 102.483 39.9884 102.504V106.808C40.1377 106.904 40.3297 106.984 40.5644 107.048C40.8097 107.112 41.055 107.144 41.3004 107.144C42.431 107.144 42.9964 106.381 42.9964 104.856ZM45.4284 104.792C45.4284 105.443 45.3484 106.035 45.1884 106.568C45.0284 107.101 44.7937 107.56 44.4844 107.944C44.175 108.328 43.791 108.627 43.3324 108.84C42.8737 109.053 42.3457 109.16 41.7484 109.16C41.4177 109.16 41.1084 109.128 40.8204 109.064C40.5324 109 40.255 108.909 39.9884 108.792V111.96H37.6044V100.872C37.8177 100.808 38.063 100.749 38.3404 100.696C38.6177 100.632 38.9057 100.579 39.2044 100.536C39.5137 100.493 39.823 100.461 40.1324 100.44C40.4524 100.408 40.7564 100.392 41.0444 100.392C41.7377 100.392 42.3564 100.499 42.9004 100.712C43.4444 100.915 43.903 101.208 44.2764 101.592C44.6497 101.965 44.9324 102.424 45.1244 102.968C45.327 103.512 45.4284 104.12 45.4284 104.792ZM55.1326 104.776C55.1326 105.437 55.0366 106.045 54.8446 106.6C54.6526 107.144 54.3753 107.613 54.0126 108.008C53.65 108.392 53.2126 108.691 52.7006 108.904C52.1993 109.117 51.634 109.224 51.0046 109.224C50.386 109.224 49.8206 109.117 49.3086 108.904C48.8073 108.691 48.3753 108.392 48.0126 108.008C47.65 107.613 47.3673 107.144 47.1646 106.6C46.962 106.045 46.8606 105.437 46.8606 104.776C46.8606 104.115 46.962 103.512 47.1646 102.968C47.378 102.424 47.666 101.96 48.0286 101.576C48.402 101.192 48.8393 100.893 49.3406 100.68C49.8526 100.467 50.4073 100.36 51.0046 100.36C51.6126 100.36 52.1673 100.467 52.6686 100.68C53.1806 100.893 53.618 101.192 53.9806 101.576C54.3433 101.96 54.626 102.424 54.8286 102.968C55.0313 103.512 55.1326 104.115 55.1326 104.776ZM52.7006 104.776C52.7006 104.04 52.5513 103.464 52.2526 103.048C51.9646 102.621 51.5486 102.408 51.0046 102.408C50.4606 102.408 50.0393 102.621 49.7406 103.048C49.442 103.464 49.2926 104.04 49.2926 104.776C49.2926 105.512 49.442 106.099 49.7406 106.536C50.0393 106.963 50.4606 107.176 51.0046 107.176C51.5486 107.176 51.9646 106.963 52.2526 106.536C52.5513 106.099 52.7006 105.512 52.7006 104.776ZM56.1794 107.048H57.2194C57.518 106.685 57.7474 106.237 57.9074 105.704C58.078 105.16 58.1954 104.589 58.2594 103.992C58.334 103.384 58.3767 102.781 58.3874 102.184C58.398 101.587 58.4034 101.053 58.4034 100.584H64.9634V107.048H66.3874V111.4H64.3554V109H58.2114V111.4H56.1794V107.048ZM62.5794 107.048V102.536H60.6274C60.606 102.909 60.5794 103.299 60.5474 103.704C60.526 104.099 60.478 104.493 60.4034 104.888C60.3394 105.272 60.2487 105.651 60.1314 106.024C60.014 106.397 59.8594 106.739 59.6674 107.048H62.5794ZM75.6545 100.584C75.1745 102.205 74.6732 103.725 74.1505 105.144C73.6278 106.563 73.0572 107.939 72.4385 109.272C72.2145 109.752 71.9905 110.157 71.7665 110.488C71.5425 110.829 71.2972 111.107 71.0305 111.32C70.7638 111.544 70.4598 111.704 70.1185 111.8C69.7878 111.907 69.3985 111.96 68.9505 111.96C68.5772 111.96 68.2305 111.923 67.9105 111.848C67.6012 111.784 67.3452 111.709 67.1425 111.624L67.5585 109.72C67.8038 109.805 68.0225 109.864 68.2145 109.896C68.4065 109.928 68.6092 109.944 68.8225 109.944C69.2492 109.944 69.5745 109.827 69.7985 109.592C70.0332 109.368 70.2305 109.053 70.3905 108.648C69.8465 107.581 69.3025 106.387 68.7585 105.064C68.2145 103.731 67.7025 102.237 67.2225 100.584H69.7505C69.8572 101 69.9798 101.453 70.1185 101.944C70.2678 102.424 70.4225 102.915 70.5825 103.416C70.7425 103.907 70.9025 104.387 71.0625 104.856C71.2332 105.325 71.3932 105.752 71.5425 106.136C71.6812 105.752 71.8252 105.325 71.9745 104.856C72.1238 104.387 72.2678 103.907 72.4065 103.416C72.5558 102.915 72.6945 102.424 72.8225 101.944C72.9612 101.453 73.0838 101 73.1905 100.584H75.6545ZM79.3165 103.528C79.5512 103.304 79.7965 103.059 80.0525 102.792C80.3192 102.525 80.5752 102.264 80.8205 102.008C81.0658 101.741 81.3005 101.485 81.5245 101.24C81.7485 100.995 81.9458 100.776 82.1165 100.584H85.0125C84.7992 100.808 84.5325 101.085 84.2125 101.416C83.9032 101.747 83.5725 102.093 83.2205 102.456C82.8685 102.808 82.5112 103.16 82.1485 103.512C81.7965 103.864 81.4605 104.179 81.1405 104.456C81.4605 104.701 81.8018 105.005 82.1645 105.368C82.5272 105.731 82.8792 106.12 83.2205 106.536C83.5725 106.952 83.9032 107.373 84.2125 107.8C84.5325 108.227 84.8045 108.627 85.0285 109H82.3085C82.1165 108.712 81.8978 108.413 81.6525 108.104C81.4072 107.784 81.1512 107.475 80.8845 107.176C80.6178 106.867 80.3458 106.579 80.0685 106.312C79.8018 106.045 79.5512 105.816 79.3165 105.624V109H76.9325V100.584H79.3165V103.528ZM93.5555 107.048H94.9795V111.4H92.9475V109H86.3075V100.584H88.6915V107.048H91.1715V100.584H93.5555V107.048ZM104.081 100.584V109H101.681C101.681 108.467 101.686 107.939 101.697 107.416C101.708 106.883 101.718 106.392 101.729 105.944C101.74 105.496 101.75 105.107 101.761 104.776C101.782 104.435 101.793 104.184 101.793 104.024C101.484 104.461 101.174 104.904 100.865 105.352C100.556 105.8 100.257 106.243 99.9689 106.68C99.6915 107.107 99.4249 107.517 99.1689 107.912C98.9235 108.307 98.7049 108.669 98.5129 109H96.4169V100.584H98.8009C98.8009 101.117 98.7955 101.629 98.7849 102.12C98.7849 102.6 98.7795 103.037 98.7689 103.432C98.7582 103.827 98.7475 104.173 98.7369 104.472C98.7262 104.76 98.7209 104.984 98.7209 105.144C99.3609 104.205 99.9475 103.363 100.481 102.616C101.025 101.869 101.553 101.192 102.065 100.584H104.081ZM113.987 100.584V109H111.587C111.587 108.467 111.592 107.939 111.603 107.416C111.614 106.883 111.624 106.392 111.635 105.944C111.646 105.496 111.656 105.107 111.667 104.776C111.688 104.435 111.699 104.184 111.699 104.024C111.39 104.461 111.08 104.904 110.771 105.352C110.462 105.8 110.163 106.243 109.875 106.68C109.598 107.107 109.331 107.517 109.075 107.912C108.83 108.307 108.611 108.669 108.419 109H106.323V100.584H108.707C108.707 101.117 108.702 101.629 108.691 102.12C108.691 102.6 108.686 103.037 108.675 103.432C108.664 103.827 108.654 104.173 108.643 104.472C108.632 104.76 108.627 104.984 108.627 105.144C109.267 104.205 109.854 103.363 110.387 102.616C110.931 101.869 111.459 101.192 111.971 100.584H113.987ZM127.737 100.584V109H125.337C125.337 108.467 125.342 107.939 125.353 107.416C125.364 106.883 125.374 106.392 125.385 105.944C125.396 105.496 125.406 105.107 125.417 104.776C125.438 104.435 125.449 104.184 125.449 104.024C125.14 104.461 124.83 104.904 124.521 105.352C124.212 105.8 123.913 106.243 123.625 106.68C123.348 107.107 123.081 107.517 122.825 107.912C122.58 108.307 122.361 108.669 122.169 109H120.073V100.584H122.457C122.457 101.117 122.452 101.629 122.441 102.12C122.441 102.6 122.436 103.037 122.425 103.432C122.414 103.827 122.404 104.173 122.393 104.472C122.382 104.76 122.377 104.984 122.377 105.144C123.017 104.205 123.604 103.363 124.137 102.616C124.681 101.869 125.209 101.192 125.721 100.584H127.737ZM129.579 100.856C129.953 100.717 130.385 100.605 130.875 100.52C131.366 100.435 131.899 100.392 132.475 100.392C132.913 100.392 133.339 100.435 133.755 100.52C134.171 100.595 134.539 100.728 134.859 100.92C135.19 101.101 135.451 101.347 135.643 101.656C135.846 101.955 135.947 102.333 135.947 102.792C135.947 103.208 135.851 103.565 135.659 103.864C135.467 104.152 135.195 104.392 134.843 104.584C135.313 104.787 135.659 105.053 135.883 105.384C136.107 105.715 136.219 106.136 136.219 106.648C136.219 107.128 136.118 107.533 135.915 107.864C135.713 108.184 135.441 108.445 135.099 108.648C134.758 108.851 134.369 108.995 133.931 109.08C133.494 109.176 133.041 109.224 132.571 109.224C132.294 109.224 132.006 109.208 131.707 109.176C131.409 109.155 131.115 109.117 130.827 109.064C130.55 109.021 130.283 108.963 130.027 108.888C129.771 108.813 129.542 108.733 129.339 108.648L129.771 106.792C129.995 106.877 130.337 106.979 130.795 107.096C131.265 107.213 131.793 107.272 132.379 107.272C133.339 107.272 133.819 107.005 133.819 106.472C133.819 106.291 133.782 106.147 133.707 106.04C133.633 105.923 133.531 105.832 133.403 105.768C133.286 105.704 133.147 105.661 132.987 105.64C132.827 105.619 132.667 105.608 132.507 105.608H130.635V103.912H132.523C132.907 103.912 133.174 103.837 133.323 103.688C133.483 103.528 133.563 103.347 133.563 103.144C133.563 102.941 133.473 102.76 133.291 102.6C133.121 102.429 132.801 102.344 132.331 102.344C131.862 102.344 131.419 102.387 131.003 102.472C130.587 102.557 130.251 102.637 129.995 102.712L129.579 100.856ZM148.993 100.584V109H146.609V102.568H144.129V109H141.745V100.584H148.993ZM159.101 104.776C159.101 105.437 159.005 106.045 158.813 106.6C158.621 107.144 158.344 107.613 157.981 108.008C157.619 108.392 157.181 108.691 156.669 108.904C156.168 109.117 155.603 109.224 154.973 109.224C154.355 109.224 153.789 109.117 153.277 108.904C152.776 108.691 152.344 108.392 151.981 108.008C151.619 107.613 151.336 107.144 151.133 106.6C150.931 106.045 150.829 105.437 150.829 104.776C150.829 104.115 150.931 103.512 151.133 102.968C151.347 102.424 151.635 101.96 151.997 101.576C152.371 101.192 152.808 100.893 153.309 100.68C153.821 100.467 154.376 100.36 154.973 100.36C155.581 100.36 156.136 100.467 156.637 100.68C157.149 100.893 157.587 101.192 157.949 101.576C158.312 101.96 158.595 102.424 158.797 102.968C159 103.512 159.101 104.115 159.101 104.776ZM156.669 104.776C156.669 104.04 156.52 103.464 156.221 103.048C155.933 102.621 155.517 102.408 154.973 102.408C154.429 102.408 154.008 102.621 153.709 103.048C153.411 103.464 153.261 104.04 153.261 104.776C153.261 105.512 153.411 106.099 153.709 106.536C154.008 106.963 154.429 107.176 154.973 107.176C155.517 107.176 155.933 106.963 156.221 106.536C156.52 106.099 156.669 105.512 156.669 104.776ZM164.724 102.536C164.713 102.845 164.697 103.176 164.676 103.528C164.665 103.869 164.639 104.216 164.596 104.568C164.553 104.909 164.495 105.245 164.42 105.576C164.356 105.907 164.271 106.216 164.164 106.504C164.036 106.845 163.871 107.165 163.668 107.464C163.476 107.752 163.225 108.013 162.916 108.248C162.617 108.483 162.249 108.68 161.812 108.84C161.385 108.989 160.884 109.091 160.308 109.144L159.988 107.16C160.532 107.053 160.953 106.904 161.252 106.712C161.551 106.509 161.775 106.253 161.924 105.944C162.041 105.677 162.132 105.368 162.196 105.016C162.271 104.664 162.324 104.296 162.356 103.912C162.388 103.517 162.404 103.117 162.404 102.712C162.415 102.307 162.42 101.917 162.42 101.544V100.584H168.74V109H166.356V102.536H164.724ZM178.643 100.584V109H176.243C176.243 108.467 176.249 107.939 176.259 107.416C176.27 106.883 176.281 106.392 176.291 105.944C176.302 105.496 176.313 105.107 176.323 104.776C176.345 104.435 176.355 104.184 176.355 104.024C176.046 104.461 175.737 104.904 175.427 105.352C175.118 105.8 174.819 106.243 174.531 106.68C174.254 107.107 173.987 107.517 173.731 107.912C173.486 108.307 173.267 108.669 173.075 109H170.979V100.584H173.363C173.363 101.117 173.358 101.629 173.347 102.12C173.347 102.6 173.342 103.037 173.331 103.432C173.321 103.827 173.31 104.173 173.299 104.472C173.289 104.76 173.283 104.984 173.283 105.144C173.923 104.205 174.51 103.363 175.043 102.616C175.587 101.869 176.115 101.192 176.627 100.584H178.643ZM183.254 104.152C183.232 104.525 183.211 104.931 183.19 105.368C183.168 105.805 183.147 106.248 183.126 106.696C183.115 107.133 183.099 107.555 183.078 107.96C183.067 108.355 183.056 108.701 183.046 109H180.726C180.747 108.413 180.779 107.752 180.822 107.016C180.875 106.28 180.928 105.533 180.982 104.776C181.046 104.008 181.11 103.261 181.174 102.536C181.248 101.811 181.318 101.16 181.382 100.584H183.366C183.824 101.331 184.246 102.104 184.63 102.904C185.014 103.704 185.419 104.584 185.846 105.544C186.294 104.52 186.731 103.576 187.158 102.712C187.584 101.837 187.968 101.128 188.31 100.584H190.326C190.4 101.16 190.47 101.811 190.534 102.536C190.608 103.261 190.672 104.008 190.726 104.776C190.79 105.533 190.843 106.28 190.886 107.016C190.928 107.752 190.96 108.413 190.982 109H188.614C188.592 108.168 188.56 107.341 188.518 106.52C188.486 105.699 188.454 104.904 188.422 104.136L186.662 108.008H185.014L183.254 104.152ZM192.658 104.856C192.658 104.109 192.77 103.459 192.993 102.904C193.228 102.339 193.532 101.869 193.906 101.496C194.279 101.123 194.706 100.84 195.186 100.648C195.676 100.456 196.178 100.36 196.69 100.36C197.884 100.36 198.828 100.728 199.522 101.464C200.215 102.189 200.562 103.261 200.562 104.68C200.562 104.819 200.556 104.973 200.546 105.144C200.535 105.304 200.524 105.448 200.514 105.576H195.106C195.159 106.067 195.388 106.456 195.794 106.744C196.199 107.032 196.743 107.176 197.426 107.176C197.863 107.176 198.29 107.139 198.706 107.064C199.132 106.979 199.479 106.877 199.746 106.76L200.066 108.696C199.938 108.76 199.767 108.824 199.554 108.888C199.34 108.952 199.1 109.005 198.834 109.048C198.578 109.101 198.3 109.144 198.002 109.176C197.703 109.208 197.404 109.224 197.106 109.224C196.348 109.224 195.687 109.112 195.122 108.888C194.567 108.664 194.103 108.36 193.73 107.976C193.367 107.581 193.095 107.117 192.914 106.584C192.743 106.051 192.658 105.475 192.658 104.856ZM198.258 103.944C198.247 103.741 198.21 103.544 198.146 103.352C198.092 103.16 198.002 102.989 197.874 102.84C197.756 102.691 197.602 102.568 197.41 102.472C197.228 102.376 196.999 102.328 196.722 102.328C196.455 102.328 196.226 102.376 196.034 102.472C195.842 102.557 195.682 102.675 195.554 102.824C195.426 102.973 195.324 103.149 195.25 103.352C195.186 103.544 195.138 103.741 195.106 103.944H198.258ZM207.793 104.856C207.793 104.12 207.628 103.533 207.297 103.096C206.967 102.648 206.476 102.424 205.825 102.424C205.612 102.424 205.415 102.435 205.233 102.456C205.052 102.467 204.903 102.483 204.785 102.504V106.808C204.935 106.904 205.127 106.984 205.361 107.048C205.607 107.112 205.852 107.144 206.097 107.144C207.228 107.144 207.793 106.381 207.793 104.856ZM210.225 104.792C210.225 105.443 210.145 106.035 209.985 106.568C209.825 107.101 209.591 107.56 209.281 107.944C208.972 108.328 208.588 108.627 208.129 108.84C207.671 109.053 207.143 109.16 206.545 109.16C206.215 109.16 205.905 109.128 205.617 109.064C205.329 109 205.052 108.909 204.785 108.792V111.96H202.401V100.872C202.615 100.808 202.86 100.749 203.137 100.696C203.415 100.632 203.703 100.579 204.001 100.536C204.311 100.493 204.62 100.461 204.929 100.44C205.249 100.408 205.553 100.392 205.841 100.392C206.535 100.392 207.153 100.499 207.697 100.712C208.241 100.915 208.7 101.208 209.073 101.592C209.447 101.965 209.729 102.424 209.921 102.968C210.124 103.512 210.225 104.12 210.225 104.792ZM219.306 109H216.922V105.672H214.442V109H212.058V100.584H214.442V103.72H216.922V100.584H219.306V109ZM232.486 109H230.102V100.584H232.486V109ZM225.11 107.336C225.547 107.336 225.889 107.256 226.134 107.096C226.39 106.925 226.518 106.653 226.518 106.28C226.518 106.088 226.475 105.928 226.39 105.8C226.305 105.661 226.187 105.555 226.038 105.48C225.889 105.395 225.713 105.336 225.51 105.304C225.318 105.272 225.11 105.256 224.886 105.256C224.726 105.256 224.55 105.267 224.358 105.288C224.166 105.309 224.022 105.331 223.926 105.352V107.272C224.054 107.293 224.225 107.309 224.438 107.32C224.651 107.331 224.875 107.336 225.11 107.336ZM223.926 103.576C224.075 103.533 224.267 103.501 224.502 103.48C224.747 103.448 225.025 103.432 225.334 103.432C225.825 103.432 226.283 103.491 226.71 103.608C227.147 103.725 227.526 103.907 227.846 104.152C228.166 104.387 228.417 104.691 228.598 105.064C228.79 105.427 228.886 105.853 228.886 106.344C228.886 106.835 228.801 107.261 228.63 107.624C228.459 107.976 228.214 108.269 227.894 108.504C227.574 108.728 227.19 108.893 226.742 109C226.305 109.117 225.814 109.176 225.27 109.176C224.566 109.176 223.921 109.139 223.334 109.064C222.747 109 222.15 108.893 221.542 108.744V100.584H223.926V103.576ZM238.073 103.144L239.737 100.584H242.201L239.321 104.632C239.961 105.432 240.543 106.211 241.065 106.968C241.588 107.725 242.004 108.403 242.313 109H239.753C239.668 108.84 239.561 108.643 239.433 108.408C239.305 108.163 239.161 107.912 239.001 107.656C238.841 107.389 238.671 107.128 238.489 106.872C238.319 106.605 238.148 106.365 237.977 106.152C237.817 106.355 237.652 106.579 237.481 106.824C237.321 107.069 237.167 107.32 237.017 107.576C236.868 107.821 236.719 108.067 236.569 108.312C236.431 108.557 236.308 108.787 236.201 109H233.769C233.897 108.733 234.073 108.419 234.297 108.056C234.521 107.693 234.761 107.32 235.017 106.936C235.284 106.541 235.561 106.152 235.849 105.768C236.137 105.373 236.42 105.005 236.697 104.664C236.217 103.992 235.737 103.315 235.257 102.632C234.777 101.939 234.303 101.256 233.833 100.584H236.409L238.073 103.144ZM30.488 126.152C30.4667 126.525 30.4453 126.931 30.424 127.368C30.4027 127.805 30.3813 128.248 30.36 128.696C30.3493 129.133 30.3333 129.555 30.312 129.96C30.3013 130.355 30.2907 130.701 30.28 131H27.96C27.9813 130.413 28.0133 129.752 28.056 129.016C28.1093 128.28 28.1627 127.533 28.216 126.776C28.28 126.008 28.344 125.261 28.408 124.536C28.4827 123.811 28.552 123.16 28.616 122.584H30.6C31.0587 123.331 31.48 124.104 31.864 124.904C32.248 125.704 32.6533 126.584 33.08 127.544C33.528 126.52 33.9653 125.576 34.392 124.712C34.8187 123.837 35.2027 123.128 35.544 122.584H37.56C37.6347 123.16 37.704 123.811 37.768 124.536C37.8427 125.261 37.9067 126.008 37.96 126.776C38.024 127.533 38.0773 128.28 38.12 129.016C38.1627 129.752 38.1947 130.413 38.216 131H35.848C35.8267 130.168 35.7947 129.341 35.752 128.52C35.72 127.699 35.688 126.904 35.656 126.136L33.896 130.008H32.248L30.488 126.152ZM43.5079 129.336C43.7425 129.336 43.9665 129.331 44.1799 129.32C44.3932 129.309 44.5639 129.293 44.6919 129.272V127.464C44.5959 127.443 44.4519 127.421 44.2599 127.4C44.0679 127.379 43.8919 127.368 43.7319 127.368C43.5079 127.368 43.2945 127.384 43.0919 127.416C42.8999 127.437 42.7292 127.485 42.5799 127.56C42.4305 127.635 42.3132 127.736 42.2279 127.864C42.1425 127.992 42.0999 128.152 42.0999 128.344C42.0999 128.717 42.2225 128.979 42.4679 129.128C42.7239 129.267 43.0705 129.336 43.5079 129.336ZM43.3159 122.36C44.0199 122.36 44.6065 122.44 45.0759 122.6C45.5452 122.76 45.9185 122.989 46.1959 123.288C46.4839 123.587 46.6865 123.949 46.8039 124.376C46.9212 124.803 46.9799 125.277 46.9799 125.8V130.76C46.6385 130.835 46.1639 130.92 45.5559 131.016C44.9479 131.123 44.2119 131.176 43.3479 131.176C42.8039 131.176 42.3079 131.128 41.8599 131.032C41.4225 130.936 41.0439 130.781 40.7239 130.568C40.4039 130.344 40.1585 130.056 39.9879 129.704C39.8172 129.352 39.7319 128.92 39.7319 128.408C39.7319 127.917 39.8279 127.501 40.0199 127.16C40.2225 126.819 40.4892 126.547 40.8199 126.344C41.1505 126.141 41.5292 125.997 41.9559 125.912C42.3825 125.816 42.8252 125.768 43.2839 125.768C43.5932 125.768 43.8652 125.784 44.0999 125.816C44.3452 125.837 44.5425 125.869 44.6919 125.912V125.688C44.6919 125.283 44.5692 124.957 44.3239 124.712C44.0785 124.467 43.6519 124.344 43.0439 124.344C42.6385 124.344 42.2385 124.376 41.8439 124.44C41.4492 124.493 41.1079 124.573 40.8199 124.68L40.5159 122.76C40.6545 122.717 40.8252 122.675 41.0279 122.632C41.2412 122.579 41.4705 122.536 41.7159 122.504C41.9612 122.461 42.2172 122.429 42.4839 122.408C42.7612 122.376 43.0385 122.36 43.3159 122.36ZM56.0956 124.536H53.4076V131H51.0236V124.536H48.3356V122.584H56.0956V124.536ZM57.1419 126.856C57.1419 126.109 57.2539 125.459 57.4779 124.904C57.7125 124.339 58.0165 123.869 58.3899 123.496C58.7632 123.123 59.1899 122.84 59.6699 122.648C60.1605 122.456 60.6619 122.36 61.1739 122.36C62.3685 122.36 63.3125 122.728 64.0059 123.464C64.6992 124.189 65.0459 125.261 65.0459 126.68C65.0459 126.819 65.0405 126.973 65.0299 127.144C65.0192 127.304 65.0085 127.448 64.9979 127.576H59.5899C59.6432 128.067 59.8725 128.456 60.2779 128.744C60.6832 129.032 61.2272 129.176 61.9099 129.176C62.3472 129.176 62.7739 129.139 63.1899 129.064C63.6165 128.979 63.9632 128.877 64.2299 128.76L64.5499 130.696C64.4219 130.76 64.2512 130.824 64.0379 130.888C63.8245 130.952 63.5845 131.005 63.3179 131.048C63.0619 131.101 62.7845 131.144 62.4859 131.176C62.1872 131.208 61.8885 131.224 61.5899 131.224C60.8325 131.224 60.1712 131.112 59.6059 130.888C59.0512 130.664 58.5872 130.36 58.2139 129.976C57.8512 129.581 57.5792 129.117 57.3979 128.584C57.2272 128.051 57.1419 127.475 57.1419 126.856ZM62.7419 125.944C62.7312 125.741 62.6939 125.544 62.6299 125.352C62.5765 125.16 62.4859 124.989 62.3579 124.84C62.2405 124.691 62.0859 124.568 61.8939 124.472C61.7125 124.376 61.4832 124.328 61.2059 124.328C60.9392 124.328 60.7099 124.376 60.5179 124.472C60.3259 124.557 60.1659 124.675 60.0379 124.824C59.9099 124.973 59.8085 125.149 59.7339 125.352C59.6699 125.544 59.6219 125.741 59.5899 125.944H62.7419ZM72.2776 126.856C72.2776 126.12 72.1123 125.533 71.7816 125.096C71.451 124.648 70.9603 124.424 70.3096 124.424C70.0963 124.424 69.899 124.435 69.7176 124.456C69.5363 124.467 69.387 124.483 69.2696 124.504V128.808C69.419 128.904 69.611 128.984 69.8456 129.048C70.091 129.112 70.3363 129.144 70.5816 129.144C71.7123 129.144 72.2776 128.381 72.2776 126.856ZM74.7096 126.792C74.7096 127.443 74.6296 128.035 74.4696 128.568C74.3096 129.101 74.075 129.56 73.7656 129.944C73.4563 130.328 73.0723 130.627 72.6136 130.84C72.155 131.053 71.627 131.16 71.0296 131.16C70.699 131.16 70.3896 131.128 70.1016 131.064C69.8136 131 69.5363 130.909 69.2696 130.792V133.96H66.8856V122.872C67.099 122.808 67.3443 122.749 67.6216 122.696C67.899 122.632 68.187 122.579 68.4856 122.536C68.795 122.493 69.1043 122.461 69.4136 122.44C69.7336 122.408 70.0376 122.392 70.3256 122.392C71.019 122.392 71.6376 122.499 72.1816 122.712C72.7256 122.915 73.1843 123.208 73.5576 123.592C73.931 123.965 74.2136 124.424 74.4056 124.968C74.6083 125.512 74.7096 126.12 74.7096 126.792ZM84.2059 122.584V131H81.8059C81.8059 130.467 81.8112 129.939 81.8219 129.416C81.8325 128.883 81.8432 128.392 81.8539 127.944C81.8645 127.496 81.8752 127.107 81.8859 126.776C81.9072 126.435 81.9179 126.184 81.9179 126.024C81.6085 126.461 81.2992 126.904 80.9899 127.352C80.6805 127.8 80.3819 128.243 80.0939 128.68C79.8165 129.107 79.5499 129.517 79.2939 129.912C79.0485 130.307 78.8299 130.669 78.6379 131H76.5419V122.584H78.9259C78.9259 123.117 78.9205 123.629 78.9099 124.12C78.9099 124.6 78.9045 125.037 78.8939 125.432C78.8832 125.827 78.8725 126.173 78.8619 126.472C78.8512 126.76 78.8459 126.984 78.8459 127.144C79.4859 126.205 80.0725 125.363 80.6059 124.616C81.1499 123.869 81.6779 123.192 82.1899 122.584H84.2059ZM89.6641 129.336C89.8988 129.336 90.1228 129.331 90.3361 129.32C90.5495 129.309 90.7201 129.293 90.8481 129.272V127.464C90.7521 127.443 90.6081 127.421 90.4161 127.4C90.2241 127.379 90.0481 127.368 89.8881 127.368C89.6641 127.368 89.4508 127.384 89.2481 127.416C89.0561 127.437 88.8855 127.485 88.7361 127.56C88.5868 127.635 88.4695 127.736 88.3841 127.864C88.2988 127.992 88.2561 128.152 88.2561 128.344C88.2561 128.717 88.3788 128.979 88.6241 129.128C88.8801 129.267 89.2268 129.336 89.6641 129.336ZM89.4721 122.36C90.1761 122.36 90.7628 122.44 91.2321 122.6C91.7015 122.76 92.0748 122.989 92.3521 123.288C92.6401 123.587 92.8428 123.949 92.9601 124.376C93.0775 124.803 93.1361 125.277 93.1361 125.8V130.76C92.7948 130.835 92.3201 130.92 91.7121 131.016C91.1041 131.123 90.3681 131.176 89.5041 131.176C88.9601 131.176 88.4641 131.128 88.0161 131.032C87.5788 130.936 87.2001 130.781 86.8801 130.568C86.5601 130.344 86.3148 130.056 86.1441 129.704C85.9735 129.352 85.8881 128.92 85.8881 128.408C85.8881 127.917 85.9841 127.501 86.1761 127.16C86.3788 126.819 86.6455 126.547 86.9761 126.344C87.3068 126.141 87.6855 125.997 88.1121 125.912C88.5388 125.816 88.9815 125.768 89.4401 125.768C89.7495 125.768 90.0215 125.784 90.2561 125.816C90.5015 125.837 90.6988 125.869 90.8481 125.912V125.688C90.8481 125.283 90.7255 124.957 90.4801 124.712C90.2348 124.467 89.8081 124.344 89.2001 124.344C88.7948 124.344 88.3948 124.376 88.0001 124.44C87.6055 124.493 87.2641 124.573 86.9761 124.68L86.6721 122.76C86.8108 122.717 86.9815 122.675 87.1841 122.632C87.3975 122.579 87.6268 122.536 87.8721 122.504C88.1175 122.461 88.3735 122.429 88.6401 122.408C88.9175 122.376 89.1948 122.36 89.4721 122.36ZM99.0679 124.536C99.0572 124.845 99.0412 125.176 99.0199 125.528C99.0092 125.869 98.9825 126.216 98.9399 126.568C98.8972 126.909 98.8385 127.245 98.7639 127.576C98.6999 127.907 98.6145 128.216 98.5079 128.504C98.3799 128.845 98.2145 129.165 98.0119 129.464C97.8199 129.752 97.5692 130.013 97.2599 130.248C96.9612 130.483 96.5932 130.68 96.1559 130.84C95.7292 130.989 95.2279 131.091 94.6519 131.144L94.3319 129.16C94.8759 129.053 95.2972 128.904 95.5959 128.712C95.8945 128.509 96.1185 128.253 96.2679 127.944C96.3852 127.677 96.4759 127.368 96.5399 127.016C96.6145 126.664 96.6679 126.296 96.6999 125.912C96.7319 125.517 96.7479 125.117 96.7479 124.712C96.7585 124.307 96.7639 123.917 96.7639 123.544V122.584H103.084V131H100.7V124.536H99.0679ZM113.195 126.776C113.195 127.437 113.099 128.045 112.907 128.6C112.715 129.144 112.438 129.613 112.075 130.008C111.712 130.392 111.275 130.691 110.763 130.904C110.262 131.117 109.696 131.224 109.067 131.224C108.448 131.224 107.883 131.117 107.371 130.904C106.87 130.691 106.438 130.392 106.075 130.008C105.712 129.613 105.43 129.144 105.227 128.6C105.024 128.045 104.923 127.437 104.923 126.776C104.923 126.115 105.024 125.512 105.227 124.968C105.44 124.424 105.728 123.96 106.091 123.576C106.464 123.192 106.902 122.893 107.403 122.68C107.915 122.467 108.47 122.36 109.067 122.36C109.675 122.36 110.23 122.467 110.731 122.68C111.243 122.893 111.68 123.192 112.043 123.576C112.406 123.96 112.688 124.424 112.891 124.968C113.094 125.512 113.195 126.115 113.195 126.776ZM110.763 126.776C110.763 126.04 110.614 125.464 110.315 125.048C110.027 124.621 109.611 124.408 109.067 124.408C108.523 124.408 108.102 124.621 107.803 125.048C107.504 125.464 107.355 126.04 107.355 126.776C107.355 127.512 107.504 128.099 107.803 128.536C108.102 128.963 108.523 129.176 109.067 129.176C109.611 129.176 110.027 128.963 110.315 128.536C110.614 128.099 110.763 127.512 110.763 126.776ZM117.426 129.24C117.575 129.261 117.773 129.283 118.018 129.304C118.274 129.315 118.509 129.32 118.722 129.32C119.255 129.32 119.671 129.256 119.97 129.128C120.269 128.989 120.418 128.744 120.418 128.392C120.418 128.051 120.279 127.816 120.002 127.688C119.735 127.549 119.341 127.48 118.818 127.48H117.426V129.24ZM118.77 125.88C119.165 125.88 119.485 125.832 119.73 125.736C119.975 125.629 120.098 125.405 120.098 125.064C120.098 124.744 119.959 124.525 119.682 124.408C119.405 124.291 119.042 124.232 118.594 124.232C118.445 124.232 118.247 124.243 118.002 124.264C117.767 124.275 117.575 124.291 117.426 124.312V125.88H118.77ZM118.69 131.16C118.391 131.16 118.071 131.149 117.73 131.128C117.389 131.107 117.053 131.075 116.722 131.032C116.391 131 116.077 130.963 115.778 130.92C115.49 130.867 115.245 130.819 115.042 130.776V122.712C115.245 122.669 115.49 122.632 115.778 122.6C116.077 122.557 116.391 122.52 116.722 122.488C117.053 122.456 117.389 122.435 117.73 122.424C118.071 122.403 118.391 122.392 118.69 122.392C119.383 122.392 119.965 122.461 120.434 122.6C120.914 122.739 121.298 122.92 121.586 123.144C121.885 123.368 122.098 123.619 122.226 123.896C122.354 124.173 122.418 124.451 122.418 124.728C122.418 125.101 122.327 125.443 122.146 125.752C121.965 126.061 121.735 126.285 121.458 126.424C121.607 126.488 121.757 126.579 121.906 126.696C122.066 126.813 122.21 126.957 122.338 127.128C122.466 127.288 122.567 127.485 122.642 127.72C122.727 127.944 122.77 128.205 122.77 128.504C122.77 128.845 122.701 129.176 122.562 129.496C122.434 129.816 122.21 130.099 121.89 130.344C121.57 130.589 121.149 130.787 120.626 130.936C120.103 131.085 119.458 131.16 118.69 131.16Z" fill="white"/>
<defs>
<linearGradient id="paint0_linear" x1="439.98" y1="-1.5339e-05" x2="-158.031" y2="482.429" gradientUnits="userSpaceOnUse">
<stop stop-color="#89F1FF"/>
<stop offset="1" stop-color="#2983EE"/>
</linearGradient>
</defs>
</svg>
