<svg width="395" height="121" viewBox="0 0 395 121" fill="none" xmlns="http://www.w3.org/2000/svg">
<path fill-rule="evenodd" clip-rule="evenodd" d="M183.601 17.8631C188.436 14.1582 193.73 7.97981 192.193 0.863035C195.022 3.92409 198.667 10.1927 198.834 17.8631L371 17.8631C384.255 17.8631 395 28.6083 395 41.8631L395 96.8631C395 110.118 384.255 120.863 371 120.863L24 120.863C10.7452 120.863 -1.31295e-06 110.118 -1.15366e-06 96.8631L-4.92711e-07 41.8631C-3.33423e-07 28.6083 10.7451 17.8631 24 17.8631L183.601 17.8631Z" fill="url(#paint0_linear)"/>
<path d="M33.2734 50.863L31.0781 50.863L26.375 45.074L26.375 50.863L24.5078 50.863L24.5078 39.4412L26.375 39.4412L26.375 44.9724L31 39.4412L33.0469 39.4412L28.4375 44.9568L33.2734 50.863ZM42.2578 46.5271C42.2578 47.9386 41.8958 49.0401 41.1719 49.8318C40.4479 50.6235 39.4401 51.0193 38.1484 51.0193C37.3411 51.0193 36.6276 50.837 36.0078 50.4724C35.388 50.1078 34.9115 49.5844 34.5781 48.9021C34.2448 48.2198 34.0781 47.4281 34.0781 46.5271C34.0781 45.1261 34.4375 44.0323 35.1562 43.2458C35.875 42.4594 36.888 42.0662 38.1953 42.0662C39.4453 42.0662 40.4349 42.4698 41.1641 43.2771C41.8932 44.0792 42.2578 45.1625 42.2578 46.5271ZM35.9687 46.5271C35.9687 48.5219 36.7057 49.5193 38.1797 49.5193C39.638 49.5193 40.3672 48.5219 40.3672 46.5271C40.3672 44.5531 39.6328 43.5662 38.1641 43.5662C37.3932 43.5662 36.8333 43.8214 36.4844 44.3318C36.1406 44.8422 35.9687 45.574 35.9687 46.5271ZM49.3359 49.1052L49.4375 48.7302C49.651 47.9542 49.8359 47.3578 49.9922 46.9412L51.9297 42.2224L54.375 42.2224L54.375 50.863L52.6797 50.863L52.6797 43.8865L52.5391 44.3552C52.3047 45.1938 52.1068 45.811 51.9453 46.2068L50.0547 50.863L48.6641 50.863L46.7734 46.1755C46.513 45.4985 46.2734 44.7354 46.0547 43.8865L46.0547 50.863L44.375 50.863L44.375 42.2224L46.8047 42.2224L48.6797 46.8005C48.8464 47.2224 49.0651 47.9906 49.3359 49.1052ZM64.5547 42.2224L64.5547 50.863L62.7109 50.863L62.7109 43.6755L58.8359 43.6755L58.8359 50.863L57 50.863L57 42.2224L64.5547 42.2224ZM72.5937 50.863L72.2266 49.6599L72.1641 49.6599C71.7474 50.186 71.3281 50.5453 70.9062 50.738C70.4844 50.9255 69.9427 51.0193 69.2812 51.0193C68.4323 51.0193 67.7682 50.7901 67.2891 50.3318C66.8151 49.8735 66.5781 49.225 66.5781 48.3865C66.5781 47.4959 66.9089 46.824 67.5703 46.3709C68.2318 45.9177 69.2396 45.6703 70.5937 45.6287L72.0859 45.5818L72.0859 45.1209C72.0859 44.5688 71.9557 44.1573 71.6953 43.8865C71.4401 43.6104 71.0417 43.4724 70.5 43.4724C70.0573 43.4724 69.6328 43.5375 69.2266 43.6677C68.8203 43.7979 68.4297 43.9516 68.0547 44.1287L67.4609 42.8162C67.9297 42.5714 68.4427 42.3865 69 42.2615C69.5573 42.1313 70.0833 42.0662 70.5781 42.0662C71.6771 42.0662 72.5052 42.3057 73.0625 42.7849C73.625 43.2641 73.9062 44.0167 73.9062 45.0427L73.9062 50.863L72.5937 50.863ZM69.8594 49.613C70.526 49.613 71.0599 49.4281 71.4609 49.0584C71.8672 48.6834 72.0703 48.1599 72.0703 47.488L72.0703 46.738L70.9609 46.7849C70.0964 46.8162 69.4661 46.962 69.0703 47.2224C68.6797 47.4776 68.4844 47.8709 68.4844 48.4021C68.4844 48.7875 68.599 49.087 68.8281 49.3005C69.0573 49.5089 69.401 49.613 69.8594 49.613ZM78.3047 42.2224L78.3047 45.6912L82.375 45.6912L82.375 42.2224L84.2109 42.2224L84.2109 50.863L82.375 50.863L82.375 47.1365L78.3047 47.1365L78.3047 50.863L76.4687 50.863L76.4687 42.2224L78.3047 42.2224ZM88.6016 42.2224L88.6016 46.6521C88.6016 47.1677 88.5599 47.9255 88.4766 48.9255L92.8125 42.2224L95.0547 42.2224L95.0547 50.863L93.2891 50.863L93.2891 46.5115C93.2891 46.2719 93.3021 45.8839 93.3281 45.3474C93.3594 44.811 93.3854 44.4203 93.4062 44.1755L89.0859 50.863L86.8437 50.863L86.8437 42.2224L88.6016 42.2224ZM98.5547 50.863L96.5 50.863L98.9062 47.324C98.3229 47.1573 97.8646 46.8604 97.5312 46.4334C97.1979 46.0011 97.0312 45.4672 97.0312 44.8318C97.0312 44.0141 97.3229 43.3761 97.9062 42.9177C98.4896 42.4542 99.2865 42.2224 100.297 42.2224L104.234 42.2224L104.234 50.863L102.391 50.863L102.391 47.5349L100.648 47.5349L98.5547 50.863ZM98.8203 44.8474C98.8203 45.2901 98.987 45.6235 99.3203 45.8474C99.6589 46.0662 100.112 46.1755 100.68 46.1755L102.391 46.1755L102.391 43.613L100.391 43.613C99.8906 43.613 99.5026 43.7198 99.2266 43.9334C98.9557 44.1469 98.8203 44.4516 98.8203 44.8474ZM112.555 39.4412L112.234 43.5662L111.062 43.5662L110.742 39.4412L112.555 39.4412ZM115.641 39.4412L115.32 43.5662L114.148 43.5662L113.828 39.4412L115.641 39.4412ZM116.781 49.2615L117.664 49.2615C118.419 47.8813 119.052 46.3318 119.562 44.613C120.073 42.8943 120.401 41.1703 120.547 39.4412L126.445 39.4412L126.445 49.2615L127.922 49.2615L127.922 54.0115L126.125 54.0115L126.125 50.863L118.578 50.863L118.578 54.0115L116.781 54.0115L116.781 49.2615ZM122.109 41.0584C121.995 42.2406 121.703 43.613 121.234 45.1755C120.766 46.7328 120.232 48.0948 119.633 49.2615L124.578 49.2615L124.578 41.0584L122.109 41.0584ZM137.242 46.5271C137.242 47.9386 136.88 49.0401 136.156 49.8318C135.432 50.6235 134.424 51.0193 133.133 51.0193C132.326 51.0193 131.612 50.837 130.992 50.4724C130.372 50.1078 129.896 49.5844 129.562 48.9021C129.229 48.2198 129.062 47.4281 129.062 46.5271C129.062 45.1261 129.422 44.0323 130.141 43.2459C130.859 42.4594 131.872 42.0662 133.18 42.0662C134.43 42.0662 135.419 42.4698 136.148 43.2771C136.878 44.0792 137.242 45.1625 137.242 46.5271ZM130.953 46.5271C130.953 48.5219 131.69 49.5193 133.164 49.5193C134.622 49.5193 135.352 48.5219 135.352 46.5271C135.352 44.5531 134.617 43.5662 133.148 43.5662C132.378 43.5662 131.818 43.8214 131.469 44.3318C131.125 44.8422 130.953 45.574 130.953 46.5271ZM143.742 51.0193C142.648 51.0193 141.799 50.6261 141.195 49.8396L141.086 49.8396C141.159 50.5688 141.195 51.0115 141.195 51.1677L141.195 54.7068L139.359 54.7068L139.359 42.2224L140.844 42.2224C140.885 42.3839 140.971 42.7693 141.102 43.3787L141.195 43.3787C141.768 42.5037 142.628 42.0662 143.773 42.0662C144.852 42.0662 145.69 42.4568 146.289 43.238C146.893 44.0193 147.195 45.1156 147.195 46.5271C147.195 47.9386 146.888 49.0401 146.273 49.8318C145.664 50.6235 144.82 51.0193 143.742 51.0193ZM143.297 43.5662C142.568 43.5662 142.034 43.7797 141.695 44.2068C141.362 44.6339 141.195 45.3162 141.195 46.2537L141.195 46.5271C141.195 47.5792 141.362 48.3422 141.695 48.8162C142.029 49.2849 142.573 49.5193 143.328 49.5193C143.964 49.5193 144.453 49.2589 144.797 48.738C145.141 48.2172 145.312 47.475 145.312 46.5115C145.312 45.5427 145.141 44.811 144.797 44.3162C144.458 43.8162 143.958 43.5662 143.297 43.5662ZM156.883 42.2224L156.883 50.863L155.039 50.863L155.039 43.6755L151.164 43.6755L151.164 50.863L149.328 50.863L149.328 42.2224L156.883 42.2224ZM166.617 50.863L164.766 50.863L164.766 43.6599L162.383 43.6599C162.237 45.5141 162.039 46.962 161.789 48.0037C161.544 49.0453 161.221 49.8057 160.82 50.2849C160.424 50.7641 159.909 51.0037 159.273 51.0037C158.872 51.0037 158.536 50.9464 158.266 50.8318L158.266 49.3943C158.458 49.4672 158.651 49.5037 158.844 49.5037C159.375 49.5037 159.792 48.9073 160.094 47.7146C160.401 46.5167 160.641 44.686 160.812 42.2224L166.617 42.2224L166.617 50.863ZM174.656 50.863L174.289 49.6599L174.227 49.6599C173.81 50.186 173.391 50.5453 172.969 50.738C172.547 50.9255 172.005 51.0193 171.344 51.0193C170.495 51.0193 169.831 50.7901 169.352 50.3318C168.878 49.8735 168.641 49.225 168.641 48.3865C168.641 47.4959 168.971 46.824 169.633 46.3709C170.294 45.9177 171.302 45.6703 172.656 45.6287L174.148 45.5818L174.148 45.1209C174.148 44.5688 174.018 44.1573 173.758 43.8865C173.503 43.6104 173.104 43.4724 172.562 43.4724C172.12 43.4724 171.695 43.5375 171.289 43.6677C170.883 43.7979 170.492 43.9516 170.117 44.1287L169.523 42.8162C169.992 42.5714 170.505 42.3865 171.062 42.2615C171.62 42.1313 172.146 42.0662 172.641 42.0662C173.74 42.0662 174.568 42.3057 175.125 42.7849C175.687 43.2641 175.969 44.0167 175.969 45.0427L175.969 50.863L174.656 50.863ZM171.922 49.613C172.589 49.613 173.122 49.4281 173.523 49.0584C173.93 48.6834 174.133 48.1599 174.133 47.488L174.133 46.738L173.023 46.7849C172.159 46.8162 171.529 46.962 171.133 47.2224C170.742 47.4776 170.547 47.8709 170.547 48.4021C170.547 48.7875 170.661 49.087 170.891 49.3005C171.12 49.5089 171.464 49.613 171.922 49.613ZM182.016 51.0193C180.708 51.0193 179.714 50.6391 179.031 49.8787C178.354 49.113 178.016 48.0167 178.016 46.5896C178.016 45.1365 178.37 44.0193 179.078 43.238C179.792 42.4568 180.82 42.0662 182.164 42.0662C183.076 42.0662 183.896 42.2354 184.625 42.574L184.07 44.0505C183.294 43.7485 182.654 43.5974 182.148 43.5974C180.654 43.5974 179.906 44.5896 179.906 46.574C179.906 47.5427 180.091 48.2719 180.461 48.7615C180.836 49.2459 181.383 49.488 182.102 49.488C182.919 49.488 183.693 49.2849 184.422 48.8787L184.422 50.4802C184.094 50.6729 183.742 50.811 183.367 50.8943C182.997 50.9776 182.547 51.0193 182.016 51.0193ZM192.945 42.2224L192.945 43.6599L190.133 43.6599L190.133 50.863L188.289 50.863L188.289 43.6599L185.477 43.6599L185.477 42.2224L192.945 42.2224ZM196.367 42.2224L196.367 46.6521C196.367 47.1677 196.326 47.9255 196.242 48.9255L200.578 42.2224L202.82 42.2224L202.82 50.863L201.055 50.863L201.055 46.5115C201.055 46.2719 201.068 45.8839 201.094 45.3474C201.125 44.811 201.151 44.4203 201.172 44.1755L196.852 50.863L194.609 50.863L194.609 42.2224L196.367 42.2224ZM207.273 42.2224L207.273 45.6912L211.344 45.6912L211.344 42.2224L213.18 42.2224L213.18 50.863L211.344 50.863L211.344 47.1365L207.273 47.1365L207.273 50.863L205.437 50.863L205.437 42.2224L207.273 42.2224ZM223.312 44.4334C223.312 45.4542 222.716 46.0714 221.523 46.2849L221.523 46.3474C222.19 46.4255 222.701 46.6365 223.055 46.9802C223.409 47.324 223.586 47.7693 223.586 48.3162C223.586 49.1339 223.273 49.7641 222.648 50.2068C222.029 50.6443 221.125 50.863 219.937 50.863L215.812 50.863L215.812 42.2224L219.922 42.2224C222.182 42.2224 223.312 42.9594 223.312 44.4334ZM221.703 48.2068C221.703 47.7901 221.542 47.4959 221.219 47.324C220.896 47.1469 220.411 47.0584 219.766 47.0584L217.648 47.0584L217.648 49.5037L219.812 49.5037C221.073 49.5037 221.703 49.0714 221.703 48.2068ZM221.477 44.5896C221.477 44.2459 221.341 43.9985 221.07 43.8474C220.805 43.6912 220.406 43.613 219.875 43.613L217.648 43.613L217.648 45.6912L219.602 45.6912C220.216 45.6912 220.682 45.613 221 45.4568C221.318 45.2953 221.477 45.0063 221.477 44.5896ZM229.258 51.0193C227.914 51.0193 226.862 50.6287 226.102 49.8474C225.346 49.061 224.969 47.9802 224.969 46.6052C224.969 45.1938 225.32 44.0844 226.023 43.2771C226.727 42.4698 227.693 42.0662 228.922 42.0662C230.062 42.0662 230.964 42.4125 231.625 43.1052C232.286 43.7979 232.617 44.7511 232.617 45.9646L232.617 46.9568L226.859 46.9568C226.885 47.7953 227.112 48.4412 227.539 48.8943C227.966 49.3422 228.568 49.5662 229.344 49.5662C229.854 49.5662 230.328 49.5193 230.766 49.4255C231.208 49.3266 231.682 49.1651 232.187 48.9412L232.187 50.4334C231.74 50.6469 231.286 50.7979 230.828 50.8865C230.37 50.975 229.846 51.0193 229.258 51.0193ZM228.922 43.4568C228.339 43.4568 227.87 43.6417 227.516 44.0115C227.167 44.3813 226.958 44.9203 226.891 45.6287L230.812 45.6287C230.802 44.9151 230.63 44.3761 230.297 44.0115C229.964 43.6417 229.505 43.4568 228.922 43.4568ZM238.187 51.0193C236.88 51.0193 235.885 50.6391 235.203 49.8787C234.526 49.113 234.187 48.0167 234.187 46.5896C234.187 45.1365 234.542 44.0193 235.25 43.238C235.964 42.4568 236.992 42.0662 238.336 42.0662C239.247 42.0662 240.068 42.2354 240.797 42.574L240.242 44.0505C239.466 43.7485 238.826 43.5974 238.32 43.5974C236.826 43.5974 236.078 44.5896 236.078 46.574C236.078 47.5427 236.263 48.2719 236.633 48.7615C237.008 49.2459 237.555 49.488 238.273 49.488C239.091 49.488 239.865 49.2849 240.594 48.8787L240.594 50.4802C240.266 50.6729 239.914 50.811 239.539 50.8943C239.169 50.9776 238.719 51.0193 238.187 51.0193ZM249.117 42.2224L249.117 43.6599L246.305 43.6599L246.305 50.863L244.461 50.863L244.461 43.6599L241.648 43.6599L241.648 42.2224L249.117 42.2224ZM252.32 39.4412L252 43.5662L250.828 43.5662L250.508 39.4412L252.32 39.4412ZM255.406 39.4412L255.086 43.5662L253.914 43.5662L253.594 39.4412L255.406 39.4412ZM269.477 42.2224L269.477 50.863L267.633 50.863L267.633 43.6755L263.758 43.6755L263.758 50.863L261.922 50.863L261.922 42.2224L269.477 42.2224ZM276.492 51.0193C275.398 51.0193 274.549 50.6261 273.945 49.8396L273.836 49.8396C273.909 50.5688 273.945 51.0115 273.945 51.1677L273.945 54.7068L272.109 54.7068L272.109 42.2224L273.594 42.2224C273.635 42.3839 273.721 42.7693 273.852 43.3787L273.945 43.3787C274.518 42.5037 275.378 42.0662 276.523 42.0662C277.602 42.0662 278.44 42.4568 279.039 43.238C279.643 44.0193 279.945 45.1156 279.945 46.5271C279.945 47.9386 279.638 49.0401 279.023 49.8318C278.414 50.6235 277.57 51.0193 276.492 51.0193ZM276.047 43.5662C275.318 43.5662 274.784 43.7797 274.445 44.2068C274.112 44.6339 273.945 45.3162 273.945 46.2537L273.945 46.5271C273.945 47.5792 274.112 48.3422 274.445 48.8162C274.779 49.2849 275.323 49.5193 276.078 49.5193C276.714 49.5193 277.203 49.2589 277.547 48.738C277.891 48.2172 278.062 47.475 278.062 46.5115C278.062 45.5427 277.891 44.811 277.547 44.3162C277.208 43.8162 276.708 43.5662 276.047 43.5662ZM285.852 51.0193C284.508 51.0193 283.456 50.6287 282.695 49.8474C281.94 49.061 281.562 47.9802 281.562 46.6052C281.562 45.1938 281.914 44.0844 282.617 43.2771C283.32 42.4698 284.286 42.0662 285.516 42.0662C286.656 42.0662 287.557 42.4125 288.219 43.1052C288.88 43.7979 289.211 44.7511 289.211 45.9646L289.211 46.9568L283.453 46.9568C283.479 47.7953 283.706 48.4412 284.133 48.8943C284.56 49.3422 285.161 49.5662 285.937 49.5662C286.448 49.5662 286.922 49.5193 287.359 49.4255C287.802 49.3266 288.276 49.1651 288.781 48.9412L288.781 50.4334C288.333 50.6469 287.88 50.7979 287.422 50.8865C286.964 50.975 286.44 51.0193 285.852 51.0193ZM285.516 43.4568C284.932 43.4568 284.464 43.6417 284.109 44.0115C283.76 44.3813 283.552 44.9203 283.484 45.6287L287.406 45.6287C287.396 44.9151 287.224 44.3761 286.891 44.0115C286.557 43.6417 286.099 43.4568 285.516 43.4568ZM299.586 53.9177L297.875 53.9177L297.875 50.863L291.953 50.863L291.953 53.9177L290.258 53.9177L290.258 49.4412L290.961 49.4412C291.576 48.561 292.062 47.4985 292.422 46.2537C292.786 45.0037 293.003 43.6599 293.07 42.2224L298.32 42.2224L298.32 49.4412L299.586 49.4412L299.586 53.9177ZM296.516 49.4412L296.516 43.6287L294.656 43.6287C294.557 44.7016 294.349 45.7589 294.031 46.8005C293.719 47.8422 293.336 48.7224 292.883 49.4412L296.516 49.4412ZM308.289 50.863L306.437 50.863L306.437 43.6599L304.055 43.6599C303.909 45.5141 303.711 46.962 303.461 48.0037C303.216 49.0453 302.893 49.8057 302.492 50.2849C302.096 50.7641 301.581 51.0037 300.945 51.0037C300.544 51.0037 300.208 50.9464 299.937 50.8318L299.937 49.3943C300.13 49.4672 300.323 49.5037 300.516 49.5037C301.047 49.5037 301.464 48.9073 301.766 47.7146C302.073 46.5167 302.312 44.686 302.484 42.2224L308.289 42.2224L308.289 50.863ZM316.328 50.863L315.961 49.6599L315.898 49.6599C315.482 50.186 315.062 50.5453 314.641 50.738C314.219 50.9255 313.677 51.0193 313.016 51.0193C312.167 51.0193 311.503 50.7901 311.023 50.3318C310.549 49.8735 310.312 49.225 310.312 48.3865C310.312 47.4959 310.643 46.824 311.305 46.3709C311.966 45.9177 312.974 45.6703 314.328 45.6287L315.82 45.5818L315.82 45.1209C315.82 44.5688 315.69 44.1573 315.43 43.8865C315.174 43.6104 314.776 43.4724 314.234 43.4724C313.792 43.4724 313.367 43.5375 312.961 43.6677C312.555 43.7979 312.164 43.9516 311.789 44.1287L311.195 42.8162C311.664 42.5714 312.177 42.3865 312.734 42.2615C313.292 42.1313 313.818 42.0662 314.312 42.0662C315.411 42.0662 316.24 42.3057 316.797 42.7849C317.359 43.2641 317.641 44.0167 317.641 45.0427L317.641 50.863L316.328 50.863ZM313.594 49.613C314.26 49.613 314.794 49.4281 315.195 49.0584C315.602 48.6834 315.805 48.1599 315.805 47.488L315.805 46.738L314.695 46.7849C313.831 46.8162 313.201 46.962 312.805 47.2224C312.414 47.4776 312.219 47.8709 312.219 48.4021C312.219 48.7875 312.333 49.087 312.562 49.3005C312.792 49.5089 313.135 49.613 313.594 49.613ZM325.789 42.2224L325.789 43.6599L322.039 43.6599L322.039 50.863L320.203 50.863L320.203 42.2224L325.789 42.2224ZM332.859 50.863L332.492 49.6599L332.43 49.6599C332.013 50.186 331.594 50.5453 331.172 50.738C330.75 50.9255 330.208 51.0193 329.547 51.0193C328.698 51.0193 328.034 50.7901 327.555 50.3318C327.081 49.8735 326.844 49.225 326.844 48.3865C326.844 47.4959 327.174 46.824 327.836 46.3709C328.497 45.9177 329.505 45.6703 330.859 45.6287L332.352 45.5818L332.352 45.1209C332.352 44.5688 332.221 44.1573 331.961 43.8865C331.706 43.6104 331.307 43.4724 330.766 43.4724C330.323 43.4724 329.898 43.5375 329.492 43.6677C329.086 43.7979 328.695 43.9516 328.32 44.1287L327.727 42.8162C328.195 42.5714 328.708 42.3865 329.266 42.2615C329.823 42.1313 330.349 42.0662 330.844 42.0662C331.943 42.0662 332.771 42.3057 333.328 42.7849C333.891 43.2641 334.172 44.0167 334.172 45.0427L334.172 50.863L332.859 50.863ZM330.125 49.613C330.792 49.613 331.326 49.4281 331.727 49.0584C332.133 48.6834 332.336 48.1599 332.336 47.488L332.336 46.738L331.227 46.7849C330.362 46.8162 329.732 46.962 329.336 47.2224C328.945 47.4776 328.75 47.8709 328.75 48.4021C328.75 48.7875 328.865 49.087 329.094 49.3005C329.323 49.5089 329.667 49.613 330.125 49.613ZM340.508 51.0193C339.164 51.0193 338.112 50.6287 337.352 49.8474C336.596 49.061 336.219 47.9802 336.219 46.6052C336.219 45.1938 336.57 44.0844 337.273 43.2771C337.977 42.4698 338.943 42.0662 340.172 42.0662C341.312 42.0662 342.214 42.4125 342.875 43.1052C343.536 43.7979 343.867 44.7511 343.867 45.9646L343.867 46.9568L338.109 46.9568C338.135 47.7953 338.362 48.4412 338.789 48.8943C339.216 49.3422 339.818 49.5662 340.594 49.5662C341.104 49.5662 341.578 49.5193 342.016 49.4255C342.458 49.3266 342.932 49.1651 343.437 48.9412L343.437 50.4334C342.99 50.6469 342.536 50.7979 342.078 50.8865C341.62 50.975 341.096 51.0193 340.508 51.0193ZM340.172 43.4568C339.589 43.4568 339.12 43.6417 338.766 44.0115C338.417 44.3813 338.208 44.9203 338.141 45.6287L342.062 45.6287C342.052 44.9151 341.88 44.3761 341.547 44.0115C341.214 43.6417 340.755 43.4568 340.172 43.4568ZM352.445 42.2224L352.445 43.6599L349.633 43.6599L349.633 50.863L347.789 50.863L347.789 43.6599L344.977 43.6599L344.977 42.2224L352.445 42.2224ZM31.8672 64.2224L31.8672 72.863L30.0234 72.863L30.0234 65.6755L26.1484 65.6755L26.1484 72.863L24.3125 72.863L24.3125 64.2224L31.8672 64.2224ZM42.1641 68.5271C42.1641 69.9386 41.8021 71.0401 41.0781 71.8318C40.3542 72.6235 39.3464 73.0193 38.0547 73.0193C37.2474 73.0193 36.5339 72.837 35.9141 72.4724C35.2943 72.1078 34.8177 71.5844 34.4844 70.9021C34.151 70.2198 33.9844 69.4281 33.9844 68.5271C33.9844 67.1261 34.3437 66.0323 35.0625 65.2458C35.7812 64.4594 36.7943 64.0662 38.1016 64.0662C39.3516 64.0662 40.3411 64.4698 41.0703 65.2771C41.7995 66.0792 42.1641 67.1625 42.1641 68.5271ZM35.875 68.5271C35.875 70.5219 36.612 71.5193 38.0859 71.5193C39.5443 71.5193 40.2734 70.5219 40.2734 68.5271C40.2734 66.5531 39.5391 65.5662 38.0703 65.5662C37.2995 65.5662 36.7396 65.8214 36.3906 66.3318C36.0469 66.8422 35.875 67.574 35.875 68.5271ZM51.3828 72.863L49.5312 72.863L49.5312 65.6599L47.1484 65.6599C47.0026 67.5141 46.8047 68.962 46.5547 70.0037C46.3099 71.0453 45.987 71.8057 45.5859 72.2849C45.1901 72.7641 44.6745 73.0037 44.0391 73.0037C43.638 73.0037 43.3021 72.9464 43.0312 72.8318L43.0312 71.3943C43.224 71.4672 43.4167 71.5037 43.6094 71.5037C44.1406 71.5037 44.5573 70.9073 44.8594 69.7146C45.1667 68.5167 45.4062 66.686 45.5781 64.2224L51.3828 64.2224L51.3828 72.863ZM55.8516 64.2224L55.8516 67.6912L59.9219 67.6912L59.9219 64.2224L61.7578 64.2224L61.7578 72.863L59.9219 72.863L59.9219 69.1365L55.8516 69.1365L55.8516 72.863L54.0156 72.863L54.0156 64.2224L55.8516 64.2224ZM66.2266 67.6755L67.9766 67.6755C69.1849 67.6755 70.0781 67.8839 70.6562 68.3005C71.2344 68.7172 71.5234 69.3422 71.5234 70.1755C71.5234 71.0662 71.2214 71.738 70.6172 72.1912C70.0182 72.6391 69.138 72.863 67.9766 72.863L64.3906 72.863L64.3906 64.2224L66.2266 64.2224L66.2266 67.6755ZM69.7031 70.2224C69.7031 69.7901 69.5417 69.488 69.2187 69.3162C68.901 69.1443 68.4427 69.0584 67.8437 69.0584L66.2266 69.0584L66.2266 71.5037L67.6094 71.5037C68.349 71.5037 68.8828 71.3995 69.2109 71.1912C69.5391 70.9828 69.7031 70.6599 69.7031 70.2224ZM74.7266 72.863L72.8828 72.863L72.8828 64.2224L74.7266 64.2224L74.7266 72.863ZM79.1172 64.2224L79.1172 68.6521C79.1172 69.1677 79.0755 69.9255 78.9922 70.9255L83.3281 64.2224L85.5703 64.2224L85.5703 72.863L83.8047 72.863L83.8047 68.5115C83.8047 68.2719 83.8177 67.8839 83.8437 67.3474C83.875 66.811 83.901 66.4203 83.9219 66.1755L79.6016 72.863L77.3594 72.863L77.3594 64.2224L79.1172 64.2224ZM81.4062 63.1677C80.3021 63.1677 79.4922 62.9698 78.9766 62.574C78.4661 62.1729 78.1823 61.5063 78.125 60.574L79.7891 60.574C79.8203 60.949 79.8906 61.2406 80 61.449C80.1146 61.6573 80.276 61.8084 80.4844 61.9021C80.6979 61.9906 81.0208 62.0349 81.4531 62.0349C81.9635 62.0349 82.3516 61.9229 82.6172 61.699C82.8828 61.4698 83.0443 61.0948 83.1016 60.574L84.7969 60.574C84.7187 61.4698 84.4036 62.1261 83.8516 62.5427C83.2995 62.9594 82.4844 63.1677 81.4062 63.1677ZM97.7031 64.2224L99.7187 64.2224L96.1484 68.3865L100.023 72.863L97.9141 72.863L94.1797 68.4802L94.1797 72.863L92.3437 72.863L92.3437 64.2224L94.1797 64.2224L94.1797 68.4177L97.7031 64.2224ZM109.117 68.5271C109.117 69.9386 108.755 71.0401 108.031 71.8318C107.307 72.6235 106.299 73.0193 105.008 73.0193C104.201 73.0193 103.487 72.837 102.867 72.4724C102.247 72.1078 101.771 71.5844 101.437 70.9021C101.104 70.2198 100.937 69.4281 100.937 68.5271C100.937 67.1261 101.297 66.0323 102.016 65.2459C102.734 64.4594 103.747 64.0662 105.055 64.0662C106.305 64.0662 107.294 64.4698 108.023 65.2771C108.753 66.0792 109.117 67.1625 109.117 68.5271ZM102.828 68.5271C102.828 70.5219 103.565 71.5193 105.039 71.5193C106.497 71.5193 107.227 70.5219 107.227 68.5271C107.227 66.5531 106.492 65.5662 105.023 65.5662C104.253 65.5662 103.693 65.8214 103.344 66.3318C103 66.8422 102.828 67.574 102.828 68.5271ZM116.195 71.1052L116.297 70.7302C116.51 69.9542 116.695 69.3578 116.852 68.9412L118.789 64.2224L121.234 64.2224L121.234 72.863L119.539 72.863L119.539 65.8865L119.398 66.3552C119.164 67.1938 118.966 67.811 118.805 68.2068L116.914 72.863L115.523 72.863L113.633 68.1755C113.372 67.4985 113.133 66.7354 112.914 65.8865L112.914 72.863L111.234 72.863L111.234 64.2224L113.664 64.2224L115.539 68.8005C115.706 69.2224 115.924 69.9906 116.195 71.1052ZM131.414 64.2224L131.414 72.863L129.57 72.863L129.57 65.6755L125.695 65.6755L125.695 72.863L123.859 72.863L123.859 64.2224L131.414 64.2224ZM141.148 72.863L139.297 72.863L139.297 65.6599L136.914 65.6599C136.768 67.5141 136.57 68.962 136.32 70.0037C136.076 71.0453 135.753 71.8057 135.352 72.2849C134.956 72.7641 134.44 73.0037 133.805 73.0037C133.404 73.0037 133.068 72.9464 132.797 72.8318L132.797 71.3943C132.99 71.4672 133.182 71.5037 133.375 71.5037C133.906 71.5037 134.323 70.9073 134.625 69.7146C134.932 68.5167 135.172 66.686 135.344 64.2224L141.148 64.2224L141.148 72.863ZM147.555 73.0193C146.211 73.0193 145.159 72.6287 144.398 71.8474C143.643 71.061 143.266 69.9802 143.266 68.6052C143.266 67.1938 143.617 66.0844 144.32 65.2771C145.023 64.4698 145.99 64.0662 147.219 64.0662C148.359 64.0662 149.26 64.4125 149.922 65.1052C150.583 65.7979 150.914 66.7511 150.914 67.9646L150.914 68.9568L145.156 68.9568C145.182 69.7953 145.409 70.4412 145.836 70.8943C146.263 71.3422 146.865 71.5662 147.641 71.5662C148.151 71.5662 148.625 71.5193 149.062 71.4255C149.505 71.3266 149.979 71.1651 150.484 70.9412L150.484 72.4334C150.036 72.6469 149.583 72.7979 149.125 72.8865C148.667 72.975 148.143 73.0193 147.555 73.0193ZM147.219 65.4568C146.635 65.4568 146.167 65.6417 145.812 66.0115C145.464 66.3813 145.255 66.9203 145.187 67.6287L149.109 67.6287C149.099 66.9151 148.927 66.3761 148.594 66.0115C148.26 65.6417 147.802 65.4568 147.219 65.4568ZM158.359 64.2224L160.375 64.2224L156.805 68.3865L160.68 72.863L158.57 72.863L154.836 68.4802L154.836 72.863L153 72.863L153 64.2224L154.836 64.2224L154.836 68.4177L158.359 64.2224ZM165.594 73.0193C164.286 73.0193 163.292 72.6391 162.609 71.8787C161.932 71.113 161.594 70.0167 161.594 68.5896C161.594 67.1365 161.948 66.0193 162.656 65.238C163.37 64.4568 164.398 64.0662 165.742 64.0662C166.654 64.0662 167.474 64.2354 168.203 64.574L167.648 66.0505C166.872 65.7485 166.232 65.5974 165.727 65.5974C164.232 65.5974 163.484 66.5896 163.484 68.574C163.484 69.5427 163.669 70.2719 164.039 70.7615C164.414 71.2459 164.961 71.488 165.68 71.488C166.497 71.488 167.271 71.2849 168 70.8787L168 72.4802C167.672 72.6729 167.32 72.811 166.945 72.8943C166.576 72.9776 166.125 73.0193 165.594 73.0193ZM172.875 64.2224L174.875 64.2224L176.633 69.1209C176.898 69.8188 177.076 70.475 177.164 71.0896L177.227 71.0896C177.273 70.8031 177.359 70.4568 177.484 70.0505C177.609 69.6391 178.271 67.6964 179.469 64.2224L181.453 64.2224L177.758 74.0115C177.086 75.8084 175.966 76.7068 174.398 76.7068C173.992 76.7068 173.596 76.6625 173.211 76.574L173.211 75.1209C173.487 75.1834 173.802 75.2146 174.156 75.2146C175.042 75.2146 175.664 74.7016 176.023 73.6755L176.344 72.863L172.875 64.2224ZM186.25 73.0193C184.943 73.0193 183.948 72.6391 183.266 71.8787C182.589 71.113 182.25 70.0167 182.25 68.5896C182.25 67.1365 182.604 66.0193 183.312 65.238C184.026 64.4568 185.055 64.0662 186.398 64.0662C187.31 64.0662 188.13 64.2354 188.859 64.574L188.305 66.0505C187.529 65.7485 186.888 65.5974 186.383 65.5974C184.888 65.5974 184.141 66.5896 184.141 68.574C184.141 69.5427 184.326 70.2719 184.695 70.7615C185.07 71.2459 185.617 71.488 186.336 71.488C187.154 71.488 187.927 71.2849 188.656 70.8787L188.656 72.4802C188.328 72.6729 187.977 72.811 187.602 72.8943C187.232 72.9776 186.781 73.0193 186.25 73.0193ZM197.789 72.863L195.937 72.863L195.937 65.6599L193.555 65.6599C193.409 67.5141 193.211 68.962 192.961 70.0037C192.716 71.0453 192.393 71.8057 191.992 72.2849C191.596 72.7641 191.081 73.0037 190.445 73.0037C190.044 73.0037 189.708 72.9464 189.437 72.8318L189.437 71.3943C189.63 71.4672 189.823 71.5037 190.016 71.5037C190.547 71.5037 190.964 70.9073 191.266 69.7146C191.573 68.5167 191.812 66.686 191.984 64.2224L197.789 64.2224L197.789 72.863ZM199.109 64.2224L201.109 64.2224L202.867 69.1209C203.133 69.8188 203.31 70.475 203.398 71.0896L203.461 71.0896C203.508 70.8031 203.594 70.4568 203.719 70.0505C203.844 69.6391 204.505 67.6964 205.703 64.2224L207.687 64.2224L203.992 74.0115C203.32 75.8084 202.201 76.7068 200.633 76.7068C200.227 76.7068 199.831 76.6625 199.445 76.574L199.445 75.1209C199.721 75.1834 200.036 75.2146 200.391 75.2146C201.276 75.2146 201.898 74.7016 202.258 73.6755L202.578 72.863L199.109 64.2224ZM214.586 64.2224L214.586 65.6599L210.836 65.6599L210.836 72.863L209 72.863L209 64.2224L214.586 64.2224ZM227.906 66.4334C227.906 67.4542 227.31 68.0714 226.117 68.2849L226.117 68.3474C226.784 68.4255 227.294 68.6365 227.648 68.9802C228.003 69.324 228.18 69.7693 228.18 70.3162C228.18 71.1339 227.867 71.7641 227.242 72.2068C226.622 72.6443 225.719 72.863 224.531 72.863L220.406 72.863L220.406 64.2224L224.516 64.2224C226.776 64.2224 227.906 64.9594 227.906 66.4334ZM226.297 70.2068C226.297 69.7901 226.135 69.4959 225.812 69.324C225.49 69.1469 225.005 69.0584 224.359 69.0584L222.242 69.0584L222.242 71.5037L224.406 71.5037C225.667 71.5037 226.297 71.0714 226.297 70.2068ZM226.07 66.5896C226.07 66.2459 225.935 65.9985 225.664 65.8474C225.398 65.6912 225 65.613 224.469 65.613L222.242 65.613L222.242 67.6912L224.195 67.6912C224.81 67.6912 225.276 67.613 225.594 67.4568C225.911 67.2953 226.07 67.0063 226.07 66.5896ZM241.898 68.5271C241.898 69.9386 241.536 71.0401 240.812 71.8318C240.089 72.6235 239.081 73.0193 237.789 73.0193C236.982 73.0193 236.268 72.837 235.648 72.4724C235.029 72.1078 234.552 71.5844 234.219 70.9021C233.885 70.2198 233.719 69.4281 233.719 68.5271C233.719 67.1261 234.078 66.0323 234.797 65.2459C235.516 64.4594 236.529 64.0662 237.836 64.0662C239.086 64.0662 240.076 64.4698 240.805 65.2771C241.534 66.0792 241.898 67.1625 241.898 68.5271ZM235.609 68.5271C235.609 70.5219 236.346 71.5193 237.82 71.5193C239.279 71.5193 240.008 70.5219 240.008 68.5271C240.008 66.5531 239.273 65.5662 237.805 65.5662C237.034 65.5662 236.474 65.8214 236.125 66.3318C235.781 66.8422 235.609 67.574 235.609 68.5271ZM243.516 67.6755C243.516 65.7485 243.841 64.2667 244.492 63.2302C245.148 62.1938 246.19 61.5271 247.617 61.2302C248.695 61.0115 249.937 60.7979 251.344 60.5896L251.602 62.2068C249.893 62.4672 248.643 62.6703 247.852 62.8162C247.034 62.9672 246.443 63.3031 246.078 63.824C245.719 64.3448 245.51 65.1287 245.453 66.1755L245.57 66.1755C245.867 65.7432 246.255 65.4099 246.734 65.1755C247.214 64.936 247.727 64.8162 248.273 64.8162C249.336 64.8162 250.164 65.1521 250.758 65.824C251.352 66.4959 251.648 67.4386 251.648 68.6521C251.648 70.0427 251.286 71.1182 250.562 71.8787C249.844 72.6391 248.846 73.0193 247.57 73.0193C246.305 73.0193 245.312 72.5505 244.594 71.613C243.875 70.6755 243.516 69.363 243.516 67.6755ZM247.695 71.5193C249.06 71.5193 249.742 70.6235 249.742 68.8318C249.742 67.1026 249.125 66.238 247.891 66.238C247.552 66.238 247.224 66.311 246.906 66.4568C246.589 66.6026 246.294 66.7953 246.023 67.0349C245.758 67.2745 245.552 67.5219 245.406 67.7771C245.406 69.0063 245.602 69.9386 245.992 70.574C246.383 71.2042 246.951 71.5193 247.695 71.5193ZM260.867 72.863L259.016 72.863L259.016 65.6599L256.633 65.6599C256.487 67.5141 256.289 68.962 256.039 70.0037C255.794 71.0453 255.471 71.8057 255.07 72.2849C254.674 72.7641 254.159 73.0037 253.523 73.0037C253.122 73.0037 252.786 72.9464 252.516 72.8318L252.516 71.3943C252.708 71.4672 252.901 71.5037 253.094 71.5037C253.625 71.5037 254.042 70.9073 254.344 69.7146C254.651 68.5167 254.891 66.686 255.062 64.2224L260.867 64.2224L260.867 72.863ZM268.906 72.863L268.539 71.6599L268.477 71.6599C268.06 72.186 267.641 72.5453 267.219 72.738C266.797 72.9255 266.255 73.0193 265.594 73.0193C264.745 73.0193 264.081 72.7901 263.602 72.3318C263.128 71.8735 262.891 71.225 262.891 70.3865C262.891 69.4959 263.221 68.824 263.883 68.3709C264.544 67.9177 265.552 67.6703 266.906 67.6287L268.398 67.5818L268.398 67.1209C268.398 66.5688 268.268 66.1573 268.008 65.8865C267.753 65.6104 267.354 65.4724 266.812 65.4724C266.37 65.4724 265.945 65.5375 265.539 65.6677C265.133 65.7979 264.742 65.9516 264.367 66.1287L263.773 64.8162C264.242 64.5714 264.755 64.3865 265.312 64.2615C265.87 64.1313 266.396 64.0662 266.891 64.0662C267.99 64.0662 268.818 64.3057 269.375 64.7849C269.937 65.2641 270.219 66.0167 270.219 67.0427L270.219 72.863L268.906 72.863ZM266.172 71.613C266.839 71.613 267.372 71.4281 267.773 71.0584C268.18 70.6834 268.383 70.1599 268.383 69.488L268.383 68.738L267.273 68.7849C266.409 68.8162 265.779 68.962 265.383 69.2224C264.992 69.4776 264.797 69.8709 264.797 70.4021C264.797 70.7875 264.911 71.087 265.141 71.3005C265.37 71.5089 265.714 71.613 266.172 71.613ZM276.266 73.0193C274.958 73.0193 273.964 72.6391 273.281 71.8787C272.604 71.113 272.266 70.0167 272.266 68.5896C272.266 67.1365 272.62 66.0193 273.328 65.238C274.042 64.4568 275.07 64.0662 276.414 64.0662C277.326 64.0662 278.146 64.2354 278.875 64.574L278.32 66.0505C277.544 65.7485 276.904 65.5974 276.398 65.5974C274.904 65.5974 274.156 66.5896 274.156 68.574C274.156 69.5427 274.341 70.2719 274.711 70.7615C275.086 71.2459 275.633 71.488 276.352 71.488C277.169 71.488 277.943 71.2849 278.672 70.8787L278.672 72.4802C278.344 72.6729 277.992 72.811 277.617 72.8943C277.247 72.9776 276.797 73.0193 276.266 73.0193ZM287.195 64.2224L287.195 65.6599L284.383 65.6599L284.383 72.863L282.539 72.863L282.539 65.6599L279.727 65.6599L279.727 64.2224L287.195 64.2224ZM290.617 64.2224L290.617 68.6521C290.617 69.1677 290.576 69.9255 290.492 70.9255L294.828 64.2224L297.07 64.2224L297.07 72.863L295.305 72.863L295.305 68.5115C295.305 68.2719 295.318 67.8839 295.344 67.3474C295.375 66.811 295.401 66.4203 295.422 66.1755L291.102 72.863L288.859 72.863L288.859 64.2224L290.617 64.2224ZM307.328 73.0193C306.021 73.0193 305.026 72.6391 304.344 71.8787C303.667 71.113 303.328 70.0167 303.328 68.5896C303.328 67.1365 303.682 66.0193 304.391 65.238C305.104 64.4568 306.133 64.0662 307.477 64.0662C308.388 64.0662 309.208 64.2354 309.937 64.574L309.383 66.0505C308.607 65.7485 307.966 65.5974 307.461 65.5974C305.966 65.5974 305.219 66.5896 305.219 68.574C305.219 69.5427 305.404 70.2719 305.773 70.7615C306.148 71.2459 306.695 71.488 307.414 71.488C308.232 71.488 309.005 71.2849 309.734 70.8787L309.734 72.4802C309.406 72.6729 309.055 72.811 308.68 72.8943C308.31 72.9776 307.859 73.0193 307.328 73.0193ZM319.43 68.5271C319.43 69.9386 319.068 71.0401 318.344 71.8318C317.62 72.6235 316.612 73.0193 315.32 73.0193C314.513 73.0193 313.799 72.837 313.18 72.4724C312.56 72.1078 312.083 71.5844 311.75 70.9021C311.417 70.2198 311.25 69.4281 311.25 68.5271C311.25 67.1261 311.609 66.0323 312.328 65.2459C313.047 64.4594 314.06 64.0662 315.367 64.0662C316.617 64.0662 317.607 64.4698 318.336 65.2771C319.065 66.0792 319.43 67.1625 319.43 68.5271ZM313.141 68.5271C313.141 70.5219 313.878 71.5193 315.352 71.5193C316.81 71.5193 317.539 70.5219 317.539 68.5271C317.539 66.5531 316.805 65.5662 315.336 65.5662C314.565 65.5662 314.005 65.8214 313.656 66.3318C313.312 66.8422 313.141 67.574 313.141 68.5271ZM323.453 67.6755C324.292 67.6755 324.909 67.5844 325.305 67.4021C325.701 67.2146 325.898 66.9281 325.898 66.5427C325.898 65.8396 325.273 65.488 324.023 65.488C323.19 65.488 322.339 65.6755 321.469 66.0505L320.875 64.6834C321.88 64.2719 322.99 64.0662 324.203 64.0662C325.276 64.0662 326.109 64.2641 326.703 64.6599C327.297 65.0505 327.594 65.613 327.594 66.3474C327.594 67.3162 327.039 67.9516 325.93 68.2537L325.93 68.3162C326.622 68.5037 327.117 68.7719 327.414 69.1209C327.716 69.4698 327.867 69.9021 327.867 70.4177C327.867 71.2094 327.518 71.8422 326.82 72.3162C326.128 72.7849 325.159 73.0193 323.914 73.0193C322.555 73.0193 321.516 72.8396 320.797 72.4802L320.797 70.8943C321.75 71.3422 322.737 71.5662 323.758 71.5662C324.492 71.5662 325.057 71.4646 325.453 71.2615C325.854 71.0531 326.055 70.738 326.055 70.3162C326.055 69.8839 325.854 69.5662 325.453 69.363C325.052 69.1599 324.432 69.0584 323.594 69.0584L322.539 69.0584L322.539 67.6755L323.453 67.6755ZM338.148 75.9177L336.437 75.9177L336.437 72.863L330.516 72.863L330.516 75.9177L328.82 75.9177L328.82 71.4412L329.523 71.4412C330.138 70.561 330.625 69.4985 330.984 68.2537C331.349 67.0037 331.565 65.6599 331.633 64.2224L336.883 64.2224L336.883 71.4412L338.148 71.4412L338.148 75.9177ZM335.078 71.4412L335.078 65.6287L333.219 65.6287C333.12 66.7016 332.911 67.7589 332.594 68.8005C332.281 69.8422 331.898 70.7224 331.445 71.4412L335.078 71.4412ZM345.156 72.863L344.789 71.6599L344.727 71.6599C344.31 72.186 343.891 72.5453 343.469 72.738C343.047 72.9255 342.505 73.0193 341.844 73.0193C340.995 73.0193 340.331 72.7901 339.852 72.3318C339.378 71.8735 339.141 71.225 339.141 70.3865C339.141 69.4959 339.471 68.824 340.133 68.3709C340.794 67.9177 341.802 67.6703 343.156 67.6287L344.648 67.5818L344.648 67.1209C344.648 66.5688 344.518 66.1573 344.258 65.8865C344.003 65.6104 343.604 65.4724 343.062 65.4724C342.62 65.4724 342.195 65.5375 341.789 65.6677C341.383 65.7979 340.992 65.9516 340.617 66.1287L340.023 64.8162C340.492 64.5714 341.005 64.3865 341.562 64.2615C342.12 64.1313 342.646 64.0662 343.141 64.0662C344.24 64.0662 345.068 64.3057 345.625 64.7849C346.187 65.2641 346.469 66.0167 346.469 67.0427L346.469 72.863L345.156 72.863ZM342.422 71.613C343.089 71.613 343.622 71.4281 344.023 71.0584C344.43 70.6834 344.633 70.1599 344.633 69.488L344.633 68.738L343.523 68.7849C342.659 68.8162 342.029 68.962 341.633 69.2224C341.242 69.4776 341.047 69.8709 341.047 70.4021C341.047 70.7875 341.161 71.087 341.391 71.3005C341.62 71.5089 341.964 71.613 342.422 71.613ZM350.867 64.2224L350.867 67.6912L354.937 67.6912L354.937 64.2224L356.773 64.2224L356.773 72.863L354.937 72.863L354.937 69.1365L350.867 69.1365L350.867 72.863L349.031 72.863L349.031 64.2224L350.867 64.2224ZM361.164 64.2224L361.164 68.6521C361.164 69.1677 361.122 69.9255 361.039 70.9255L365.375 64.2224L367.617 64.2224L367.617 72.863L365.852 72.863L365.852 68.5115C365.852 68.2719 365.865 67.8839 365.891 67.3474C365.922 66.811 365.948 66.4203 365.969 66.1755L361.648 72.863L359.406 72.863L359.406 64.2224L361.164 64.2224ZM371.117 72.863L369.062 72.863L371.469 69.324C370.885 69.1573 370.427 68.8604 370.094 68.4334C369.76 68.0011 369.594 67.4672 369.594 66.8318C369.594 66.0141 369.885 65.3761 370.469 64.9177C371.052 64.4542 371.849 64.2224 372.859 64.2224L376.797 64.2224L376.797 72.863L374.953 72.863L374.953 69.5349L373.211 69.5349L371.117 72.863ZM371.383 66.8474C371.383 67.2901 371.549 67.6235 371.883 67.8474C372.221 68.0662 372.674 68.1755 373.242 68.1755L374.953 68.1755L374.953 65.613L372.953 65.613C372.453 65.613 372.065 65.7198 371.789 65.9334C371.518 66.1469 371.383 66.4516 371.383 66.8474ZM31.8672 86.2224L31.8672 94.863L30.0234 94.863L30.0234 87.6755L26.1484 87.6755L26.1484 94.863L24.3125 94.863L24.3125 86.2224L31.8672 86.2224ZM38.8828 95.0193C37.7891 95.0193 36.9401 94.6261 36.3359 93.8396L36.2266 93.8396C36.2995 94.5688 36.3359 95.0115 36.3359 95.1677L36.3359 98.7068L34.5 98.7068L34.5 86.2224L35.9844 86.2224C36.026 86.3839 36.112 86.7693 36.2422 87.3787L36.3359 87.3787C36.9089 86.5037 37.7682 86.0662 38.9141 86.0662C39.9922 86.0662 40.8307 86.4568 41.4297 87.238C42.0339 88.0193 42.3359 89.1156 42.3359 90.5271C42.3359 91.9386 42.0286 93.0401 41.4141 93.8318C40.8047 94.6235 39.9609 95.0193 38.8828 95.0193ZM38.4375 87.5662C37.7083 87.5662 37.1745 87.7797 36.8359 88.2068C36.5026 88.6339 36.3359 89.3162 36.3359 90.2537L36.3359 90.5271C36.3359 91.5792 36.5026 92.3422 36.8359 92.8162C37.1693 93.2849 37.7135 93.5193 38.4687 93.5193C39.1042 93.5193 39.5937 93.2589 39.9375 92.738C40.2812 92.2172 40.4531 91.475 40.4531 90.5115C40.4531 89.5427 40.2812 88.811 39.9375 88.3162C39.599 87.8162 39.099 87.5662 38.4375 87.5662ZM52.1328 90.5271C52.1328 91.9386 51.7708 93.0401 51.0469 93.8318C50.3229 94.6235 49.3151 95.0193 48.0234 95.0193C47.2161 95.0193 46.5026 94.837 45.8828 94.4724C45.263 94.1078 44.7865 93.5844 44.4531 92.9021C44.1198 92.2198 43.9531 91.4281 43.9531 90.5271C43.9531 89.1261 44.3125 88.0323 45.0312 87.2458C45.75 86.4594 46.763 86.0662 48.0703 86.0662C49.3203 86.0662 50.3099 86.4698 51.0391 87.2771C51.7682 88.0792 52.1328 89.1625 52.1328 90.5271ZM45.8437 90.5271C45.8437 92.5219 46.5807 93.5193 48.0547 93.5193C49.513 93.5193 50.2422 92.5219 50.2422 90.5271C50.2422 88.5531 49.5078 87.5662 48.0391 87.5662C47.2682 87.5662 46.7083 87.8214 46.3594 88.3318C46.0156 88.8422 45.8437 89.574 45.8437 90.5271ZM62.5391 97.9177L60.8281 97.9177L60.8281 94.863L54.9062 94.863L54.9062 97.9177L53.2109 97.9177L53.2109 93.4412L53.9141 93.4412C54.5286 92.561 55.0156 91.4985 55.375 90.2537C55.7396 89.0037 55.9557 87.6599 56.0234 86.2224L61.2734 86.2224L61.2734 93.4412L62.5391 93.4412L62.5391 97.9177ZM59.4687 93.4412L59.4687 87.6287L57.6094 87.6287C57.5104 88.7016 57.3021 89.7589 56.9844 90.8005C56.6719 91.8422 56.2891 92.7224 55.8359 93.4412L59.4687 93.4412ZM62.8281 86.2224L64.8281 86.2224L66.5859 91.1209C66.8516 91.8188 67.0286 92.475 67.1172 93.0896L67.1797 93.0896C67.2266 92.8031 67.3125 92.4568 67.4375 92.0505C67.5625 91.6391 68.224 89.6964 69.4219 86.2224L71.4062 86.2224L67.7109 96.0115C67.0391 97.8084 65.9193 98.7068 64.3516 98.7068C63.9453 98.7068 63.5495 98.6625 63.1641 98.574L63.1641 97.1209C63.4401 97.1834 63.7552 97.2146 64.1094 97.2146C64.9948 97.2146 65.6172 96.7016 65.9766 95.6755L66.2969 94.863L62.8281 86.2224ZM78.0781 86.2224L80.0937 86.2224L76.5234 90.3865L80.3984 94.863L78.2891 94.863L74.5547 90.4802L74.5547 94.863L72.7187 94.863L72.7187 86.2224L74.5547 86.2224L74.5547 90.4177L78.0781 86.2224ZM89.5234 93.4412L90.7734 93.4412L90.7734 97.9021L89.0469 97.9021L89.0469 94.863L81.8281 94.863L81.8281 86.2224L83.6641 86.2224L83.6641 93.4099L87.6875 93.4099L87.6875 86.2224L89.5234 86.2224L89.5234 93.4412ZM94.1016 86.2224L94.1016 90.6521C94.1016 91.1677 94.0599 91.9255 93.9766 92.9255L98.3125 86.2224L100.555 86.2224L100.555 94.863L98.7891 94.863L98.7891 90.5115C98.7891 90.2719 98.8021 89.8839 98.8281 89.3474C98.8594 88.811 98.8854 88.4203 98.9062 88.1755L94.5859 94.863L92.3437 94.863L92.3437 86.2224L94.1016 86.2224ZM104.93 86.2224L104.93 90.6521C104.93 91.1677 104.888 91.9255 104.805 92.9255L109.141 86.2224L111.383 86.2224L111.383 94.863L109.617 94.863L109.617 90.5115C109.617 90.2719 109.63 89.8839 109.656 89.3474C109.687 88.811 109.714 88.4203 109.734 88.1755L105.414 94.863L103.172 94.863L103.172 86.2224L104.93 86.2224ZM119.914 86.2224L119.914 90.6521C119.914 91.1677 119.872 91.9255 119.789 92.9255L124.125 86.2224L126.367 86.2224L126.367 94.863L124.602 94.863L124.602 90.5115C124.602 90.2719 124.615 89.8839 124.641 89.3474C124.672 88.811 124.698 88.4203 124.719 88.1755L120.398 94.863L118.156 94.863L118.156 86.2224L119.914 86.2224ZM130.891 89.6755C131.729 89.6755 132.346 89.5844 132.742 89.4021C133.138 89.2146 133.336 88.9281 133.336 88.5427C133.336 87.8396 132.711 87.488 131.461 87.488C130.628 87.488 129.776 87.6755 128.906 88.0505L128.312 86.6834C129.318 86.2719 130.427 86.0662 131.641 86.0662C132.714 86.0662 133.547 86.2641 134.141 86.6599C134.734 87.0505 135.031 87.613 135.031 88.3474C135.031 89.3162 134.477 89.9516 133.367 90.2537L133.367 90.3162C134.06 90.5037 134.555 90.7719 134.852 91.1209C135.154 91.4698 135.305 91.9021 135.305 92.4177C135.305 93.2094 134.956 93.8422 134.258 94.3162C133.565 94.7849 132.596 95.0193 131.352 95.0193C129.992 95.0193 128.953 94.8396 128.234 94.4802L128.234 92.8943C129.187 93.3422 130.174 93.5662 131.195 93.5662C131.93 93.5662 132.495 93.4646 132.891 93.2615C133.292 93.0531 133.492 92.738 133.492 92.3162C133.492 91.8839 133.292 91.5662 132.891 91.363C132.49 91.1599 131.87 91.0584 131.031 91.0584L129.977 91.0584L129.977 89.6755L130.891 89.6755ZM149.008 86.2224L149.008 94.863L147.164 94.863L147.164 87.6755L143.289 87.6755L143.289 94.863L141.453 94.863L141.453 86.2224L149.008 86.2224ZM159.305 90.5271C159.305 91.9386 158.943 93.0401 158.219 93.8318C157.495 94.6235 156.487 95.0193 155.195 95.0193C154.388 95.0193 153.674 94.837 153.055 94.4724C152.435 94.1078 151.958 93.5844 151.625 92.9021C151.292 92.2198 151.125 91.4281 151.125 90.5271C151.125 89.1261 151.484 88.0323 152.203 87.2459C152.922 86.4594 153.935 86.0662 155.242 86.0662C156.492 86.0662 157.482 86.4698 158.211 87.2771C158.94 88.0792 159.305 89.1625 159.305 90.5271ZM153.016 90.5271C153.016 92.5219 153.753 93.5193 155.227 93.5193C156.685 93.5193 157.414 92.5219 157.414 90.5271C157.414 88.5531 156.68 87.5662 155.211 87.5662C154.44 87.5662 153.88 87.8214 153.531 88.3318C153.187 88.8422 153.016 89.574 153.016 90.5271ZM168.523 94.863L166.672 94.863L166.672 87.6599L164.289 87.6599C164.143 89.5141 163.945 90.962 163.695 92.0037C163.451 93.0453 163.128 93.8057 162.727 94.2849C162.331 94.7641 161.815 95.0037 161.18 95.0037C160.779 95.0037 160.443 94.9464 160.172 94.8318L160.172 93.3943C160.365 93.4672 160.557 93.5037 160.75 93.5037C161.281 93.5037 161.698 92.9073 162 91.7146C162.307 90.5167 162.547 88.686 162.719 86.2224L168.523 86.2224L168.523 94.863ZM172.914 86.2224L172.914 90.6521C172.914 91.1677 172.872 91.9255 172.789 92.9255L177.125 86.2224L179.367 86.2224L179.367 94.863L177.602 94.863L177.602 90.5115C177.602 90.2719 177.615 89.8839 177.641 89.3474C177.672 88.811 177.698 88.4203 177.719 88.1755L173.398 94.863L171.156 94.863L171.156 86.2224L172.914 86.2224ZM186.945 93.1052L187.047 92.7302C187.26 91.9542 187.445 91.3578 187.602 90.9412L189.539 86.2224L191.984 86.2224L191.984 94.863L190.289 94.863L190.289 87.8865L190.148 88.3552C189.914 89.1938 189.716 89.811 189.555 90.2068L187.664 94.863L186.273 94.863L184.383 90.1755C184.122 89.4985 183.883 88.7354 183.664 87.8865L183.664 94.863L181.984 94.863L181.984 86.2224L184.414 86.2224L186.289 90.8005C186.456 91.2224 186.674 91.9906 186.945 93.1052ZM198.383 95.0193C197.039 95.0193 195.987 94.6287 195.227 93.8474C194.471 93.061 194.094 91.9802 194.094 90.6052C194.094 89.1938 194.445 88.0844 195.148 87.2771C195.852 86.4698 196.818 86.0662 198.047 86.0662C199.187 86.0662 200.089 86.4125 200.75 87.1052C201.411 87.7979 201.742 88.7511 201.742 89.9646L201.742 90.9568L195.984 90.9568C196.01 91.7953 196.237 92.4412 196.664 92.8943C197.091 93.3422 197.693 93.5662 198.469 93.5662C198.979 93.5662 199.453 93.5193 199.891 93.4255C200.333 93.3266 200.807 93.1651 201.312 92.9412L201.312 94.4334C200.865 94.6469 200.411 94.7979 199.953 94.8865C199.495 94.975 198.971 95.0193 198.383 95.0193ZM198.047 87.4568C197.464 87.4568 196.995 87.6417 196.641 88.0115C196.292 88.3813 196.083 88.9203 196.016 89.6287L199.937 89.6287C199.927 88.9151 199.755 88.3761 199.422 88.0115C199.089 87.6417 198.63 87.4568 198.047 87.4568ZM208.211 95.0193C207.117 95.0193 206.268 94.6261 205.664 93.8396L205.555 93.8396C205.628 94.5688 205.664 95.0115 205.664 95.1677L205.664 98.7068L203.828 98.7068L203.828 86.2224L205.312 86.2224C205.354 86.3839 205.44 86.7693 205.57 87.3787L205.664 87.3787C206.237 86.5037 207.096 86.0662 208.242 86.0662C209.32 86.0662 210.159 86.4568 210.758 87.238C211.362 88.0193 211.664 89.1156 211.664 90.5271C211.664 91.9386 211.357 93.0401 210.742 93.8318C210.133 94.6235 209.289 95.0193 208.211 95.0193ZM207.766 87.5662C207.036 87.5662 206.503 87.7797 206.164 88.2068C205.831 88.6339 205.664 89.3162 205.664 90.2537L205.664 90.5271C205.664 91.5792 205.831 92.3422 206.164 92.8162C206.497 93.2849 207.042 93.5193 207.797 93.5193C208.432 93.5193 208.922 93.2589 209.266 92.738C209.609 92.2172 209.781 91.475 209.781 90.5115C209.781 89.5427 209.609 88.811 209.266 88.3162C208.927 87.8162 208.427 87.5662 207.766 87.5662ZM215.633 86.2224L215.633 89.6912L219.703 89.6912L219.703 86.2224L221.539 86.2224L221.539 94.863L219.703 94.863L219.703 91.1365L215.633 91.1365L215.633 94.863L213.797 94.863L213.797 86.2224L215.633 86.2224ZM226.008 89.6755L227.758 89.6755C228.966 89.6755 229.859 89.8839 230.437 90.3005C231.016 90.7172 231.305 91.3422 231.305 92.1755C231.305 93.0662 231.003 93.738 230.398 94.1912C229.799 94.6391 228.919 94.863 227.758 94.863L224.172 94.863L224.172 86.2224L226.008 86.2224L226.008 89.6755ZM229.484 92.2224C229.484 91.7901 229.323 91.488 229 91.3162C228.682 91.1443 228.224 91.0584 227.625 91.0584L226.008 91.0584L226.008 93.5037L227.391 93.5037C228.13 93.5037 228.664 93.3995 228.992 93.1912C229.32 92.9828 229.484 92.6599 229.484 92.2224ZM234.508 94.863L232.664 94.863L232.664 86.2224L234.508 86.2224L234.508 94.863ZM239.062 90.449L236.164 86.2224L238.258 86.2224L240.227 89.2459L242.211 86.2224L244.289 86.2224L241.383 90.449L244.437 94.863L242.359 94.863L240.227 91.6287L238.102 94.863L236.023 94.863L239.062 90.449ZM255.07 93.1052L255.172 92.7302C255.385 91.9542 255.57 91.3578 255.727 90.9412L257.664 86.2224L260.109 86.2224L260.109 94.863L258.414 94.863L258.414 87.8865L258.273 88.3552C258.039 89.1938 257.841 89.811 257.68 90.2068L255.789 94.863L254.398 94.863L252.508 90.1755C252.247 89.4985 252.008 88.7354 251.789 87.8865L251.789 94.863L250.109 94.863L250.109 86.2224L252.539 86.2224L254.414 90.8005C254.581 91.2224 254.799 91.9906 255.07 93.1052ZM268.141 94.863L267.773 93.6599L267.711 93.6599C267.294 94.186 266.875 94.5453 266.453 94.738C266.031 94.9255 265.49 95.0193 264.828 95.0193C263.979 95.0193 263.315 94.7901 262.836 94.3318C262.362 93.8735 262.125 93.225 262.125 92.3865C262.125 91.4959 262.456 90.824 263.117 90.3709C263.779 89.9177 264.786 89.6703 266.141 89.6287L267.633 89.5818L267.633 89.1209C267.633 88.5688 267.503 88.1573 267.242 87.8865C266.987 87.6104 266.589 87.4724 266.047 87.4724C265.604 87.4724 265.18 87.5375 264.773 87.6677C264.367 87.7979 263.977 87.9516 263.602 88.1287L263.008 86.8162C263.477 86.5714 263.99 86.3865 264.547 86.2615C265.104 86.1313 265.63 86.0662 266.125 86.0662C267.224 86.0662 268.052 86.3057 268.609 86.7849C269.172 87.2641 269.453 88.0167 269.453 89.0427L269.453 94.863L268.141 94.863ZM265.406 93.613C266.073 93.613 266.607 93.4281 267.008 93.0584C267.414 92.6834 267.617 92.1599 267.617 91.488L267.617 90.738L266.508 90.7849C265.643 90.8162 265.013 90.962 264.617 91.2224C264.227 91.4776 264.031 91.8709 264.031 92.4021C264.031 92.7875 264.146 93.087 264.375 93.3005C264.604 93.5089 264.948 93.613 265.406 93.613ZM278.508 86.2224L278.508 87.6599L275.695 87.6599L275.695 94.863L273.852 94.863L273.852 87.6599L271.039 87.6599L271.039 86.2224L278.508 86.2224ZM283.945 95.0193C282.602 95.0193 281.549 94.6287 280.789 93.8474C280.034 93.061 279.656 91.9802 279.656 90.6052C279.656 89.1938 280.008 88.0844 280.711 87.2771C281.414 86.4698 282.38 86.0662 283.609 86.0662C284.75 86.0662 285.651 86.4125 286.312 87.1052C286.974 87.7979 287.305 88.7511 287.305 89.9646L287.305 90.9568L281.547 90.9568C281.573 91.7953 281.799 92.4412 282.227 92.8943C282.654 93.3422 283.255 93.5662 284.031 93.5662C284.542 93.5662 285.016 93.5193 285.453 93.4255C285.896 93.3266 286.37 93.1651 286.875 92.9412L286.875 94.4334C286.427 94.6469 285.974 94.7979 285.516 94.8865C285.057 94.975 284.534 95.0193 283.945 95.0193ZM283.609 87.4568C283.026 87.4568 282.557 87.6417 282.203 88.0115C281.854 88.3813 281.646 88.9203 281.578 89.6287L285.5 89.6287C285.49 88.9151 285.318 88.3761 284.984 88.0115C284.651 87.6417 284.193 87.4568 283.609 87.4568ZM293.773 95.0193C292.68 95.0193 291.831 94.6261 291.227 93.8396L291.117 93.8396C291.19 94.5688 291.227 95.0115 291.227 95.1677L291.227 98.7068L289.391 98.7068L289.391 86.2224L290.875 86.2224C290.917 86.3839 291.003 86.7693 291.133 87.3787L291.227 87.3787C291.799 86.5037 292.659 86.0662 293.805 86.0662C294.883 86.0662 295.721 86.4568 296.32 87.238C296.924 88.0193 297.227 89.1156 297.227 90.5271C297.227 91.9386 296.919 93.0401 296.305 93.8318C295.695 94.6235 294.852 95.0193 293.773 95.0193ZM293.328 87.5662C292.599 87.5662 292.065 87.7797 291.727 88.2068C291.393 88.6339 291.227 89.3162 291.227 90.2537L291.227 90.5271C291.227 91.5792 291.393 92.3422 291.727 92.8162C292.06 93.2849 292.604 93.5193 293.359 93.5193C293.995 93.5193 294.484 93.2589 294.828 92.738C295.172 92.2172 295.344 91.475 295.344 90.5115C295.344 89.5427 295.172 88.811 294.828 88.3162C294.49 87.8162 293.99 87.5662 293.328 87.5662ZM301.117 86.2224L301.117 90.6521C301.117 91.1677 301.076 91.9255 300.992 92.9255L305.328 86.2224L307.57 86.2224L307.57 94.863L305.805 94.863L305.805 90.5115C305.805 90.2719 305.818 89.8839 305.844 89.3474C305.875 88.811 305.901 88.4203 305.922 88.1755L301.602 94.863L299.359 94.863L299.359 86.2224L301.117 86.2224ZM315.594 94.863L315.227 93.6599L315.164 93.6599C314.747 94.186 314.328 94.5453 313.906 94.738C313.484 94.9255 312.943 95.0193 312.281 95.0193C311.432 95.0193 310.768 94.7901 310.289 94.3318C309.815 93.8735 309.578 93.225 309.578 92.3865C309.578 91.4959 309.909 90.824 310.57 90.3709C311.232 89.9177 312.24 89.6703 313.594 89.6287L315.086 89.5818L315.086 89.1209C315.086 88.5688 314.956 88.1573 314.695 87.8865C314.44 87.6104 314.042 87.4724 313.5 87.4724C313.057 87.4724 312.633 87.5375 312.227 87.6677C311.82 87.7979 311.43 87.9516 311.055 88.1287L310.461 86.8162C310.93 86.5714 311.443 86.3865 312 86.2615C312.557 86.1313 313.083 86.0662 313.578 86.0662C314.677 86.0662 315.505 86.3057 316.062 86.7849C316.625 87.2641 316.906 88.0167 316.906 89.0427L316.906 94.863L315.594 94.863ZM312.859 93.613C313.526 93.613 314.06 93.4281 314.461 93.0584C314.867 92.6834 315.07 92.1599 315.07 91.488L315.07 90.738L313.961 90.7849C313.096 90.8162 312.466 90.962 312.07 91.2224C311.68 91.4776 311.484 91.8709 311.484 92.4021C311.484 92.7875 311.599 93.087 311.828 93.3005C312.057 93.5089 312.401 93.613 312.859 93.613ZM326.57 94.863L324.719 94.863L324.719 87.6599L322.336 87.6599C322.19 89.5141 321.992 90.962 321.742 92.0037C321.497 93.0453 321.174 93.8057 320.773 94.2849C320.378 94.7641 319.862 95.0037 319.227 95.0037C318.826 95.0037 318.49 94.9464 318.219 94.8318L318.219 93.3943C318.411 93.4672 318.604 93.5037 318.797 93.5037C319.328 93.5037 319.745 92.9073 320.047 91.7146C320.354 90.5167 320.594 88.686 320.766 86.2224L326.57 86.2224L326.57 94.863ZM336.867 90.5271C336.867 91.9386 336.505 93.0401 335.781 93.8318C335.057 94.6235 334.049 95.0193 332.758 95.0193C331.951 95.0193 331.237 94.837 330.617 94.4724C329.997 94.1078 329.521 93.5844 329.187 92.9021C328.854 92.2198 328.687 91.4281 328.687 90.5271C328.687 89.1261 329.047 88.0323 329.766 87.2459C330.484 86.4594 331.497 86.0662 332.805 86.0662C334.055 86.0662 335.044 86.4698 335.773 87.2771C336.503 88.0792 336.867 89.1625 336.867 90.5271ZM330.578 90.5271C330.578 92.5219 331.315 93.5193 332.789 93.5193C334.247 93.5193 334.977 92.5219 334.977 90.5271C334.977 88.5531 334.242 87.5662 332.773 87.5662C332.003 87.5662 331.443 87.8214 331.094 88.3318C330.75 88.8422 330.578 89.574 330.578 90.5271ZM346.484 88.4334C346.484 89.4542 345.888 90.0714 344.695 90.2849L344.695 90.3474C345.362 90.4255 345.872 90.6365 346.227 90.9802C346.581 91.324 346.758 91.7693 346.758 92.3162C346.758 93.1339 346.445 93.7641 345.82 94.2068C345.201 94.6443 344.297 94.863 343.109 94.863L338.984 94.863L338.984 86.2224L343.094 86.2224C345.354 86.2224 346.484 86.9594 346.484 88.4334ZM344.875 92.2068C344.875 91.7901 344.714 91.4959 344.391 91.324C344.068 91.1469 343.583 91.0584 342.937 91.0584L340.82 91.0584L340.82 93.5037L342.984 93.5037C344.245 93.5037 344.875 93.0714 344.875 92.2068ZM344.648 88.5896C344.648 88.2459 344.513 87.9985 344.242 87.8474C343.977 87.6912 343.578 87.613 343.047 87.613L340.82 87.613L340.82 89.6912L342.773 89.6912C343.388 89.6912 343.854 89.613 344.172 89.4568C344.49 89.2953 344.648 89.0063 344.648 88.5896Z" fill="white"/>
<defs>
<linearGradient id="paint0_linear" x1="560.597" y1="17.863" x2="222.859" y2="575.313" gradientUnits="userSpaceOnUse">
<stop stop-color="#89F1FF"/>
<stop offset="1" stop-color="#2983EE"/>
</linearGradient>
</defs>
</svg>
