<svg width="409" height="103" viewBox="0 0 409 103" fill="none" xmlns="http://www.w3.org/2000/svg">
<path fill-rule="evenodd" clip-rule="evenodd" d="M371 0C384.255 0 395 10.7452 395 24V77.0193C398.65 80.5923 403.544 83.4379 409 82.2758C406.054 84.9827 400.151 88.4341 392.899 88.8354C389.142 97.1858 380.75 103 371 103H23.9999C10.7451 103 -6.10352e-05 92.2548 -6.10352e-05 79V24C-6.10352e-05 10.7452 10.7451 0 23.9999 0H371Z" fill="url(#paint0_linear)"/>
<path d="M30.1702 33H27.9749L23.2717 27.2109V33H21.4045V21.5781H23.2717V27.1094L27.8967 21.5781H29.9436L25.3342 27.0938L30.1702 33ZM39.1545 28.6641C39.1545 30.0755 38.7926 31.1771 38.0686 31.9688C37.3446 32.7604 36.3368 33.1562 35.0452 33.1562C34.2379 33.1562 33.5243 32.974 32.9045 32.6094C32.2847 32.2448 31.8082 31.7214 31.4749 31.0391C31.1415 30.3568 30.9749 29.5651 30.9749 28.6641C30.9749 27.263 31.3342 26.1693 32.053 25.3828C32.7717 24.5964 33.7847 24.2031 35.092 24.2031C36.342 24.2031 37.3316 24.6068 38.0608 25.4141C38.79 26.2161 39.1545 27.2995 39.1545 28.6641ZM32.8655 28.6641C32.8655 30.6589 33.6025 31.6562 35.0764 31.6562C36.5347 31.6562 37.2639 30.6589 37.2639 28.6641C37.2639 26.6901 36.5295 25.7031 35.0608 25.7031C34.29 25.7031 33.7301 25.9583 33.3811 26.4688C33.0374 26.9792 32.8655 27.7109 32.8655 28.6641ZM46.2327 31.2422L46.3342 30.8672C46.5478 30.0911 46.7327 29.4948 46.8889 29.0781L48.8264 24.3594H51.2717V33H49.5764V26.0234L49.4358 26.4922C49.2014 27.3307 49.0035 27.9479 48.842 28.3438L46.9514 33H45.5608L43.6702 28.3125C43.4097 27.6354 43.1702 26.8724 42.9514 26.0234V33H41.2717V24.3594H43.7014L45.5764 28.9375C45.7431 29.3594 45.9618 30.1276 46.2327 31.2422ZM61.4514 24.3594V33H59.6077V25.8125H55.7327V33H53.8967V24.3594H61.4514ZM69.4905 33L69.1233 31.7969H69.0608C68.6441 32.3229 68.2249 32.6823 67.803 32.875C67.3811 33.0625 66.8394 33.1562 66.178 33.1562C65.329 33.1562 64.665 32.9271 64.1858 32.4688C63.7118 32.0104 63.4749 31.362 63.4749 30.5234C63.4749 29.6328 63.8056 28.9609 64.467 28.5078C65.1285 28.0547 66.1363 27.8073 67.4905 27.7656L68.9827 27.7188V27.2578C68.9827 26.7057 68.8525 26.2943 68.592 26.0234C68.3368 25.7474 67.9384 25.6094 67.3967 25.6094C66.954 25.6094 66.5295 25.6745 66.1233 25.8047C65.717 25.9349 65.3264 26.0885 64.9514 26.2656L64.3577 24.9531C64.8264 24.7083 65.3394 24.5234 65.8967 24.3984C66.454 24.2682 66.9801 24.2031 67.4749 24.2031C68.5738 24.2031 69.4019 24.4427 69.9592 24.9219C70.5217 25.401 70.803 26.1536 70.803 27.1797V33H69.4905ZM66.7561 31.75C67.4228 31.75 67.9566 31.5651 68.3577 31.1953C68.7639 30.8203 68.967 30.2969 68.967 29.625V28.875L67.8577 28.9219C66.9931 28.9531 66.3629 29.099 65.967 29.3594C65.5764 29.6146 65.3811 30.0078 65.3811 30.5391C65.3811 30.9245 65.4957 31.224 65.7249 31.4375C65.954 31.6458 66.2978 31.75 66.7561 31.75ZM75.2014 24.3594V27.8281H79.2717V24.3594H81.1077V33H79.2717V29.2734H75.2014V33H73.3655V24.3594H75.2014ZM85.4983 24.3594V28.7891C85.4983 29.3047 85.4566 30.0625 85.3733 31.0625L89.7092 24.3594H91.9514V33H90.1858V28.6484C90.1858 28.4089 90.1988 28.0208 90.2249 27.4844C90.2561 26.9479 90.2821 26.5573 90.303 26.3125L85.9827 33H83.7405V24.3594H85.4983ZM95.4514 33H93.3967L95.803 29.4609C95.2196 29.2943 94.7613 28.9974 94.428 28.5703C94.0946 28.138 93.928 27.6042 93.928 26.9688C93.928 26.151 94.2196 25.513 94.803 25.0547C95.3863 24.5911 96.1832 24.3594 97.1936 24.3594H101.131V33H99.2874V29.6719H97.5452L95.4514 33ZM95.717 26.9844C95.717 27.4271 95.8837 27.7604 96.217 27.9844C96.5556 28.2031 97.0087 28.3125 97.5764 28.3125H99.2874V25.75H97.2874C96.7874 25.75 96.3993 25.8568 96.1233 26.0703C95.8525 26.2839 95.717 26.5885 95.717 26.9844ZM109.451 21.5781L109.131 25.7031H107.959L107.639 21.5781H109.451ZM112.537 21.5781L112.217 25.7031H111.045L110.725 21.5781H112.537ZM113.678 31.3984H114.561C115.316 30.0182 115.949 28.4688 116.459 26.75C116.97 25.0312 117.298 23.3073 117.444 21.5781H123.342V31.3984H124.819V36.1484H123.022V33H115.475V36.1484H113.678V31.3984ZM119.006 23.1953C118.892 24.3776 118.6 25.75 118.131 27.3125C117.662 28.8698 117.128 30.2318 116.53 31.3984H121.475V23.1953H119.006ZM134.139 28.6641C134.139 30.0755 133.777 31.1771 133.053 31.9688C132.329 32.7604 131.321 33.1562 130.03 33.1562C129.222 33.1562 128.509 32.974 127.889 32.6094C127.269 32.2448 126.793 31.7214 126.459 31.0391C126.126 30.3568 125.959 29.5651 125.959 28.6641C125.959 27.263 126.319 26.1693 127.037 25.3828C127.756 24.5964 128.769 24.2031 130.076 24.2031C131.326 24.2031 132.316 24.6068 133.045 25.4141C133.774 26.2161 134.139 27.2995 134.139 28.6641ZM127.85 28.6641C127.85 30.6589 128.587 31.6562 130.061 31.6562C131.519 31.6562 132.248 30.6589 132.248 28.6641C132.248 26.6901 131.514 25.7031 130.045 25.7031C129.274 25.7031 128.714 25.9583 128.365 26.4688C128.022 26.9792 127.85 27.7109 127.85 28.6641ZM140.639 33.1562C139.545 33.1562 138.696 32.763 138.092 31.9766H137.983C138.056 32.7057 138.092 33.1484 138.092 33.3047V36.8438H136.256V24.3594H137.74C137.782 24.5208 137.868 24.9062 137.998 25.5156H138.092C138.665 24.6406 139.524 24.2031 140.67 24.2031C141.748 24.2031 142.587 24.5938 143.186 25.375C143.79 26.1562 144.092 27.2526 144.092 28.6641C144.092 30.0755 143.785 31.1771 143.17 31.9688C142.561 32.7604 141.717 33.1562 140.639 33.1562ZM140.194 25.7031C139.464 25.7031 138.931 25.9167 138.592 26.3438C138.259 26.7708 138.092 27.4531 138.092 28.3906V28.6641C138.092 29.7161 138.259 30.4792 138.592 30.9531C138.925 31.4219 139.47 31.6562 140.225 31.6562C140.86 31.6562 141.35 31.3958 141.694 30.875C142.037 30.3542 142.209 29.612 142.209 28.6484C142.209 27.6797 142.037 26.9479 141.694 26.4531C141.355 25.9531 140.855 25.7031 140.194 25.7031ZM153.78 24.3594V33H151.936V25.8125H148.061V33H146.225V24.3594H153.78ZM163.514 33H161.662V25.7969H159.28C159.134 27.651 158.936 29.099 158.686 30.1406C158.441 31.1823 158.118 31.9427 157.717 32.4219C157.321 32.901 156.806 33.1406 156.17 33.1406C155.769 33.1406 155.433 33.0833 155.162 32.9688V31.5312C155.355 31.6042 155.548 31.6406 155.74 31.6406C156.272 31.6406 156.688 31.0443 156.99 29.8516C157.298 28.6536 157.537 26.8229 157.709 24.3594H163.514V33ZM171.553 33L171.186 31.7969H171.123C170.707 32.3229 170.287 32.6823 169.865 32.875C169.444 33.0625 168.902 33.1562 168.24 33.1562C167.392 33.1562 166.727 32.9271 166.248 32.4688C165.774 32.0104 165.537 31.362 165.537 30.5234C165.537 29.6328 165.868 28.9609 166.53 28.5078C167.191 28.0547 168.199 27.8073 169.553 27.7656L171.045 27.7188V27.2578C171.045 26.7057 170.915 26.2943 170.655 26.0234C170.399 25.7474 170.001 25.6094 169.459 25.6094C169.017 25.6094 168.592 25.6745 168.186 25.8047C167.78 25.9349 167.389 26.0885 167.014 26.2656L166.42 24.9531C166.889 24.7083 167.402 24.5234 167.959 24.3984C168.517 24.2682 169.043 24.2031 169.537 24.2031C170.636 24.2031 171.464 24.4427 172.022 24.9219C172.584 25.401 172.865 26.1536 172.865 27.1797V33H171.553ZM168.819 31.75C169.485 31.75 170.019 31.5651 170.42 31.1953C170.826 30.8203 171.03 30.2969 171.03 29.625V28.875L169.92 28.9219C169.056 28.9531 168.425 29.099 168.03 29.3594C167.639 29.6146 167.444 30.0078 167.444 30.5391C167.444 30.9245 167.558 31.224 167.787 31.4375C168.017 31.6458 168.36 31.75 168.819 31.75ZM178.912 33.1562C177.605 33.1562 176.61 32.776 175.928 32.0156C175.251 31.25 174.912 30.1536 174.912 28.7266C174.912 27.2734 175.267 26.1562 175.975 25.375C176.688 24.5938 177.717 24.2031 179.061 24.2031C179.972 24.2031 180.793 24.3724 181.522 24.7109L180.967 26.1875C180.191 25.8854 179.55 25.7344 179.045 25.7344C177.55 25.7344 176.803 26.7266 176.803 28.7109C176.803 29.6797 176.988 30.4089 177.358 30.8984C177.733 31.3828 178.28 31.625 178.998 31.625C179.816 31.625 180.589 31.4219 181.319 31.0156V32.6172C180.99 32.8099 180.639 32.9479 180.264 33.0312C179.894 33.1146 179.444 33.1562 178.912 33.1562ZM189.842 24.3594V25.7969H187.03V33H185.186V25.7969H182.373V24.3594H189.842ZM193.264 24.3594V28.7891C193.264 29.3047 193.222 30.0625 193.139 31.0625L197.475 24.3594H199.717V33H197.951V28.6484C197.951 28.4089 197.964 28.0208 197.99 27.4844C198.022 26.9479 198.048 26.5573 198.069 26.3125L193.748 33H191.506V24.3594H193.264ZM204.17 24.3594V27.8281H208.24V24.3594H210.076V33H208.24V29.2734H204.17V33H202.334V24.3594H204.17ZM220.209 26.5703C220.209 27.5911 219.613 28.2083 218.42 28.4219V28.4844C219.087 28.5625 219.597 28.7734 219.951 29.1172C220.306 29.4609 220.483 29.9062 220.483 30.4531C220.483 31.2708 220.17 31.901 219.545 32.3438C218.925 32.7812 218.022 33 216.834 33H212.709V24.3594H216.819C219.079 24.3594 220.209 25.0964 220.209 26.5703ZM218.6 30.3438C218.6 29.9271 218.438 29.6328 218.115 29.4609C217.793 29.2839 217.308 29.1953 216.662 29.1953H214.545V31.6406H216.709C217.97 31.6406 218.6 31.2083 218.6 30.3438ZM218.373 26.7266C218.373 26.3828 218.238 26.1354 217.967 25.9844C217.701 25.8281 217.303 25.75 216.772 25.75H214.545V27.8281H216.498C217.113 27.8281 217.579 27.75 217.897 27.5938C218.214 27.4323 218.373 27.1432 218.373 26.7266ZM226.155 33.1562C224.811 33.1562 223.759 32.7656 222.998 31.9844C222.243 31.1979 221.865 30.1172 221.865 28.7422C221.865 27.3307 222.217 26.2214 222.92 25.4141C223.623 24.6068 224.589 24.2031 225.819 24.2031C226.959 24.2031 227.86 24.5495 228.522 25.2422C229.183 25.9349 229.514 26.888 229.514 28.1016V29.0938H223.756C223.782 29.9323 224.009 30.5781 224.436 31.0312C224.863 31.4792 225.464 31.7031 226.24 31.7031C226.751 31.7031 227.225 31.6562 227.662 31.5625C228.105 31.4635 228.579 31.3021 229.084 31.0781V32.5703C228.636 32.7839 228.183 32.9349 227.725 33.0234C227.267 33.112 226.743 33.1562 226.155 33.1562ZM225.819 25.5938C225.235 25.5938 224.767 25.7786 224.412 26.1484C224.063 26.5182 223.855 27.0573 223.787 27.7656H227.709C227.699 27.0521 227.527 26.513 227.194 26.1484C226.86 25.7786 226.402 25.5938 225.819 25.5938ZM235.084 33.1562C233.777 33.1562 232.782 32.776 232.1 32.0156C231.423 31.25 231.084 30.1536 231.084 28.7266C231.084 27.2734 231.438 26.1562 232.147 25.375C232.86 24.5938 233.889 24.2031 235.233 24.2031C236.144 24.2031 236.964 24.3724 237.694 24.7109L237.139 26.1875C236.363 25.8854 235.722 25.7344 235.217 25.7344C233.722 25.7344 232.975 26.7266 232.975 28.7109C232.975 29.6797 233.16 30.4089 233.53 30.8984C233.905 31.3828 234.451 31.625 235.17 31.625C235.988 31.625 236.761 31.4219 237.49 31.0156V32.6172C237.162 32.8099 236.811 32.9479 236.436 33.0312C236.066 33.1146 235.615 33.1562 235.084 33.1562ZM246.014 24.3594V25.7969H243.201V33H241.358V25.7969H238.545V24.3594H246.014ZM249.217 21.5781L248.897 25.7031H247.725L247.405 21.5781H249.217ZM252.303 21.5781L251.983 25.7031H250.811L250.49 21.5781H252.303ZM266.373 24.3594V33H264.53V25.8125H260.655V33H258.819V24.3594H266.373ZM273.389 33.1562C272.295 33.1562 271.446 32.763 270.842 31.9766H270.733C270.806 32.7057 270.842 33.1484 270.842 33.3047V36.8438H269.006V24.3594H270.49C270.532 24.5208 270.618 24.9062 270.748 25.5156H270.842C271.415 24.6406 272.274 24.2031 273.42 24.2031C274.498 24.2031 275.337 24.5938 275.936 25.375C276.54 26.1562 276.842 27.2526 276.842 28.6641C276.842 30.0755 276.535 31.1771 275.92 31.9688C275.311 32.7604 274.467 33.1562 273.389 33.1562ZM272.944 25.7031C272.214 25.7031 271.681 25.9167 271.342 26.3438C271.009 26.7708 270.842 27.4531 270.842 28.3906V28.6641C270.842 29.7161 271.009 30.4792 271.342 30.9531C271.675 31.4219 272.22 31.6562 272.975 31.6562C273.61 31.6562 274.1 31.3958 274.444 30.875C274.787 30.3542 274.959 29.612 274.959 28.6484C274.959 27.6797 274.787 26.9479 274.444 26.4531C274.105 25.9531 273.605 25.7031 272.944 25.7031ZM282.748 33.1562C281.405 33.1562 280.352 32.7656 279.592 31.9844C278.837 31.1979 278.459 30.1172 278.459 28.7422C278.459 27.3307 278.811 26.2214 279.514 25.4141C280.217 24.6068 281.183 24.2031 282.412 24.2031C283.553 24.2031 284.454 24.5495 285.115 25.2422C285.777 25.9349 286.108 26.888 286.108 28.1016V29.0938H280.35C280.376 29.9323 280.602 30.5781 281.03 31.0312C281.457 31.4792 282.058 31.7031 282.834 31.7031C283.345 31.7031 283.819 31.6562 284.256 31.5625C284.699 31.4635 285.173 31.3021 285.678 31.0781V32.5703C285.23 32.7839 284.777 32.9349 284.319 33.0234C283.86 33.112 283.337 33.1562 282.748 33.1562ZM282.412 25.5938C281.829 25.5938 281.36 25.7786 281.006 26.1484C280.657 26.5182 280.449 27.0573 280.381 27.7656H284.303C284.293 27.0521 284.121 26.513 283.787 26.1484C283.454 25.7786 282.996 25.5938 282.412 25.5938ZM296.483 36.0547H294.772V33H288.85V36.0547H287.155V31.5781H287.858C288.472 30.6979 288.959 29.6354 289.319 28.3906C289.683 27.1406 289.899 25.7969 289.967 24.3594H295.217V31.5781H296.483V36.0547ZM293.412 31.5781V25.7656H291.553C291.454 26.8385 291.246 27.8958 290.928 28.9375C290.615 29.9792 290.233 30.8594 289.78 31.5781H293.412ZM305.186 33H303.334V25.7969H300.951C300.806 27.651 300.608 29.099 300.358 30.1406C300.113 31.1823 299.79 31.9427 299.389 32.4219C298.993 32.901 298.477 33.1406 297.842 33.1406C297.441 33.1406 297.105 33.0833 296.834 32.9688V31.5312C297.027 31.6042 297.22 31.6406 297.412 31.6406C297.944 31.6406 298.36 31.0443 298.662 29.8516C298.97 28.6536 299.209 26.8229 299.381 24.3594H305.186V33ZM313.225 33L312.858 31.7969H312.795C312.378 32.3229 311.959 32.6823 311.537 32.875C311.115 33.0625 310.574 33.1562 309.912 33.1562C309.063 33.1562 308.399 32.9271 307.92 32.4688C307.446 32.0104 307.209 31.362 307.209 30.5234C307.209 29.6328 307.54 28.9609 308.201 28.5078C308.863 28.0547 309.871 27.8073 311.225 27.7656L312.717 27.7188V27.2578C312.717 26.7057 312.587 26.2943 312.326 26.0234C312.071 25.7474 311.673 25.6094 311.131 25.6094C310.688 25.6094 310.264 25.6745 309.858 25.8047C309.451 25.9349 309.061 26.0885 308.686 26.2656L308.092 24.9531C308.561 24.7083 309.074 24.5234 309.631 24.3984C310.188 24.2682 310.714 24.2031 311.209 24.2031C312.308 24.2031 313.136 24.4427 313.694 24.9219C314.256 25.401 314.537 26.1536 314.537 27.1797V33H313.225ZM310.49 31.75C311.157 31.75 311.691 31.5651 312.092 31.1953C312.498 30.8203 312.701 30.2969 312.701 29.625V28.875L311.592 28.9219C310.727 28.9531 310.097 29.099 309.701 29.3594C309.311 29.6146 309.115 30.0078 309.115 30.5391C309.115 30.9245 309.23 31.224 309.459 31.4375C309.688 31.6458 310.032 31.75 310.49 31.75ZM322.686 24.3594V25.7969H318.936V33H317.1V24.3594H322.686ZM329.756 33L329.389 31.7969H329.326C328.91 32.3229 328.49 32.6823 328.069 32.875C327.647 33.0625 327.105 33.1562 326.444 33.1562C325.595 33.1562 324.931 32.9271 324.451 32.4688C323.977 32.0104 323.74 31.362 323.74 30.5234C323.74 29.6328 324.071 28.9609 324.733 28.5078C325.394 28.0547 326.402 27.8073 327.756 27.7656L329.248 27.7188V27.2578C329.248 26.7057 329.118 26.2943 328.858 26.0234C328.602 25.7474 328.204 25.6094 327.662 25.6094C327.22 25.6094 326.795 25.6745 326.389 25.8047C325.983 25.9349 325.592 26.0885 325.217 26.2656L324.623 24.9531C325.092 24.7083 325.605 24.5234 326.162 24.3984C326.72 24.2682 327.246 24.2031 327.74 24.2031C328.839 24.2031 329.668 24.4427 330.225 24.9219C330.787 25.401 331.069 26.1536 331.069 27.1797V33H329.756ZM327.022 31.75C327.688 31.75 328.222 31.5651 328.623 31.1953C329.03 30.8203 329.233 30.2969 329.233 29.625V28.875L328.123 28.9219C327.259 28.9531 326.628 29.099 326.233 29.3594C325.842 29.6146 325.647 30.0078 325.647 30.5391C325.647 30.9245 325.761 31.224 325.99 31.4375C326.22 31.6458 326.563 31.75 327.022 31.75ZM337.405 33.1562C336.061 33.1562 335.009 32.7656 334.248 31.9844C333.493 31.1979 333.115 30.1172 333.115 28.7422C333.115 27.3307 333.467 26.2214 334.17 25.4141C334.873 24.6068 335.839 24.2031 337.069 24.2031C338.209 24.2031 339.11 24.5495 339.772 25.2422C340.433 25.9349 340.764 26.888 340.764 28.1016V29.0938H335.006C335.032 29.9323 335.259 30.5781 335.686 31.0312C336.113 31.4792 336.714 31.7031 337.49 31.7031C338.001 31.7031 338.475 31.6562 338.912 31.5625C339.355 31.4635 339.829 31.3021 340.334 31.0781V32.5703C339.886 32.7839 339.433 32.9349 338.975 33.0234C338.517 33.112 337.993 33.1562 337.405 33.1562ZM337.069 25.5938C336.485 25.5938 336.017 25.7786 335.662 26.1484C335.313 26.5182 335.105 27.0573 335.037 27.7656H338.959C338.949 27.0521 338.777 26.513 338.444 26.1484C338.11 25.7786 337.652 25.5938 337.069 25.5938ZM349.342 24.3594V25.7969H346.53V33H344.686V25.7969H341.873V24.3594H349.342ZM28.7639 46.3594V55H26.9202V47.8125H23.0452V55H21.2092V46.3594H28.7639ZM39.0608 50.6641C39.0608 52.0755 38.6988 53.1771 37.9749 53.9688C37.2509 54.7604 36.2431 55.1562 34.9514 55.1562C34.1441 55.1562 33.4306 54.974 32.8108 54.6094C32.191 54.2448 31.7144 53.7214 31.3811 53.0391C31.0478 52.3568 30.8811 51.5651 30.8811 50.6641C30.8811 49.263 31.2405 48.1693 31.9592 47.3828C32.678 46.5964 33.691 46.2031 34.9983 46.2031C36.2483 46.2031 37.2379 46.6068 37.967 47.4141C38.6962 48.2161 39.0608 49.2995 39.0608 50.6641ZM32.7717 50.6641C32.7717 52.6589 33.5087 53.6562 34.9827 53.6562C36.441 53.6562 37.1702 52.6589 37.1702 50.6641C37.1702 48.6901 36.4358 47.7031 34.967 47.7031C34.1962 47.7031 33.6363 47.9583 33.2874 48.4688C32.9436 48.9792 32.7717 49.7109 32.7717 50.6641ZM48.2795 55H46.428V47.7969H44.0452C43.8993 49.651 43.7014 51.099 43.4514 52.1406C43.2066 53.1823 42.8837 53.9427 42.4827 54.4219C42.0868 54.901 41.5712 55.1406 40.9358 55.1406C40.5347 55.1406 40.1988 55.0833 39.928 54.9688V53.5312C40.1207 53.6042 40.3134 53.6406 40.5061 53.6406C41.0374 53.6406 41.454 53.0443 41.7561 51.8516C42.0634 50.6536 42.303 48.8229 42.4749 46.3594H48.2795V55ZM52.7483 46.3594V49.8281H56.8186V46.3594H58.6545V55H56.8186V51.2734H52.7483V55H50.9124V46.3594H52.7483ZM63.1233 49.8125H64.8733C66.0816 49.8125 66.9749 50.0208 67.553 50.4375C68.1311 50.8542 68.4202 51.4792 68.4202 52.3125C68.4202 53.2031 68.1181 53.875 67.5139 54.3281C66.915 54.776 66.0347 55 64.8733 55H61.2874V46.3594H63.1233V49.8125ZM66.5999 52.3594C66.5999 51.9271 66.4384 51.625 66.1155 51.4531C65.7978 51.2812 65.3394 51.1953 64.7405 51.1953H63.1233V53.6406H64.5061C65.2457 53.6406 65.7795 53.5365 66.1077 53.3281C66.4358 53.1198 66.5999 52.7969 66.5999 52.3594ZM71.6233 55H69.7795V46.3594H71.6233V55ZM76.0139 46.3594V50.7891C76.0139 51.3047 75.9722 52.0625 75.8889 53.0625L80.2249 46.3594H82.467V55H80.7014V50.6484C80.7014 50.4089 80.7144 50.0208 80.7405 49.4844C80.7717 48.9479 80.7978 48.5573 80.8186 48.3125L76.4983 55H74.2561V46.3594H76.0139ZM78.303 45.3047C77.1988 45.3047 76.3889 45.1068 75.8733 44.7109C75.3629 44.3099 75.079 43.6432 75.0217 42.7109H76.6858C76.717 43.0859 76.7874 43.3776 76.8967 43.5859C77.0113 43.7943 77.1728 43.9453 77.3811 44.0391C77.5946 44.1276 77.9176 44.1719 78.3499 44.1719C78.8603 44.1719 79.2483 44.0599 79.5139 43.8359C79.7795 43.6068 79.941 43.2318 79.9983 42.7109H81.6936C81.6155 43.6068 81.3004 44.263 80.7483 44.6797C80.1962 45.0964 79.3811 45.3047 78.303 45.3047ZM94.5999 46.3594H96.6155L93.0452 50.5234L96.9202 55H94.8108L91.0764 50.6172V55H89.2405V46.3594H91.0764V50.5547L94.5999 46.3594ZM106.014 50.6641C106.014 52.0755 105.652 53.1771 104.928 53.9688C104.204 54.7604 103.196 55.1562 101.905 55.1562C101.097 55.1562 100.384 54.974 99.7639 54.6094C99.1441 54.2448 98.6676 53.7214 98.3342 53.0391C98.0009 52.3568 97.8342 51.5651 97.8342 50.6641C97.8342 49.263 98.1936 48.1693 98.9124 47.3828C99.6311 46.5964 100.644 46.2031 101.951 46.2031C103.201 46.2031 104.191 46.6068 104.92 47.4141C105.649 48.2161 106.014 49.2995 106.014 50.6641ZM99.7249 50.6641C99.7249 52.6589 100.462 53.6562 101.936 53.6562C103.394 53.6562 104.123 52.6589 104.123 50.6641C104.123 48.6901 103.389 47.7031 101.92 47.7031C101.149 47.7031 100.589 47.9583 100.24 48.4688C99.8967 48.9792 99.7249 49.7109 99.7249 50.6641ZM113.092 53.2422L113.194 52.8672C113.407 52.0911 113.592 51.4948 113.748 51.0781L115.686 46.3594H118.131V55H116.436V48.0234L116.295 48.4922C116.061 49.3307 115.863 49.9479 115.701 50.3438L113.811 55H112.42L110.53 50.3125C110.269 49.6354 110.03 48.8724 109.811 48.0234V55H108.131V46.3594H110.561L112.436 50.9375C112.602 51.3594 112.821 52.1276 113.092 53.2422ZM128.311 46.3594V55H126.467V47.8125H122.592V55H120.756V46.3594H128.311ZM138.045 55H136.194V47.7969H133.811C133.665 49.651 133.467 51.099 133.217 52.1406C132.972 53.1823 132.649 53.9427 132.248 54.4219C131.852 54.901 131.337 55.1406 130.701 55.1406C130.3 55.1406 129.964 55.0833 129.694 54.9688V53.5312C129.886 53.6042 130.079 53.6406 130.272 53.6406C130.803 53.6406 131.22 53.0443 131.522 51.8516C131.829 50.6536 132.069 48.8229 132.24 46.3594H138.045V55ZM144.451 55.1562C143.108 55.1562 142.056 54.7656 141.295 53.9844C140.54 53.1979 140.162 52.1172 140.162 50.7422C140.162 49.3307 140.514 48.2214 141.217 47.4141C141.92 46.6068 142.886 46.2031 144.115 46.2031C145.256 46.2031 146.157 46.5495 146.819 47.2422C147.48 47.9349 147.811 48.888 147.811 50.1016V51.0938H142.053C142.079 51.9323 142.306 52.5781 142.733 53.0312C143.16 53.4792 143.761 53.7031 144.537 53.7031C145.048 53.7031 145.522 53.6562 145.959 53.5625C146.402 53.4635 146.876 53.3021 147.381 53.0781V54.5703C146.933 54.7839 146.48 54.9349 146.022 55.0234C145.563 55.112 145.04 55.1562 144.451 55.1562ZM144.115 47.5938C143.532 47.5938 143.063 47.7786 142.709 48.1484C142.36 48.5182 142.152 49.0573 142.084 49.7656H146.006C145.996 49.0521 145.824 48.513 145.49 48.1484C145.157 47.7786 144.699 47.5938 144.115 47.5938ZM155.256 46.3594H157.272L153.701 50.5234L157.576 55H155.467L151.733 50.6172V55H149.897V46.3594H151.733V50.5547L155.256 46.3594ZM162.49 55.1562C161.183 55.1562 160.188 54.776 159.506 54.0156C158.829 53.25 158.49 52.1536 158.49 50.7266C158.49 49.2734 158.845 48.1562 159.553 47.375C160.267 46.5938 161.295 46.2031 162.639 46.2031C163.55 46.2031 164.371 46.3724 165.1 46.7109L164.545 48.1875C163.769 47.8854 163.128 47.7344 162.623 47.7344C161.128 47.7344 160.381 48.7266 160.381 50.7109C160.381 51.6797 160.566 52.4089 160.936 52.8984C161.311 53.3828 161.858 53.625 162.576 53.625C163.394 53.625 164.168 53.4219 164.897 53.0156V54.6172C164.569 54.8099 164.217 54.9479 163.842 55.0312C163.472 55.1146 163.022 55.1562 162.49 55.1562ZM169.772 46.3594H171.772L173.53 51.2578C173.795 51.9557 173.972 52.612 174.061 53.2266H174.123C174.17 52.9401 174.256 52.5938 174.381 52.1875C174.506 51.776 175.168 49.8333 176.365 46.3594H178.35L174.655 56.1484C173.983 57.9453 172.863 58.8438 171.295 58.8438C170.889 58.8438 170.493 58.7995 170.108 58.7109V57.2578C170.384 57.3203 170.699 57.3516 171.053 57.3516C171.938 57.3516 172.561 56.8385 172.92 55.8125L173.24 55L169.772 46.3594ZM183.147 55.1562C181.839 55.1562 180.845 54.776 180.162 54.0156C179.485 53.25 179.147 52.1536 179.147 50.7266C179.147 49.2734 179.501 48.1562 180.209 47.375C180.923 46.5938 181.951 46.2031 183.295 46.2031C184.207 46.2031 185.027 46.3724 185.756 46.7109L185.201 48.1875C184.425 47.8854 183.785 47.7344 183.28 47.7344C181.785 47.7344 181.037 48.7266 181.037 50.7109C181.037 51.6797 181.222 52.4089 181.592 52.8984C181.967 53.3828 182.514 53.625 183.233 53.625C184.05 53.625 184.824 53.4219 185.553 53.0156V54.6172C185.225 54.8099 184.873 54.9479 184.498 55.0312C184.128 55.1146 183.678 55.1562 183.147 55.1562ZM194.686 55H192.834V47.7969H190.451C190.306 49.651 190.108 51.099 189.858 52.1406C189.613 53.1823 189.29 53.9427 188.889 54.4219C188.493 54.901 187.977 55.1406 187.342 55.1406C186.941 55.1406 186.605 55.0833 186.334 54.9688V53.5312C186.527 53.6042 186.72 53.6406 186.912 53.6406C187.444 53.6406 187.86 53.0443 188.162 51.8516C188.47 50.6536 188.709 48.8229 188.881 46.3594H194.686V55ZM196.006 46.3594H198.006L199.764 51.2578C200.03 51.9557 200.207 52.612 200.295 53.2266H200.358C200.405 52.9401 200.49 52.5938 200.615 52.1875C200.74 51.776 201.402 49.8333 202.6 46.3594H204.584L200.889 56.1484C200.217 57.9453 199.097 58.8438 197.53 58.8438C197.123 58.8438 196.727 58.7995 196.342 58.7109V57.2578C196.618 57.3203 196.933 57.3516 197.287 57.3516C198.173 57.3516 198.795 56.8385 199.155 55.8125L199.475 55L196.006 46.3594ZM211.483 46.3594V47.7969H207.733V55H205.897V46.3594H211.483ZM224.803 48.5703C224.803 49.5911 224.207 50.2083 223.014 50.4219V50.4844C223.681 50.5625 224.191 50.7734 224.545 51.1172C224.899 51.4609 225.076 51.9062 225.076 52.4531C225.076 53.2708 224.764 53.901 224.139 54.3438C223.519 54.7812 222.615 55 221.428 55H217.303V46.3594H221.412C223.673 46.3594 224.803 47.0964 224.803 48.5703ZM223.194 52.3438C223.194 51.9271 223.032 51.6328 222.709 51.4609C222.386 51.2839 221.902 51.1953 221.256 51.1953H219.139V53.6406H221.303C222.563 53.6406 223.194 53.2083 223.194 52.3438ZM222.967 48.7266C222.967 48.3828 222.832 48.1354 222.561 47.9844C222.295 47.8281 221.897 47.75 221.365 47.75H219.139V49.8281H221.092C221.707 49.8281 222.173 49.75 222.49 49.5938C222.808 49.4323 222.967 49.1432 222.967 48.7266ZM238.795 50.6641C238.795 52.0755 238.433 53.1771 237.709 53.9688C236.985 54.7604 235.977 55.1562 234.686 55.1562C233.878 55.1562 233.165 54.974 232.545 54.6094C231.925 54.2448 231.449 53.7214 231.115 53.0391C230.782 52.3568 230.615 51.5651 230.615 50.6641C230.615 49.263 230.975 48.1693 231.694 47.3828C232.412 46.5964 233.425 46.2031 234.733 46.2031C235.983 46.2031 236.972 46.6068 237.701 47.4141C238.431 48.2161 238.795 49.2995 238.795 50.6641ZM232.506 50.6641C232.506 52.6589 233.243 53.6562 234.717 53.6562C236.175 53.6562 236.905 52.6589 236.905 50.6641C236.905 48.6901 236.17 47.7031 234.701 47.7031C233.931 47.7031 233.371 47.9583 233.022 48.4688C232.678 48.9792 232.506 49.7109 232.506 50.6641ZM240.412 49.8125C240.412 47.8854 240.738 46.4036 241.389 45.3672C242.045 44.3307 243.087 43.6641 244.514 43.3672C245.592 43.1484 246.834 42.9349 248.24 42.7266L248.498 44.3438C246.79 44.6042 245.54 44.8073 244.748 44.9531C243.931 45.1042 243.339 45.4401 242.975 45.9609C242.615 46.4818 242.407 47.2656 242.35 48.3125H242.467C242.764 47.8802 243.152 47.5469 243.631 47.3125C244.11 47.0729 244.623 46.9531 245.17 46.9531C246.233 46.9531 247.061 47.2891 247.655 47.9609C248.248 48.6328 248.545 49.5755 248.545 50.7891C248.545 52.1797 248.183 53.2552 247.459 54.0156C246.74 54.776 245.743 55.1562 244.467 55.1562C243.201 55.1562 242.209 54.6875 241.49 53.75C240.772 52.8125 240.412 51.5 240.412 49.8125ZM244.592 53.6562C245.957 53.6562 246.639 52.7604 246.639 50.9688C246.639 49.2396 246.022 48.375 244.787 48.375C244.449 48.375 244.121 48.4479 243.803 48.5938C243.485 48.7396 243.191 48.9323 242.92 49.1719C242.655 49.4115 242.449 49.6589 242.303 49.9141C242.303 51.1432 242.498 52.0755 242.889 52.7109C243.28 53.3411 243.847 53.6562 244.592 53.6562ZM257.764 55H255.912V47.7969H253.53C253.384 49.651 253.186 51.099 252.936 52.1406C252.691 53.1823 252.368 53.9427 251.967 54.4219C251.571 54.901 251.056 55.1406 250.42 55.1406C250.019 55.1406 249.683 55.0833 249.412 54.9688V53.5312C249.605 53.6042 249.798 53.6406 249.99 53.6406C250.522 53.6406 250.938 53.0443 251.24 51.8516C251.548 50.6536 251.787 48.8229 251.959 46.3594H257.764V55ZM265.803 55L265.436 53.7969H265.373C264.957 54.3229 264.537 54.6823 264.115 54.875C263.694 55.0625 263.152 55.1562 262.49 55.1562C261.642 55.1562 260.977 54.9271 260.498 54.4688C260.024 54.0104 259.787 53.362 259.787 52.5234C259.787 51.6328 260.118 50.9609 260.78 50.5078C261.441 50.0547 262.449 49.8073 263.803 49.7656L265.295 49.7188V49.2578C265.295 48.7057 265.165 48.2943 264.905 48.0234C264.649 47.7474 264.251 47.6094 263.709 47.6094C263.267 47.6094 262.842 47.6745 262.436 47.8047C262.03 47.9349 261.639 48.0885 261.264 48.2656L260.67 46.9531C261.139 46.7083 261.652 46.5234 262.209 46.3984C262.767 46.2682 263.293 46.2031 263.787 46.2031C264.886 46.2031 265.714 46.4427 266.272 46.9219C266.834 47.401 267.115 48.1536 267.115 49.1797V55H265.803ZM263.069 53.75C263.735 53.75 264.269 53.5651 264.67 53.1953C265.076 52.8203 265.28 52.2969 265.28 51.625V50.875L264.17 50.9219C263.306 50.9531 262.675 51.099 262.28 51.3594C261.889 51.6146 261.694 52.0078 261.694 52.5391C261.694 52.9245 261.808 53.224 262.037 53.4375C262.267 53.6458 262.61 53.75 263.069 53.75ZM273.162 55.1562C271.855 55.1562 270.86 54.776 270.178 54.0156C269.501 53.25 269.162 52.1536 269.162 50.7266C269.162 49.2734 269.517 48.1562 270.225 47.375C270.938 46.5938 271.967 46.2031 273.311 46.2031C274.222 46.2031 275.043 46.3724 275.772 46.7109L275.217 48.1875C274.441 47.8854 273.8 47.7344 273.295 47.7344C271.8 47.7344 271.053 48.7266 271.053 50.7109C271.053 51.6797 271.238 52.4089 271.608 52.8984C271.983 53.3828 272.53 53.625 273.248 53.625C274.066 53.625 274.839 53.4219 275.569 53.0156V54.6172C275.24 54.8099 274.889 54.9479 274.514 55.0312C274.144 55.1146 273.694 55.1562 273.162 55.1562ZM284.092 46.3594V47.7969H281.28V55H279.436V47.7969H276.623V46.3594H284.092ZM287.514 46.3594V50.7891C287.514 51.3047 287.472 52.0625 287.389 53.0625L291.725 46.3594H293.967V55H292.201V50.6484C292.201 50.4089 292.214 50.0208 292.24 49.4844C292.272 48.9479 292.298 48.5573 292.319 48.3125L287.998 55H285.756V46.3594H287.514ZM304.225 55.1562C302.918 55.1562 301.923 54.776 301.24 54.0156C300.563 53.25 300.225 52.1536 300.225 50.7266C300.225 49.2734 300.579 48.1562 301.287 47.375C302.001 46.5938 303.03 46.2031 304.373 46.2031C305.285 46.2031 306.105 46.3724 306.834 46.7109L306.28 48.1875C305.503 47.8854 304.863 47.7344 304.358 47.7344C302.863 47.7344 302.115 48.7266 302.115 50.7109C302.115 51.6797 302.3 52.4089 302.67 52.8984C303.045 53.3828 303.592 53.625 304.311 53.625C305.128 53.625 305.902 53.4219 306.631 53.0156V54.6172C306.303 54.8099 305.951 54.9479 305.576 55.0312C305.207 55.1146 304.756 55.1562 304.225 55.1562ZM316.326 50.6641C316.326 52.0755 315.964 53.1771 315.24 53.9688C314.517 54.7604 313.509 55.1562 312.217 55.1562C311.41 55.1562 310.696 54.974 310.076 54.6094C309.457 54.2448 308.98 53.7214 308.647 53.0391C308.313 52.3568 308.147 51.5651 308.147 50.6641C308.147 49.263 308.506 48.1693 309.225 47.3828C309.944 46.5964 310.957 46.2031 312.264 46.2031C313.514 46.2031 314.503 46.6068 315.233 47.4141C315.962 48.2161 316.326 49.2995 316.326 50.6641ZM310.037 50.6641C310.037 52.6589 310.774 53.6562 312.248 53.6562C313.707 53.6562 314.436 52.6589 314.436 50.6641C314.436 48.6901 313.701 47.7031 312.233 47.7031C311.462 47.7031 310.902 47.9583 310.553 48.4688C310.209 48.9792 310.037 49.7109 310.037 50.6641ZM320.35 49.8125C321.188 49.8125 321.806 49.7214 322.201 49.5391C322.597 49.3516 322.795 49.0651 322.795 48.6797C322.795 47.9766 322.17 47.625 320.92 47.625C320.087 47.625 319.235 47.8125 318.365 48.1875L317.772 46.8203C318.777 46.4089 319.886 46.2031 321.1 46.2031C322.173 46.2031 323.006 46.401 323.6 46.7969C324.194 47.1875 324.49 47.75 324.49 48.4844C324.49 49.4531 323.936 50.0885 322.826 50.3906V50.4531C323.519 50.6406 324.014 50.9089 324.311 51.2578C324.613 51.6068 324.764 52.0391 324.764 52.5547C324.764 53.3464 324.415 53.9792 323.717 54.4531C323.024 54.9219 322.056 55.1562 320.811 55.1562C319.451 55.1562 318.412 54.9766 317.694 54.6172V53.0312C318.647 53.4792 319.634 53.7031 320.655 53.7031C321.389 53.7031 321.954 53.6016 322.35 53.3984C322.751 53.1901 322.951 52.875 322.951 52.4531C322.951 52.0208 322.751 51.7031 322.35 51.5C321.949 51.2969 321.329 51.1953 320.49 51.1953H319.436V49.8125H320.35ZM335.045 58.0547H333.334V55H327.412V58.0547H325.717V53.5781H326.42C327.035 52.6979 327.522 51.6354 327.881 50.3906C328.246 49.1406 328.462 47.7969 328.53 46.3594H333.78V53.5781H335.045V58.0547ZM331.975 53.5781V47.7656H330.115C330.017 48.8385 329.808 49.8958 329.49 50.9375C329.178 51.9792 328.795 52.8594 328.342 53.5781H331.975ZM342.053 55L341.686 53.7969H341.623C341.207 54.3229 340.787 54.6823 340.365 54.875C339.944 55.0625 339.402 55.1562 338.74 55.1562C337.892 55.1562 337.227 54.9271 336.748 54.4688C336.274 54.0104 336.037 53.362 336.037 52.5234C336.037 51.6328 336.368 50.9609 337.03 50.5078C337.691 50.0547 338.699 49.8073 340.053 49.7656L341.545 49.7188V49.2578C341.545 48.7057 341.415 48.2943 341.155 48.0234C340.899 47.7474 340.501 47.6094 339.959 47.6094C339.517 47.6094 339.092 47.6745 338.686 47.8047C338.28 47.9349 337.889 48.0885 337.514 48.2656L336.92 46.9531C337.389 46.7083 337.902 46.5234 338.459 46.3984C339.017 46.2682 339.543 46.2031 340.037 46.2031C341.136 46.2031 341.964 46.4427 342.522 46.9219C343.084 47.401 343.365 48.1536 343.365 49.1797V55H342.053ZM339.319 53.75C339.985 53.75 340.519 53.5651 340.92 53.1953C341.326 52.8203 341.53 52.2969 341.53 51.625V50.875L340.42 50.9219C339.556 50.9531 338.925 51.099 338.53 51.3594C338.139 51.6146 337.944 52.0078 337.944 52.5391C337.944 52.9245 338.058 53.224 338.287 53.4375C338.517 53.6458 338.86 53.75 339.319 53.75ZM347.764 46.3594V49.8281H351.834V46.3594H353.67V55H351.834V51.2734H347.764V55H345.928V46.3594H347.764ZM358.061 46.3594V50.7891C358.061 51.3047 358.019 52.0625 357.936 53.0625L362.272 46.3594H364.514V55H362.748V50.6484C362.748 50.4089 362.761 50.0208 362.787 49.4844C362.819 48.9479 362.845 48.5573 362.865 48.3125L358.545 55H356.303V46.3594H358.061ZM368.014 55H365.959L368.365 51.4609C367.782 51.2943 367.324 50.9974 366.99 50.5703C366.657 50.138 366.49 49.6042 366.49 48.9688C366.49 48.151 366.782 47.513 367.365 47.0547C367.949 46.5911 368.746 46.3594 369.756 46.3594H373.694V55H371.85V51.6719H370.108L368.014 55ZM368.28 48.9844C368.28 49.4271 368.446 49.7604 368.78 49.9844C369.118 50.2031 369.571 50.3125 370.139 50.3125H371.85V47.75H369.85C369.35 47.75 368.962 47.8568 368.686 48.0703C368.415 48.2839 368.28 48.5885 368.28 48.9844ZM28.7639 68.3594V77H26.9202V69.8125H23.0452V77H21.2092V68.3594H28.7639ZM35.7795 77.1562C34.6858 77.1562 33.8368 76.763 33.2327 75.9766H33.1233C33.1962 76.7057 33.2327 77.1484 33.2327 77.3047V80.8438H31.3967V68.3594H32.8811C32.9228 68.5208 33.0087 68.9062 33.1389 69.5156H33.2327C33.8056 68.6406 34.665 68.2031 35.8108 68.2031C36.8889 68.2031 37.7275 68.5938 38.3264 69.375C38.9306 70.1562 39.2327 71.2526 39.2327 72.6641C39.2327 74.0755 38.9254 75.1771 38.3108 75.9688C37.7014 76.7604 36.8577 77.1562 35.7795 77.1562ZM35.3342 69.7031C34.6051 69.7031 34.0712 69.9167 33.7327 70.3438C33.3993 70.7708 33.2327 71.4531 33.2327 72.3906V72.6641C33.2327 73.7161 33.3993 74.4792 33.7327 74.9531C34.066 75.4219 34.6103 75.6562 35.3655 75.6562C36.0009 75.6562 36.4905 75.3958 36.8342 74.875C37.178 74.3542 37.3499 73.612 37.3499 72.6484C37.3499 71.6797 37.178 70.9479 36.8342 70.4531C36.4957 69.9531 35.9957 69.7031 35.3342 69.7031ZM49.0295 72.6641C49.0295 74.0755 48.6676 75.1771 47.9436 75.9688C47.2196 76.7604 46.2118 77.1562 44.9202 77.1562C44.1129 77.1562 43.3993 76.974 42.7795 76.6094C42.1597 76.2448 41.6832 75.7214 41.3499 75.0391C41.0165 74.3568 40.8499 73.5651 40.8499 72.6641C40.8499 71.263 41.2092 70.1693 41.928 69.3828C42.6467 68.5964 43.6597 68.2031 44.967 68.2031C46.217 68.2031 47.2066 68.6068 47.9358 69.4141C48.665 70.2161 49.0295 71.2995 49.0295 72.6641ZM42.7405 72.6641C42.7405 74.6589 43.4775 75.6562 44.9514 75.6562C46.4097 75.6562 47.1389 74.6589 47.1389 72.6641C47.1389 70.6901 46.4045 69.7031 44.9358 69.7031C44.165 69.7031 43.6051 69.9583 43.2561 70.4688C42.9124 70.9792 42.7405 71.7109 42.7405 72.6641ZM59.4358 80.0547H57.7249V77H51.803V80.0547H50.1077V75.5781H50.8108C51.4254 74.6979 51.9124 73.6354 52.2717 72.3906C52.6363 71.1406 52.8525 69.7969 52.9202 68.3594H58.1702V75.5781H59.4358V80.0547ZM56.3655 75.5781V69.7656H54.5061C54.4071 70.8385 54.1988 71.8958 53.8811 72.9375C53.5686 73.9792 53.1858 74.8594 52.7327 75.5781H56.3655ZM59.7249 68.3594H61.7249L63.4827 73.2578C63.7483 73.9557 63.9254 74.612 64.0139 75.2266H64.0764C64.1233 74.9401 64.2092 74.5938 64.3342 74.1875C64.4592 73.776 65.1207 71.8333 66.3186 68.3594H68.303L64.6077 78.1484C63.9358 79.9453 62.816 80.8438 61.2483 80.8438C60.842 80.8438 60.4462 80.7995 60.0608 80.7109V79.2578C60.3368 79.3203 60.6519 79.3516 61.0061 79.3516C61.8915 79.3516 62.5139 78.8385 62.8733 77.8125L63.1936 77L59.7249 68.3594ZM74.9749 68.3594H76.9905L73.4202 72.5234L77.2952 77H75.1858L71.4514 72.6172V77H69.6155V68.3594H71.4514V72.5547L74.9749 68.3594ZM86.4202 75.5781H87.6702V80.0391H85.9436V77H78.7249V68.3594H80.5608V75.5469H84.5842V68.3594H86.4202V75.5781ZM90.9983 68.3594V72.7891C90.9983 73.3047 90.9566 74.0625 90.8733 75.0625L95.2092 68.3594H97.4514V77H95.6858V72.6484C95.6858 72.4089 95.6988 72.0208 95.7249 71.4844C95.7561 70.9479 95.7821 70.5573 95.803 70.3125L91.4827 77H89.2405V68.3594H90.9983ZM101.826 68.3594V72.7891C101.826 73.3047 101.785 74.0625 101.701 75.0625L106.037 68.3594H108.28V77H106.514V72.6484C106.514 72.4089 106.527 72.0208 106.553 71.4844C106.584 70.9479 106.61 70.5573 106.631 70.3125L102.311 77H100.069V68.3594H101.826ZM116.811 68.3594V72.7891C116.811 73.3047 116.769 74.0625 116.686 75.0625L121.022 68.3594H123.264V77H121.498V72.6484C121.498 72.4089 121.511 72.0208 121.537 71.4844C121.569 70.9479 121.595 70.5573 121.615 70.3125L117.295 77H115.053V68.3594H116.811ZM127.787 71.8125C128.626 71.8125 129.243 71.7214 129.639 71.5391C130.035 71.3516 130.233 71.0651 130.233 70.6797C130.233 69.9766 129.608 69.625 128.358 69.625C127.524 69.625 126.673 69.8125 125.803 70.1875L125.209 68.8203C126.214 68.4089 127.324 68.2031 128.537 68.2031C129.61 68.2031 130.444 68.401 131.037 68.7969C131.631 69.1875 131.928 69.75 131.928 70.4844C131.928 71.4531 131.373 72.0885 130.264 72.3906V72.4531C130.957 72.6406 131.451 72.9089 131.748 73.2578C132.05 73.6068 132.201 74.0391 132.201 74.5547C132.201 75.3464 131.852 75.9792 131.155 76.4531C130.462 76.9219 129.493 77.1562 128.248 77.1562C126.889 77.1562 125.85 76.9766 125.131 76.6172V75.0312C126.084 75.4792 127.071 75.7031 128.092 75.7031C128.826 75.7031 129.392 75.6016 129.787 75.3984C130.188 75.1901 130.389 74.875 130.389 74.4531C130.389 74.0208 130.188 73.7031 129.787 73.5C129.386 73.2969 128.767 73.1953 127.928 73.1953H126.873V71.8125H127.787ZM145.905 68.3594V77H144.061V69.8125H140.186V77H138.35V68.3594H145.905ZM156.201 72.6641C156.201 74.0755 155.839 75.1771 155.115 75.9688C154.392 76.7604 153.384 77.1562 152.092 77.1562C151.285 77.1562 150.571 76.974 149.951 76.6094C149.332 76.2448 148.855 75.7214 148.522 75.0391C148.188 74.3568 148.022 73.5651 148.022 72.6641C148.022 71.263 148.381 70.1693 149.1 69.3828C149.819 68.5964 150.832 68.2031 152.139 68.2031C153.389 68.2031 154.378 68.6068 155.108 69.4141C155.837 70.2161 156.201 71.2995 156.201 72.6641ZM149.912 72.6641C149.912 74.6589 150.649 75.6562 152.123 75.6562C153.582 75.6562 154.311 74.6589 154.311 72.6641C154.311 70.6901 153.576 69.7031 152.108 69.7031C151.337 69.7031 150.777 69.9583 150.428 70.4688C150.084 70.9792 149.912 71.7109 149.912 72.6641ZM165.42 77H163.569V69.7969H161.186C161.04 71.651 160.842 73.099 160.592 74.1406C160.347 75.1823 160.024 75.9427 159.623 76.4219C159.227 76.901 158.712 77.1406 158.076 77.1406C157.675 77.1406 157.339 77.0833 157.069 76.9688V75.5312C157.261 75.6042 157.454 75.6406 157.647 75.6406C158.178 75.6406 158.595 75.0443 158.897 73.8516C159.204 72.6536 159.444 70.8229 159.615 68.3594H165.42V77ZM169.811 68.3594V72.7891C169.811 73.3047 169.769 74.0625 169.686 75.0625L174.022 68.3594H176.264V77H174.498V72.6484C174.498 72.4089 174.511 72.0208 174.537 71.4844C174.569 70.9479 174.595 70.5573 174.615 70.3125L170.295 77H168.053V68.3594H169.811ZM183.842 75.2422L183.944 74.8672C184.157 74.0911 184.342 73.4948 184.498 73.0781L186.436 68.3594H188.881V77H187.186V70.0234L187.045 70.4922C186.811 71.3307 186.613 71.9479 186.451 72.3438L184.561 77H183.17L181.28 72.3125C181.019 71.6354 180.78 70.8724 180.561 70.0234V77H178.881V68.3594H181.311L183.186 72.9375C183.352 73.3594 183.571 74.1276 183.842 75.2422ZM195.28 77.1562C193.936 77.1562 192.884 76.7656 192.123 75.9844C191.368 75.1979 190.99 74.1172 190.99 72.7422C190.99 71.3307 191.342 70.2214 192.045 69.4141C192.748 68.6068 193.714 68.2031 194.944 68.2031C196.084 68.2031 196.985 68.5495 197.647 69.2422C198.308 69.9349 198.639 70.888 198.639 72.1016V73.0938H192.881C192.907 73.9323 193.134 74.5781 193.561 75.0312C193.988 75.4792 194.589 75.7031 195.365 75.7031C195.876 75.7031 196.35 75.6562 196.787 75.5625C197.23 75.4635 197.704 75.3021 198.209 75.0781V76.5703C197.761 76.7839 197.308 76.9349 196.85 77.0234C196.392 77.112 195.868 77.1562 195.28 77.1562ZM194.944 69.5938C194.36 69.5938 193.892 69.7786 193.537 70.1484C193.188 70.5182 192.98 71.0573 192.912 71.7656H196.834C196.824 71.0521 196.652 70.513 196.319 70.1484C195.985 69.7786 195.527 69.5938 194.944 69.5938ZM205.108 77.1562C204.014 77.1562 203.165 76.763 202.561 75.9766H202.451C202.524 76.7057 202.561 77.1484 202.561 77.3047V80.8438H200.725V68.3594H202.209C202.251 68.5208 202.337 68.9062 202.467 69.5156H202.561C203.134 68.6406 203.993 68.2031 205.139 68.2031C206.217 68.2031 207.056 68.5938 207.655 69.375C208.259 70.1562 208.561 71.2526 208.561 72.6641C208.561 74.0755 208.253 75.1771 207.639 75.9688C207.03 76.7604 206.186 77.1562 205.108 77.1562ZM204.662 69.7031C203.933 69.7031 203.399 69.9167 203.061 70.3438C202.727 70.7708 202.561 71.4531 202.561 72.3906V72.6641C202.561 73.7161 202.727 74.4792 203.061 74.9531C203.394 75.4219 203.938 75.6562 204.694 75.6562C205.329 75.6562 205.819 75.3958 206.162 74.875C206.506 74.3542 206.678 73.612 206.678 72.6484C206.678 71.6797 206.506 70.9479 206.162 70.4531C205.824 69.9531 205.324 69.7031 204.662 69.7031ZM212.53 68.3594V71.8281H216.6V68.3594H218.436V77H216.6V73.2734H212.53V77H210.694V68.3594H212.53ZM222.905 71.8125H224.655C225.863 71.8125 226.756 72.0208 227.334 72.4375C227.912 72.8542 228.201 73.4792 228.201 74.3125C228.201 75.2031 227.899 75.875 227.295 76.3281C226.696 76.776 225.816 77 224.655 77H221.069V68.3594H222.905V71.8125ZM226.381 74.3594C226.381 73.9271 226.22 73.625 225.897 73.4531C225.579 73.2812 225.121 73.1953 224.522 73.1953H222.905V75.6406H224.287C225.027 75.6406 225.561 75.5365 225.889 75.3281C226.217 75.1198 226.381 74.7969 226.381 74.3594ZM231.405 77H229.561V68.3594H231.405V77ZM235.959 72.5859L233.061 68.3594H235.155L237.123 71.3828L239.108 68.3594H241.186L238.28 72.5859L241.334 77H239.256L237.123 73.7656L234.998 77H232.92L235.959 72.5859ZM251.967 75.2422L252.069 74.8672C252.282 74.0911 252.467 73.4948 252.623 73.0781L254.561 68.3594H257.006V77H255.311V70.0234L255.17 70.4922C254.936 71.3307 254.738 71.9479 254.576 72.3438L252.686 77H251.295L249.405 72.3125C249.144 71.6354 248.905 70.8724 248.686 70.0234V77H247.006V68.3594H249.436L251.311 72.9375C251.477 73.3594 251.696 74.1276 251.967 75.2422ZM265.037 77L264.67 75.7969H264.608C264.191 76.3229 263.772 76.6823 263.35 76.875C262.928 77.0625 262.386 77.1562 261.725 77.1562C260.876 77.1562 260.212 76.9271 259.733 76.4688C259.259 76.0104 259.022 75.362 259.022 74.5234C259.022 73.6328 259.352 72.9609 260.014 72.5078C260.675 72.0547 261.683 71.8073 263.037 71.7656L264.53 71.7188V71.2578C264.53 70.7057 264.399 70.2943 264.139 70.0234C263.884 69.7474 263.485 69.6094 262.944 69.6094C262.501 69.6094 262.076 69.6745 261.67 69.8047C261.264 69.9349 260.873 70.0885 260.498 70.2656L259.905 68.9531C260.373 68.7083 260.886 68.5234 261.444 68.3984C262.001 68.2682 262.527 68.2031 263.022 68.2031C264.121 68.2031 264.949 68.4427 265.506 68.9219C266.069 69.401 266.35 70.1536 266.35 71.1797V77H265.037ZM262.303 75.75C262.97 75.75 263.503 75.5651 263.905 75.1953C264.311 74.8203 264.514 74.2969 264.514 73.625V72.875L263.405 72.9219C262.54 72.9531 261.91 73.099 261.514 73.3594C261.123 73.6146 260.928 74.0078 260.928 74.5391C260.928 74.9245 261.043 75.224 261.272 75.4375C261.501 75.6458 261.845 75.75 262.303 75.75ZM275.405 68.3594V69.7969H272.592V77H270.748V69.7969H267.936V68.3594H275.405ZM280.842 77.1562C279.498 77.1562 278.446 76.7656 277.686 75.9844C276.931 75.1979 276.553 74.1172 276.553 72.7422C276.553 71.3307 276.905 70.2214 277.608 69.4141C278.311 68.6068 279.277 68.2031 280.506 68.2031C281.647 68.2031 282.548 68.5495 283.209 69.2422C283.871 69.9349 284.201 70.888 284.201 72.1016V73.0938H278.444C278.47 73.9323 278.696 74.5781 279.123 75.0312C279.55 75.4792 280.152 75.7031 280.928 75.7031C281.438 75.7031 281.912 75.6562 282.35 75.5625C282.793 75.4635 283.267 75.3021 283.772 75.0781V76.5703C283.324 76.7839 282.871 76.9349 282.412 77.0234C281.954 77.112 281.431 77.1562 280.842 77.1562ZM280.506 69.5938C279.923 69.5938 279.454 69.7786 279.1 70.1484C278.751 70.5182 278.543 71.0573 278.475 71.7656H282.397C282.386 71.0521 282.214 70.513 281.881 70.1484C281.548 69.7786 281.089 69.5938 280.506 69.5938ZM290.67 77.1562C289.576 77.1562 288.727 76.763 288.123 75.9766H288.014C288.087 76.7057 288.123 77.1484 288.123 77.3047V80.8438H286.287V68.3594H287.772C287.813 68.5208 287.899 68.9062 288.03 69.5156H288.123C288.696 68.6406 289.556 68.2031 290.701 68.2031C291.78 68.2031 292.618 68.5938 293.217 69.375C293.821 70.1562 294.123 71.2526 294.123 72.6641C294.123 74.0755 293.816 75.1771 293.201 75.9688C292.592 76.7604 291.748 77.1562 290.67 77.1562ZM290.225 69.7031C289.496 69.7031 288.962 69.9167 288.623 70.3438C288.29 70.7708 288.123 71.4531 288.123 72.3906V72.6641C288.123 73.7161 288.29 74.4792 288.623 74.9531C288.957 75.4219 289.501 75.6562 290.256 75.6562C290.892 75.6562 291.381 75.3958 291.725 74.875C292.069 74.3542 292.24 73.612 292.24 72.6484C292.24 71.6797 292.069 70.9479 291.725 70.4531C291.386 69.9531 290.886 69.7031 290.225 69.7031ZM298.014 68.3594V72.7891C298.014 73.3047 297.972 74.0625 297.889 75.0625L302.225 68.3594H304.467V77H302.701V72.6484C302.701 72.4089 302.714 72.0208 302.74 71.4844C302.772 70.9479 302.798 70.5573 302.819 70.3125L298.498 77H296.256V68.3594H298.014ZM312.49 77L312.123 75.7969H312.061C311.644 76.3229 311.225 76.6823 310.803 76.875C310.381 77.0625 309.839 77.1562 309.178 77.1562C308.329 77.1562 307.665 76.9271 307.186 76.4688C306.712 76.0104 306.475 75.362 306.475 74.5234C306.475 73.6328 306.806 72.9609 307.467 72.5078C308.128 72.0547 309.136 71.8073 310.49 71.7656L311.983 71.7188V71.2578C311.983 70.7057 311.852 70.2943 311.592 70.0234C311.337 69.7474 310.938 69.6094 310.397 69.6094C309.954 69.6094 309.53 69.6745 309.123 69.8047C308.717 69.9349 308.326 70.0885 307.951 70.2656L307.358 68.9531C307.826 68.7083 308.339 68.5234 308.897 68.3984C309.454 68.2682 309.98 68.2031 310.475 68.2031C311.574 68.2031 312.402 68.4427 312.959 68.9219C313.522 69.401 313.803 70.1536 313.803 71.1797V77H312.49ZM309.756 75.75C310.423 75.75 310.957 75.5651 311.358 75.1953C311.764 74.8203 311.967 74.2969 311.967 73.625V72.875L310.858 72.9219C309.993 72.9531 309.363 73.099 308.967 73.3594C308.576 73.6146 308.381 74.0078 308.381 74.5391C308.381 74.9245 308.496 75.224 308.725 75.4375C308.954 75.6458 309.298 75.75 309.756 75.75ZM323.467 77H321.615V69.7969H319.233C319.087 71.651 318.889 73.099 318.639 74.1406C318.394 75.1823 318.071 75.9427 317.67 76.4219C317.274 76.901 316.759 77.1406 316.123 77.1406C315.722 77.1406 315.386 77.0833 315.115 76.9688V75.5312C315.308 75.6042 315.501 75.6406 315.694 75.6406C316.225 75.6406 316.642 75.0443 316.944 73.8516C317.251 72.6536 317.49 70.8229 317.662 68.3594H323.467V77ZM333.764 72.6641C333.764 74.0755 333.402 75.1771 332.678 75.9688C331.954 76.7604 330.946 77.1562 329.655 77.1562C328.847 77.1562 328.134 76.974 327.514 76.6094C326.894 76.2448 326.418 75.7214 326.084 75.0391C325.751 74.3568 325.584 73.5651 325.584 72.6641C325.584 71.263 325.944 70.1693 326.662 69.3828C327.381 68.5964 328.394 68.2031 329.701 68.2031C330.951 68.2031 331.941 68.6068 332.67 69.4141C333.399 70.2161 333.764 71.2995 333.764 72.6641ZM327.475 72.6641C327.475 74.6589 328.212 75.6562 329.686 75.6562C331.144 75.6562 331.873 74.6589 331.873 72.6641C331.873 70.6901 331.139 69.7031 329.67 69.7031C328.899 69.7031 328.339 69.9583 327.99 70.4688C327.647 70.9792 327.475 71.7109 327.475 72.6641ZM343.381 70.5703C343.381 71.5911 342.785 72.2083 341.592 72.4219V72.4844C342.259 72.5625 342.769 72.7734 343.123 73.1172C343.477 73.4609 343.655 73.9062 343.655 74.4531C343.655 75.2708 343.342 75.901 342.717 76.3438C342.097 76.7812 341.194 77 340.006 77H335.881V68.3594H339.99C342.251 68.3594 343.381 69.0964 343.381 70.5703ZM341.772 74.3438C341.772 73.9271 341.61 73.6328 341.287 73.4609C340.964 73.2839 340.48 73.1953 339.834 73.1953H337.717V75.6406H339.881C341.142 75.6406 341.772 75.2083 341.772 74.3438ZM341.545 70.7266C341.545 70.3828 341.41 70.1354 341.139 69.9844C340.873 69.8281 340.475 69.75 339.944 69.75H337.717V71.8281H339.67C340.285 71.8281 340.751 71.75 341.069 71.5938C341.386 71.4323 341.545 71.1432 341.545 70.7266Z" fill="white"/>
<defs>
<linearGradient id="paint0_linear" x1="560.597" y1="-9.5524e-06" x2="222.859" y2="557.45" gradientUnits="userSpaceOnUse">
<stop stop-color="#89F1FF"/>
<stop offset="1" stop-color="#2983EE"/>
</linearGradient>
</defs>
</svg>
