<svg width="111" height="110" viewBox="0 0 111 110" fill="none" xmlns="http://www.w3.org/2000/svg">
<path d="M8.65985 96.25V36.0938L55.4231 15.4688L102.186 36.0938V96.25H8.65985Z" fill="#5771E5"/>
<path d="M17.3197 49.8438H51.9591V96.25H17.3197V49.8438Z" fill="#89A8F5"/>
<path d="M27.7115 85.9375H24.2476V75.625H18.3901L15.5877 81.187V85.9375H12.1238V80.7812C12.1238 80.5144 12.1864 80.2513 12.3067 80.0126L15.7706 73.1376C15.9144 72.8521 16.1355 72.612 16.4092 72.4442C16.6828 72.2764 16.998 72.1875 17.3197 72.1875H25.9795C26.4389 72.1875 26.8794 72.3686 27.2042 72.6909C27.529 73.0132 27.7115 73.4504 27.7115 73.9062V85.9375Z" fill="#6D7EB3"/>
<path d="M58.887 61.875H93.5264V96.25H58.887V61.875Z" fill="#3D44D1"/>
<path d="M102.186 42.9688H8.65985V36.0938L55.4231 15.4688L102.186 36.0938V42.9688Z" fill="#6E8BEB"/>
<path d="M27.7115 91.0938H46.7632V96.25H27.7115V91.0938Z" fill="#8796C4"/>
<path d="M27.7115 67.0312H32.9075V94.5312H27.7115V67.0312Z" fill="#8796C4"/>
<path d="M32.9075 79.0625H46.7632V91.0938H32.9075V79.0625Z" fill="#F7C04A"/>
<path d="M38.1034 80.7812H41.5673V85.9375H38.1034V80.7812Z" fill="#F7DFA1"/>
<path d="M55.4231 84.2188H69.2789V96.25H55.4231V84.2188Z" fill="#F7C04A"/>
<path d="M60.619 85.9375H64.0829V91.0938H60.619V85.9375Z" fill="#F7DFA1"/>
<path d="M69.2788 84.2188H83.1346V96.25H69.2788V84.2188Z" fill="#F7C04A"/>
<path d="M74.4748 85.9375H77.9387V91.0938H74.4748V85.9375Z" fill="#F7DFA1"/>
<path d="M83.1346 84.2188H96.9904V96.25H83.1346V84.2188Z" fill="#F7C04A"/>
<path d="M88.3306 85.9375H91.7945V91.0938H88.3306V85.9375Z" fill="#F7DFA1"/>
<path d="M55.4231 72.1875H69.2789V84.2188H55.4231V72.1875Z" fill="#F7C04A"/>
<path d="M60.619 72.1875H64.0829V77.3438H60.619V72.1875Z" fill="#F7DFA1"/>
<path d="M69.2788 72.1875H83.1346V84.2188H69.2788V72.1875Z" fill="#F7C04A"/>
<path d="M74.4748 72.1875H77.9387V77.3438H74.4748V72.1875Z" fill="#F7DFA1"/>
<path d="M83.1346 72.1875H96.9904V84.2188H83.1346V72.1875Z" fill="#F7C04A"/>
<path d="M88.3306 72.1875H91.7945V77.3438H88.3306V72.1875Z" fill="#F7DFA1"/>
<path d="M32.9075 67.0312H46.7632V79.0625H32.9075V67.0312Z" fill="#F7C04A"/>
<path d="M38.1034 67.0312H41.5673V72.1875H38.1034V67.0312Z" fill="#F7DFA1"/>
<path d="M58.887 49.8438H93.5264V61.875H58.887V49.8438Z" fill="#89A8F5"/>
<path d="M64.0829 55H67.5469V58.4375H64.0829V55Z" fill="#6E8BEB"/>
<path d="M71.0108 55H88.3305V58.4375H71.0108V55Z" fill="#6E8BEB"/>
<path d="M22.5156 55H25.9796V58.4375H22.5156V55Z" fill="#6E8BEB"/>
<path d="M29.4435 55H46.7633V58.4375H29.4435V55Z" fill="#6E8BEB"/>
<path d="M53.6911 18.9062H57.1551V37.8125H53.6911V18.9062Z" fill="#5771E5"/>
<path d="M46.7632 20.625H50.2272V37.8125H46.7632V20.625Z" fill="#5771E5"/>
<path d="M60.619 20.625H64.083V37.8125H60.619V20.625Z" fill="#5771E5"/>
<path d="M39.8353 22.3438H43.2993V37.8125H39.8353V22.3438Z" fill="#5771E5"/>
<path d="M32.9074 25.7812H36.3714V37.8125H32.9074V25.7812Z" fill="#5771E5"/>
<path d="M25.9796 29.2188H29.4435V37.8125H25.9796V29.2188Z" fill="#5771E5"/>
<path d="M19.0517 30.9375H22.5156V37.8125H19.0517V30.9375Z" fill="#5771E5"/>
<path d="M67.5469 22.3438H71.0108V37.8125H67.5469V22.3438Z" fill="#5771E5"/>
<path d="M74.4748 25.7812H77.9387V37.8125H74.4748V25.7812Z" fill="#5771E5"/>
<path d="M81.4026 29.2188H84.8666V37.8125H81.4026V29.2188Z" fill="#5771E5"/>
<path d="M88.3305 30.9375H91.7945V37.8125H88.3305V30.9375Z" fill="#5771E5"/>
<path d="M55.4231 18.9062L100.454 37.8125H105.65V32.6562L55.4231 12.0312L5.19592 32.6562V37.8125H10.3918L55.4231 18.9062Z" fill="#A2C1FA"/>
<path d="M84.8666 82.5V72.1875H81.4027V82.5H71.0108V72.1875H67.5469V82.5H55.4231V85.9375H67.5469V96.25H71.0108V85.9375H81.4027V96.25H84.8666V85.9375H96.9904V82.5H84.8666Z" fill="#F5A431"/>
<path d="M32.9075 77.3438H46.7632V80.7812H32.9075V77.3438Z" fill="#F5A431"/>
<path d="M5.19592 96.25V87.6562L10.3918 80.7812H13.8558L19.0517 85.9375H27.7115V96.25H5.19592Z" fill="#F7C04A"/>
<path d="M13.8558 97.9688C15.7689 97.9688 17.3197 96.4297 17.3197 94.5312C17.3197 92.6328 15.7689 91.0938 13.8558 91.0938C11.9427 91.0938 10.3918 92.6328 10.3918 94.5312C10.3918 96.4297 11.9427 97.9688 13.8558 97.9688Z" fill="#8796C4"/>
<path d="M13.8558 99.6875C12.8281 99.6875 11.8235 99.3851 10.9691 98.8185C10.1146 98.2519 9.44864 97.4466 9.05537 96.5045C8.6621 95.5623 8.55921 94.5255 8.75969 93.5253C8.96018 92.5251 9.45504 91.6064 10.1817 90.8852C10.9084 90.1641 11.8342 89.673 12.8421 89.4741C13.85 89.2751 14.8947 89.3772 15.8442 89.7675C16.7936 90.1578 17.6051 90.8187 18.176 91.6666C18.7469 92.5145 19.0517 93.5114 19.0517 94.5313C19.0501 95.8983 18.5022 97.2089 17.5281 98.1756C16.554 99.1422 15.2333 99.686 13.8558 99.6875ZM13.8558 92.8125C13.5132 92.8125 13.1784 92.9133 12.8935 93.1022C12.6087 93.291 12.3867 93.5595 12.2556 93.8735C12.1245 94.1876 12.0902 94.5332 12.1571 94.8666C12.2239 95.2 12.3889 95.5062 12.6311 95.7466C12.8733 95.987 13.1819 96.1507 13.5179 96.217C13.8538 96.2833 14.2021 96.2493 14.5186 96.1192C14.835 95.9891 15.1055 95.7688 15.2958 95.4861C15.4862 95.2035 15.5877 94.8712 15.5877 94.5313C15.5872 94.0756 15.4046 93.6387 15.0799 93.3165C14.7552 92.9943 14.315 92.813 13.8558 92.8125Z" fill="#56679C"/>
<path d="M27.7115 97.9688C29.6246 97.9688 31.1754 96.4297 31.1754 94.5312C31.1754 92.6328 29.6246 91.0938 27.7115 91.0938C25.7984 91.0938 24.2476 92.6328 24.2476 94.5312C24.2476 96.4297 25.7984 97.9688 27.7115 97.9688Z" fill="#8796C4"/>
<path d="M27.7115 99.6875C26.6838 99.6875 25.6792 99.3851 24.8248 98.8185C23.9703 98.2519 23.3043 97.4466 22.9111 96.5045C22.5178 95.5623 22.4149 94.5255 22.6154 93.5253C22.8159 92.5251 23.3108 91.6064 24.0374 90.8852C24.7641 90.1641 25.6899 89.673 26.6978 89.4741C27.7057 89.2751 28.7504 89.3772 29.6999 89.7675C30.6493 90.1578 31.4608 90.8187 32.0317 91.6666C32.6027 92.5145 32.9074 93.5114 32.9074 94.5313C32.9058 95.8983 32.3579 97.2089 31.3838 98.1756C30.4097 99.1422 29.089 99.686 27.7115 99.6875ZM27.7115 92.8125C27.3689 92.8125 27.0341 92.9133 26.7492 93.1022C26.4644 93.291 26.2424 93.5595 26.1113 93.8735C25.9803 94.1876 25.946 94.5332 26.0128 94.8666C26.0796 95.2 26.2446 95.5062 26.4868 95.7466C26.729 95.987 27.0376 96.1507 27.3736 96.217C27.7096 96.2833 28.0578 96.2493 28.3743 96.1192C28.6907 95.9891 28.9612 95.7688 29.1516 95.4861C29.3419 95.2035 29.4434 94.8712 29.4434 94.5313C29.4429 94.0756 29.2603 93.6387 28.9356 93.3165C28.6109 92.9943 28.1707 92.813 27.7115 92.8125Z" fill="#56679C"/>
</svg>
